SplineFontDB: 3.2
FontName: Vazirmatn-UI-ExtraBold
FullName: Vazirmatn UI ExtraBold
FamilyName: Vazirmatn UI ExtraBold
Weight: Heavy
Copyright: Copyright 2015 The Vazirmatn Project Authors (https://github.com/rastikerdar/vazirmatn)
Version: 33.003
ItalicAngle: 0
UnderlinePosition: -780
UnderlineWidth: 100
Ascent: 1638
Descent: 410
InvalidEm: 0
sfntRevision: 0x002100c5
LayerCount: 2
Layer: 0 1 "Back" 1
Layer: 1 1 "Fore" 0
XUID: [1021 361 -1614679662 4656999]
StyleMap: 0x0040
FSType: 0
OS2Version: 4
OS2_WeightWidthSlopeOnly: 0
OS2_UseTypoMetrics: 1
CreationTime: 1431850356
ModificationTime: 1724682753
PfmFamily: 81
TTFWeight: 800
TTFWidth: 5
LineGap: 0
VLineGap: 0
Panose: 0 0 0 0 0 0 0 0 0 0
OS2TypoAscent: 1950
OS2TypoAOffset: 0
OS2TypoDescent: -970
OS2TypoDOffset: 0
OS2TypoLinegap: 0
OS2WinAscent: 1950
OS2WinAOffset: 0
OS2WinDescent: 970
OS2WinDOffset: 0
HheadAscent: 2100
HheadAOffset: 0
HheadDescent: -1100
HheadDOffset: 0
OS2SubXSize: 1331
OS2SubYSize: 1433
OS2SubXOff: 0
OS2SubYOff: 286
OS2SupXSize: 1331
OS2SupYSize: 1433
OS2SupXOff: 0
OS2SupYOff: 983
OS2StrikeYSize: 102
OS2StrikeYPos: 530
OS2CapHeight: 1638
OS2XHeight: 1082
OS2Vendor: '    '
OS2CodePages: 00000041.20080000
OS2UnicodeRanges: 80002003.80000000.00000008.00000000
Lookup: 1 0 0 "'c2sc' Capitals to Small Capitals lookup 0" { "'c2sc' Capitals to Small Capitals lookup 0 subtable"  } ['c2sc' ('DFLT' <'dflt' > 'cyrl' <'dflt' > 'grek' <'dflt' > 'latn' <'AZE ' 'CRT ' 'FRA ' 'MOL ' 'NAV ' 'ROM ' 'TRK ' 'dflt' > ) ]
Lookup: 1 0 0 "'smcp' Lowercase to Small Capitals lookup 1" { "'smcp' Lowercase to Small Capitals lookup 1 subtable"  } ['smcp' ('DFLT' <'dflt' > 'cyrl' <'dflt' > 'grek' <'dflt' > 'latn' <'AZE ' 'CRT ' 'FRA ' 'MOL ' 'NAV ' 'ROM ' 'TRK ' 'dflt' > ) ]
Lookup: 1 0 0 "'unic' Unicase lookup 2" { "'unic' Unicase lookup 2 subtable"  } ['unic' ('DFLT' <'dflt' > 'cyrl' <'dflt' > 'grek' <'dflt' > 'latn' <'AZE ' 'CRT ' 'FRA ' 'MOL ' 'NAV ' 'ROM ' 'TRK ' 'dflt' > ) ]

StartChar: A
Encoding: 65 65 2
Width: 1385
VWidth: 1798
GlyphClass: 2
Flags: W
AnchorPoint: "Anchor-1" 686 -250 basechar 0
AnchorPoint: "Anchor-0" 672 1351 basechar 0
LayerCount: 2
Fore
SplineSet
1037 -250 m 1,0,-1
 944 40 l 1,1,-1
 441 40 l 1,2,-1
 349 -250 l 1,3,-1
 1 -250 l 1,4,-1
 540 1206 l 1,5,-1
 844 1206 l 1,6,-1
 1385 -250 l 1,7,-1
 1037 -250 l 1,0,-1
522 292 m 1,8,-1
 864 292 l 1,9,-1
 693 827 l 1,10,-1
 522 292 l 1,8,-1
EndSplineSet
Substitution2: "'unic' Unicase lookup 2 subtable" A.unic
Substitution2: "'c2sc' Capitals to Small Capitals lookup 0 subtable" A.smcp
Position2: "'cpsp' Capital Spacing lookup 0 subtable" dx=36 dy=0 dh=72 dv=0
EndChar

StartChar: A.smcp
Encoding: 65537 -1 3
Width: 1203
GlyphClass: 2
Flags: W
AnchorPoint: "Anchor-1" 592 0 basechar 0
AnchorPoint: "Anchor-0" 581 1320 basechar 0
LayerCount: 2
Fore
SplineSet
894 0 m 1,0,-1
 817 216 l 1,1,-1
 384 216 l 1,2,-1
 308 0 l 1,3,-1
 -8 0 l 1,4,-1
 449 1165 l 1,5,-1
 748 1165 l 1,6,-1
 1209 0 l 1,7,-1
 894 0 l 1,0,-1
460 434 m 1,8,-1
 738 434 l 1,9,-1
 597 827 l 1,10,-1
 460 434 l 1,8,-1
EndSplineSet
EndChar

StartChar: A.unic
Encoding: 65538 -1 4
Width: 1385
GlyphClass: 2
Flags: W
AnchorPoint: "Anchor-1" 682 0 basechar 0
AnchorPoint: "Anchor-0" 701 1632 basechar 0
LayerCount: 2
Fore
SplineSet
980 0 m 1,0,1
 960 49 960 49 948 125 c 1,2,3
 892 67 892 67 799 23.5 c 128,-1,4
 706 -20 706 -20 554 -20 c 0,5,6
 422 -20 422 -20 313.5 32.5 c 128,-1,7
 205 85 205 85 141 184.5 c 128,-1,8
 77 284 77 284 77 423 c 0,9,10
 77 628 77 628 223.5 743 c 128,-1,11
 370 858 370 858 695 858 c 2,12,-1
 936 858 l 1,13,-1
 936 967 l 2,14,15
 936 1087 936 1087 877 1156 c 128,-1,16
 818 1225 818 1225 683 1225 c 0,17,18
 427 1225 427 1225 427 1001 c 1,19,-1
 103 1001 l 1,20,21
 103 1137 103 1137 174 1244.5 c 128,-1,22
 245 1352 245 1352 378 1414.5 c 128,-1,23
 511 1477 511 1477 698 1477 c 0,24,25
 860 1477 860 1477 987 1420 c 128,-1,26
 1114 1363 1114 1363 1187.5 1249.5 c 128,-1,27
 1261 1136 1261 1136 1261 965 c 2,28,-1
 1261 310 l 2,29,30
 1261 195 1261 195 1272.5 130 c 128,-1,31
 1284 65 1284 65 1306 17 c 1,32,-1
 1306 0 l 1,33,-1
 980 0 l 1,0,1
622 233 m 0,34,35
 697 233 697 233 761 260 c 128,-1,36
 825 287 825 287 870.5 328 c 128,-1,37
 916 369 916 369 936 411 c 1,38,-1
 936 614 l 1,39,-1
 699 614 l 2,40,41
 536 614 536 614 469.5 565 c 128,-1,42
 403 516 403 516 403 427 c 0,43,44
 403 334 403 334 463.5 283.5 c 128,-1,45
 524 233 524 233 622 233 c 0,34,35
EndSplineSet
EndChar

StartChar: AE
Encoding: 198 198 5
Width: 1924
VWidth: 1798
GlyphClass: 2
Flags: W
AnchorPoint: "Anchor-0" 939 1362 basechar 0
LayerCount: 2
Fore
SplineSet
1857 -4 m 1,0,-1
 1857 -250 l 1,1,-1
 962 -250 l 1,2,-1
 948 83 l 1,3,-1
 535 83 l 1,4,-1
 375 -250 l 1,5,-1
 11 -250 l 1,6,-1
 770 1206 l 1,7,-1
 1795 1206 l 1,8,-1
 1795 960 l 1,9,-1
 1223 960 l 1,10,-1
 1238 619 l 1,11,-1
 1714 619 l 1,12,-1
 1714 373 l 1,13,-1
 1248 373 l 1,14,-1
 1264 -4 l 1,15,-1
 1857 -4 l 1,0,-1
658 338 m 1,16,-1
 937 338 l 1,17,-1
 915 871 l 1,18,-1
 658 338 l 1,16,-1
EndSplineSet
Substitution2: "'c2sc' Capitals to Small Capitals lookup 0 subtable" AE.smcp
Position2: "'cpsp' Capital Spacing lookup 0 subtable" dx=36 dy=0 dh=72 dv=0
EndChar

StartChar: AE.smcp
Encoding: 65539 -1 6
Width: 1621
GlyphClass: 2
Flags: W
AnchorPoint: "Anchor-1" 896 0 basechar 0
AnchorPoint: "Anchor-0" 896 1290 basechar 0
LayerCount: 2
Fore
SplineSet
1562 241 m 1,0,-1
 1562 0 l 1,1,-1
 721 0 l 1,2,-1
 713 216 l 1,3,-1
 380 216 l 1,4,-1
 284 0 l 1,5,-1
 -56 0 l 1,6,-1
 509 1165 l 1,7,-1
 1517 1165 l 1,8,-1
 1517 924 l 1,9,-1
 995 924 l 1,10,-1
 1003 726 l 1,11,-1
 1456 726 l 1,12,-1
 1456 485 l 1,13,-1
 1012 485 l 1,14,-1
 1022 241 l 1,15,-1
 1562 241 l 1,0,-1
486 453 m 1,16,-1
 704 453 l 1,17,-1
 686 902 l 1,18,-1
 486 453 l 1,16,-1
EndSplineSet
EndChar

StartChar: Aogonek
Encoding: 260 260 27
Width: 1385
VWidth: 1798
GlyphClass: 2
Flags: W
AnchorPoint: "Anchor-1" 686 -250 basechar 0
AnchorPoint: "Anchor-0" 672 1351 basechar 0
LayerCount: 2
Fore
SplineSet
1 -250 m 1,0,-1
 540 1206 l 1,1,-1
 844 1206 l 1,2,-1
 1385 -250 l 1,3,-1
 1289 -250 l 1,4,5
 1211 -292 1211 -292 1175 -330 c 128,-1,6
 1139 -368 1139 -368 1139 -421 c 0,7,8
 1139 -448 1139 -448 1153 -466.5 c 128,-1,9
 1167 -485 1167 -485 1202 -485 c 0,10,11
 1228 -485 1228 -485 1245.5 -478.5 c 128,-1,12
 1263 -472 1263 -472 1276 -465 c 1,13,-1
 1311 -626 l 1,14,15
 1286 -641 1286 -641 1246 -655.5 c 128,-1,16
 1206 -670 1206 -670 1145 -670 c 0,17,18
 1048 -670 1048 -670 979.5 -616 c 128,-1,19
 911 -562 911 -562 911 -459 c 0,20,21
 911 -401 911 -401 937 -344.5 c 128,-1,22
 963 -288 963 -288 1034 -239 c 1,23,-1
 944 40 l 1,24,-1
 441 40 l 1,25,-1
 349 -250 l 1,26,-1
 1 -250 l 1,0,-1
522 292 m 1,27,-1
 864 292 l 1,28,-1
 693 827 l 1,29,-1
 522 292 l 1,27,-1
EndSplineSet
Substitution2: "'locl' Localized Forms in Latin lookup 8 subtable" Aogonek.NAV
Substitution2: "'unic' Unicase lookup 2 subtable" Aogonek.unic
Substitution2: "'c2sc' Capitals to Small Capitals lookup 0 subtable" Aogonek.smcp
Position2: "'cpsp' Capital Spacing lookup 0 subtable" dx=36 dy=0 dh=72 dv=0
EndChar

StartChar: Aogonek.smcp
Encoding: 65554 -1 29
Width: 1203
GlyphClass: 2
Flags: W
AnchorPoint: "Anchor-1" 592 0 basechar 0
AnchorPoint: "Anchor-0" 581 1320 basechar 0
LayerCount: 2
Fore
SplineSet
-8 0 m 1,0,-1
 449 1165 l 1,1,-1
 748 1165 l 1,2,-1
 1209 0 l 1,3,-1
 1140 0 l 1,4,5
 1062 -42 1062 -42 1026 -80 c 128,-1,6
 990 -118 990 -118 990 -171 c 0,7,8
 990 -198 990 -198 1004.5 -216.5 c 128,-1,9
 1019 -235 1019 -235 1053 -235 c 0,10,11
 1079 -235 1079 -235 1096.5 -228.5 c 128,-1,12
 1114 -222 1114 -222 1127 -215 c 1,13,-1
 1162 -376 l 1,14,15
 1137 -391 1137 -391 1097 -405.5 c 128,-1,16
 1057 -420 1057 -420 997 -420 c 0,17,18
 899 -420 899 -420 830.5 -366 c 128,-1,19
 762 -312 762 -312 762 -209 c 0,20,21
 762 -150 762 -150 789 -93 c 128,-1,22
 816 -36 816 -36 889 14 c 1,23,-1
 817 216 l 1,24,-1
 384 216 l 1,25,-1
 308 0 l 1,26,-1
 -8 0 l 1,0,-1
460 434 m 1,27,-1
 738 434 l 1,28,-1
 597 827 l 1,29,-1
 460 434 l 1,27,-1
EndSplineSet
Substitution2: "'locl' Localized Forms in Latin lookup 8 subtable" Aogonek.smcp.NAV
EndChar

StartChar: B
Encoding: 66 66 41
Width: 1315
VWidth: 1798
GlyphClass: 2
Flags: W
AnchorPoint: "Anchor-1" 613 -240 basechar 0
AnchorPoint: "Anchor-0" 606 1362 basechar 0
LayerCount: 2
Fore
SplineSet
689 -250 m 2,0,-1
 120 -250 l 1,1,-1
 120 1206 l 1,2,-1
 636 1206 l 2,3,4
 898 1206 898 1206 1046 1108 c 128,-1,5
 1194 1010 1194 1010 1194 806 c 0,6,7
 1194 707 1194 707 1146 623 c 128,-1,8
 1098 539 1098 539 987 497 c 1,9,10
 1116 464 1116 464 1170.5 373 c 128,-1,11
 1225 282 1225 282 1225 179 c 0,12,13
 1225 -34 1225 -34 1088 -142 c 128,-1,14
 951 -250 951 -250 689 -250 c 2,0,-1
636 953 m 2,15,-1
 446 953 l 1,16,-1
 446 597 l 1,17,-1
 635 597 l 2,18,19
 758 597 758 597 813 641.5 c 128,-1,20
 868 686 868 686 868 771 c 0,21,22
 868 868 868 868 813 910.5 c 128,-1,23
 758 953 758 953 636 953 c 2,15,-1
902 183 m 0,24,25
 902 273 902 273 855.5 326 c 128,-1,26
 809 379 809 379 702 379 c 2,27,-1
 446 379 l 1,28,-1
 446 2 l 1,29,-1
 689 2 l 2,30,31
 802 2 802 2 852 54 c 128,-1,32
 902 106 902 106 902 183 c 0,24,25
EndSplineSet
Substitution2: "'c2sc' Capitals to Small Capitals lookup 0 subtable" B.smcp
Position2: "'cpsp' Capital Spacing lookup 0 subtable" dx=36 dy=0 dh=72 dv=0
EndChar

StartChar: B.smcp
Encoding: 65563 -1 42
Width: 1139
GlyphClass: 2
Flags: W
AnchorPoint: "Anchor-1" 536 10 basechar 0
AnchorPoint: "Anchor-0" 529 1320 basechar 0
LayerCount: 2
Fore
SplineSet
595 0 m 2,0,-1
 90 0 l 1,1,-1
 90 1165 l 1,2,-1
 548 1165 l 2,3,4
 784 1165 784 1165 915 1085.5 c 128,-1,5
 1046 1006 1046 1006 1046 843 c 0,6,7
 1046 764 1046 764 1007.5 693.5 c 128,-1,8
 969 623 969 623 872 589 c 1,9,10
 983 561 983 561 1027.5 485.5 c 128,-1,11
 1072 410 1072 410 1072 334 c 0,12,13
 1072 160 1072 160 951.5 80 c 128,-1,14
 831 0 831 0 595 0 c 2,0,-1
577 922 m 2,15,-1
 404 922 l 1,16,-1
 404 681 l 1,17,-1
 569 681 l 2,18,19
 655 681 655 681 693.5 710.5 c 128,-1,20
 732 740 732 740 732 798 c 0,21,22
 732 866 732 866 694 894 c 128,-1,23
 656 922 656 922 577 922 c 2,15,-1
759 357 m 0,24,25
 759 415 759 415 725 447.5 c 128,-1,26
 691 480 691 480 608 480 c 2,27,-1
 404 480 l 1,28,-1
 404 242 l 1,29,-1
 595 242 l 2,30,31
 685 242 685 242 722 278 c 128,-1,32
 759 314 759 314 759 357 c 0,24,25
EndSplineSet
EndChar

StartChar: C
Encoding: 67 67 43
Width: 1342
VWidth: 1798
GlyphClass: 2
Flags: W
AnchorPoint: "Anchor-1" 680 -260 basechar 0
AnchorPoint: "Anchor-0" 680 1383 basechar 0
LayerCount: 2
Fore
SplineSet
957 238 m 1,0,-1
 1281 238 l 1,1,2
 1273 88 1273 88 1200 -26.5 c 128,-1,3
 1127 -141 1127 -141 996.5 -205.5 c 128,-1,4
 866 -270 866 -270 687 -270 c 0,5,6
 497 -270 497 -270 360.5 -184.5 c 128,-1,7
 224 -99 224 -99 151 58.5 c 128,-1,8
 78 216 78 216 78 433 c 2,9,-1
 78 522 l 2,10,11
 78 739 78 739 153.5 897 c 128,-1,12
 229 1055 229 1055 365.5 1141 c 128,-1,13
 502 1227 502 1227 686 1227 c 0,14,15
 872 1227 872 1227 1000 1160 c 128,-1,16
 1128 1093 1128 1093 1198.5 976 c 128,-1,17
 1269 859 1269 859 1283 709 c 1,18,-1
 958 709 l 1,19,20
 951 837 951 837 890.5 904 c 128,-1,21
 830 971 830 971 686 971 c 0,22,23
 546 971 546 971 477 864 c 128,-1,24
 408 757 408 757 408 524 c 2,25,-1
 408 433 l 2,26,27
 408 204 408 204 472 95 c 128,-1,28
 536 -14 536 -14 687 -14 c 0,29,30
 942 -14 942 -14 957 238 c 1,0,-1
EndSplineSet
Substitution2: "'c2sc' Capitals to Small Capitals lookup 0 subtable" C.smcp
Position2: "'cpsp' Capital Spacing lookup 0 subtable" dx=36 dy=0 dh=72 dv=0
EndChar

StartChar: C.smcp
Encoding: 65564 -1 44
Width: 1157
GlyphClass: 2
Flags: W
AnchorPoint: "Anchor-1" 586 -4 basechar 0
AnchorPoint: "Anchor-0" 587 1320 basechar 0
LayerCount: 2
Fore
SplineSet
799 402 m 1,0,-1
 1112 402 l 1,1,2
 1106 276 1106 276 1040.5 182 c 128,-1,3
 975 88 975 88 860 36 c 128,-1,4
 745 -16 745 -16 590 -16 c 0,5,6
 337 -16 337 -16 196.5 137 c 128,-1,7
 56 290 56 290 56 558 c 2,8,-1
 56 606 l 2,9,10
 56 785 56 785 122 914 c 128,-1,11
 188 1043 188 1043 306.5 1112.5 c 128,-1,12
 425 1182 425 1182 584 1182 c 0,13,14
 750 1182 750 1182 863.5 1126 c 128,-1,15
 977 1070 977 1070 1040 973.5 c 128,-1,16
 1103 877 1103 877 1114 754 c 1,17,-1
 801 754 l 1,18,19
 800 829 800 829 751.5 884 c 128,-1,20
 703 939 703 939 584 939 c 0,21,22
 478 939 478 939 423.5 858.5 c 128,-1,23
 369 778 369 778 369 607 c 2,24,-1
 369 558 l 2,25,26
 369 383 369 383 420.5 304.5 c 128,-1,27
 472 226 472 226 590 226 c 0,28,29
 688 226 688 226 743 268 c 128,-1,30
 798 310 798 310 799 402 c 1,0,-1
EndSplineSet
EndChar

StartChar: D
Encoding: 68 68 54
Width: 1328
VWidth: 1798
GlyphClass: 2
Flags: W
AnchorPoint: "Anchor-1" 613 -240 basechar 0
AnchorPoint: "Anchor-0" 609 1362 basechar 0
LayerCount: 2
Fore
SplineSet
581 -250 m 2,0,-1
 120 -250 l 1,1,-1
 120 1206 l 1,2,-1
 579 1206 l 2,3,4
 776 1206 776 1206 927 1118 c 128,-1,5
 1078 1030 1078 1030 1163.5 873.5 c 128,-1,6
 1249 717 1249 717 1249 510 c 2,7,-1
 1249 445 l 2,8,9
 1249 238 1249 238 1163.5 81.5 c 128,-1,10
 1078 -75 1078 -75 927.5 -162.5 c 128,-1,11
 777 -250 777 -250 581 -250 c 2,0,-1
579 953 m 2,12,-1
 446 953 l 1,13,-1
 446 2 l 1,14,-1
 581 2 l 2,15,16
 745 2 745 2 831.5 116 c 128,-1,17
 918 230 918 230 918 445 c 2,18,-1
 918 512 l 2,19,20
 918 728 918 728 830.5 840.5 c 128,-1,21
 743 953 743 953 579 953 c 2,12,-1
EndSplineSet
Substitution2: "'c2sc' Capitals to Small Capitals lookup 0 subtable" D.smcp
Position2: "'cpsp' Capital Spacing lookup 0 subtable" dx=36 dy=0 dh=72 dv=0
EndChar

StartChar: D.smcp
Encoding: 65569 -1 55
Width: 1138
GlyphClass: 2
Flags: W
AnchorPoint: "Anchor-1" 500 10 basechar 0
AnchorPoint: "Anchor-0" 500 1320 basechar 0
LayerCount: 2
Fore
SplineSet
505 0 m 2,0,-1
 90 0 l 1,1,-1
 90 1165 l 1,2,-1
 498 1165 l 2,3,4
 668 1165 668 1165 799.5 1093 c 128,-1,5
 931 1021 931 1021 1006 894.5 c 128,-1,6
 1081 768 1081 768 1081 604 c 2,7,-1
 1081 560 l 2,8,9
 1081 397 1081 397 1006.5 270.5 c 128,-1,10
 932 144 932 144 802 72 c 128,-1,11
 672 0 672 0 505 0 c 2,0,-1
498 922 m 2,12,-1
 404 922 l 1,13,-1
 404 242 l 1,14,-1
 505 242 l 2,15,16
 650 242 650 242 708.5 319.5 c 128,-1,17
 767 397 767 397 767 560 c 2,18,-1
 767 606 l 2,19,20
 767 763 767 763 708.5 842.5 c 128,-1,21
 650 922 650 922 498 922 c 2,12,-1
EndSplineSet
EndChar

StartChar: Dcroat
Encoding: 272 272 58
Width: 1358
VWidth: 1798
GlyphClass: 2
Flags: W
AnchorPoint: "Anchor-1" 613 -240 basechar 0
AnchorPoint: "Anchor-0" 609 1362 basechar 0
LayerCount: 2
Fore
SplineSet
611 -250 m 2,0,-1
 150 -250 l 1,1,-1
 150 390 l 1,2,-1
 5 390 l 1,3,-1
 5 575 l 1,4,-1
 150 575 l 1,5,-1
 150 1206 l 1,6,-1
 609 1206 l 2,7,8
 806 1206 806 1206 957 1118 c 128,-1,9
 1108 1030 1108 1030 1193.5 873.5 c 128,-1,10
 1279 717 1279 717 1279 510 c 2,11,-1
 1279 445 l 2,12,13
 1279 238 1279 238 1193.5 81.5 c 128,-1,14
 1108 -75 1108 -75 957.5 -162.5 c 128,-1,15
 807 -250 807 -250 611 -250 c 2,0,-1
721 575 m 1,16,-1
 721 390 l 1,17,-1
 476 390 l 1,18,-1
 476 2 l 1,19,-1
 611 2 l 2,20,21
 775 2 775 2 861.5 116 c 128,-1,22
 948 230 948 230 948 445 c 2,23,-1
 948 512 l 2,24,25
 948 728 948 728 860.5 840.5 c 128,-1,26
 773 953 773 953 609 953 c 2,27,-1
 476 953 l 1,28,-1
 476 575 l 1,29,-1
 721 575 l 1,16,-1
EndSplineSet
Substitution2: "'c2sc' Capitals to Small Capitals lookup 0 subtable" Dcroat.smcp
Position2: "'cpsp' Capital Spacing lookup 0 subtable" dx=36 dy=0 dh=72 dv=0
EndChar

StartChar: Delta
Encoding: 8710 8710 60
Width: 1512
GlyphClass: 2
Flags: W
LayerCount: 2
Fore
SplineSet
19 0 m 1,0,-1
 590 1456 l 1,1,-1
 937 1456 l 1,2,-1
 1510 0 l 1,3,-1
 19 0 l 1,0,-1
455 252 m 1,4,-1
 1073 252 l 1,5,-1
 763 1085 l 1,6,-1
 455 252 l 1,4,-1
EndSplineSet
Substitution2: "'c2sc' Capitals to Small Capitals lookup 0 subtable" Delta.smcp
Position2: "'cpsp' Capital Spacing lookup 0 subtable" dx=36 dy=0 dh=72 dv=0
EndChar

StartChar: Delta.smcp
Encoding: 65572 -1 61
Width: 1166
GlyphClass: 2
Flags: W
LayerCount: 2
Fore
SplineSet
-8 0 m 1,0,-1
 408 1165 l 1,1,-1
 756 1165 l 1,2,-1
 1173 0 l 1,3,-1
 -8 0 l 1,0,-1
587 848 m 1,4,-1
 581 880 l 1,5,-1
 574 844 l 1,6,-1
 394 243 l 1,7,-1
 771 243 l 1,8,-1
 587 848 l 1,4,-1
EndSplineSet
EndChar

StartChar: E
Encoding: 69 69 62
Width: 1149
VWidth: 1798
GlyphClass: 2
Flags: W
AnchorPoint: "Anchor-1" 619 -240 basechar 0
AnchorPoint: "Anchor-0" 619 1362 basechar 0
LayerCount: 2
Fore
SplineSet
1110 2 m 1,0,-1
 1110 -250 l 1,1,-1
 120 -250 l 1,2,-1
 120 1206 l 1,3,-1
 1111 1206 l 1,4,-1
 1111 953 l 1,5,-1
 446 953 l 1,6,-1
 446 620 l 1,7,-1
 1010 620 l 1,8,-1
 1010 376 l 1,9,-1
 446 376 l 1,10,-1
 446 2 l 1,11,-1
 1110 2 l 1,0,-1
EndSplineSet
Substitution2: "'unic' Unicase lookup 2 subtable" E.unic
Substitution2: "'c2sc' Capitals to Small Capitals lookup 0 subtable" E.smcp
Position2: "'cpsp' Capital Spacing lookup 0 subtable" dx=36 dy=0 dh=72 dv=0
EndChar

StartChar: E.smcp
Encoding: 65573 -1 63
Width: 984
GlyphClass: 2
Flags: W
AnchorPoint: "Anchor-1" 537 8 basechar 0
AnchorPoint: "Anchor-0" 537 1320 basechar 0
LayerCount: 2
Fore
SplineSet
959 242 m 1,0,-1
 959 0 l 1,1,-1
 90 0 l 1,2,-1
 90 1165 l 1,3,-1
 962 1165 l 1,4,-1
 962 922 l 1,5,-1
 404 922 l 1,6,-1
 404 723 l 1,7,-1
 874 723 l 1,8,-1
 874 481 l 1,9,-1
 404 481 l 1,10,-1
 404 242 l 1,11,-1
 959 242 l 1,0,-1
EndSplineSet
EndChar

StartChar: E.unic
Encoding: 65574 -1 64
Width: 1427
GlyphClass: 2
Flags: W
AnchorPoint: "Anchor-1" 743 10 basechar 0
AnchorPoint: "Anchor-0" 735 1643 basechar 0
LayerCount: 2
Fore
SplineSet
751 -21 m 0,0,1
 534 -21 534 -21 382.5 65 c 128,-1,2
 231 151 231 151 152.5 303 c 128,-1,3
 74 455 74 455 74 651 c 2,4,-1
 74 809 l 2,5,6
 74 1006 74 1006 157 1156.5 c 128,-1,7
 240 1307 240 1307 383 1392 c 128,-1,8
 526 1477 526 1477 704 1477 c 0,9,10
 1013 1476 1013 1476 1174 1291.5 c 128,-1,11
 1335 1107 1335 1107 1335 790 c 2,12,-1
 1335 616 l 1,13,-1
 399 616 l 1,14,15
 404 515 404 515 443.5 433 c 128,-1,16
 483 351 483 351 563 303 c 128,-1,17
 643 255 643 255 771 255 c 0,18,19
 894 255 894 255 971.5 295.5 c 128,-1,20
 1049 336 1049 336 1104 379 c 1,21,-1
 1281 174 l 1,22,23
 1182 101 1182 101 1101.5 58 c 128,-1,24
 1021 15 1021 15 939 -3 c 128,-1,25
 857 -21 857 -21 751 -21 c 0,0,1
704 1201 m 0,26,27
 562 1201 562 1201 486.5 1102.5 c 128,-1,28
 411 1004 411 1004 400 859 c 1,29,-1
 1011 859 l 1,30,-1
 1011 909 l 2,31,32
 1011 1032 1011 1032 941 1116.5 c 128,-1,33
 871 1201 871 1201 704 1201 c 0,26,27
EndSplineSet
EndChar

StartChar: Eng
Encoding: 330 330 89
Width: 1448
VWidth: 1798
GlyphClass: 2
Flags: W
AnchorPoint: "Anchor-1" 720 -240 basechar 0
AnchorPoint: "Anchor-0" 726 1351 basechar 0
LayerCount: 2
Fore
SplineSet
121 1206 m 1,0,-1
 446 1206 l 1,1,-1
 1001 261 l 1,2,-1
 1001 1206 l 1,3,-1
 1326 1206 l 1,4,-1
 1326 -269 l 2,5,6
 1326 -471 1326 -471 1218.5 -579 c 128,-1,7
 1111 -687 1111 -687 923 -687 c 0,8,9
 882 -687 882 -687 845.5 -683.5 c 128,-1,10
 809 -680 809 -680 767 -670 c 1,11,-1
 781 -423 l 1,12,13
 806 -429 806 -429 826.5 -431.5 c 128,-1,14
 847 -434 847 -434 880 -434 c 0,15,16
 1001 -434 1001 -434 1001 -269 c 2,17,-1
 1001 -250 l 1,18,-1
 446 696 l 1,19,-1
 446 -250 l 1,20,-1
 121 -250 l 1,21,-1
 121 1206 l 1,0,-1
EndSplineSet
Substitution2: "'c2sc' Capitals to Small Capitals lookup 0 subtable" Eng.smcp
Position2: "'cpsp' Capital Spacing lookup 0 subtable" dx=36 dy=0 dh=72 dv=0
EndChar

StartChar: Eng.smcp
Encoding: 65591 -1 90
Width: 1234
GlyphClass: 2
Flags: W
AnchorPoint: "Anchor-1" 619 4 basechar 0
AnchorPoint: "Anchor-0" 624 1320 basechar 0
LayerCount: 2
Fore
SplineSet
1144 1165 m 1,0,-1
 1144 -27 l 2,1,2
 1144 -226 1144 -226 1038.5 -331.5 c 128,-1,3
 933 -437 933 -437 748 -437 c 0,4,5
 708 -437 708 -437 672.5 -433.5 c 128,-1,6
 637 -430 637 -430 596 -420 c 1,7,-1
 610 -181 l 1,8,9
 635 -187 635 -187 657 -190 c 128,-1,10
 679 -193 679 -193 710 -193 c 0,11,12
 830 -193 830 -193 830 -27 c 2,13,-1
 830 2 l 1,14,-1
 404 710 l 1,15,-1
 404 0 l 1,16,-1
 90 0 l 1,17,-1
 90 1165 l 1,18,-1
 404 1165 l 1,19,-1
 831 455 l 1,20,-1
 831 1165 l 1,21,-1
 1144 1165 l 1,0,-1
EndSplineSet
EndChar

StartChar: Eogonek
Encoding: 280 280 91
Width: 1149
VWidth: 1798
GlyphClass: 2
Flags: W
AnchorPoint: "Anchor-1" 619 -240 basechar 0
AnchorPoint: "Anchor-0" 619 1362 basechar 0
LayerCount: 2
Fore
SplineSet
1110 2 m 1,0,-1
 1110 -250 l 1,1,-1
 936 -250 l 1,2,3
 858 -292 858 -292 822 -330 c 128,-1,4
 786 -368 786 -368 786 -421 c 0,5,6
 786 -448 786 -448 800 -466.5 c 128,-1,7
 814 -485 814 -485 848 -485 c 0,8,9
 875 -485 875 -485 892 -478.5 c 128,-1,10
 909 -472 909 -472 922 -465 c 1,11,-1
 957 -626 l 1,12,13
 932 -641 932 -641 892.5 -655.5 c 128,-1,14
 853 -670 853 -670 792 -670 c 0,15,16
 695 -670 695 -670 626 -616 c 128,-1,17
 557 -562 557 -562 557 -459 c 0,18,19
 557 -404 557 -404 580.5 -350.5 c 128,-1,20
 604 -297 604 -297 666 -250 c 1,21,-1
 120 -250 l 1,22,-1
 120 1206 l 1,23,-1
 1111 1206 l 1,24,-1
 1111 953 l 1,25,-1
 446 953 l 1,26,-1
 446 620 l 1,27,-1
 1010 620 l 1,28,-1
 1010 376 l 1,29,-1
 446 376 l 1,30,-1
 446 2 l 1,31,-1
 1110 2 l 1,0,-1
EndSplineSet
Substitution2: "'locl' Localized Forms in Latin lookup 8 subtable" Eogonek.NAV
Substitution2: "'unic' Unicase lookup 2 subtable" Eogonek.unic
Substitution2: "'c2sc' Capitals to Small Capitals lookup 0 subtable" Eogonek.smcp
Position2: "'cpsp' Capital Spacing lookup 0 subtable" dx=36 dy=0 dh=72 dv=0
EndChar

StartChar: Eogonek.smcp
Encoding: 65593 -1 93
Width: 984
GlyphClass: 2
Flags: W
AnchorPoint: "Anchor-1" 537 8 basechar 0
AnchorPoint: "Anchor-0" 537 1320 basechar 0
LayerCount: 2
Fore
SplineSet
959 242 m 1,0,-1
 959 0 l 1,1,-1
 812 0 l 1,2,3
 734 -42 734 -42 698 -80 c 128,-1,4
 662 -118 662 -118 662 -171 c 0,5,6
 662 -198 662 -198 676 -216.5 c 128,-1,7
 690 -235 690 -235 724 -235 c 0,8,9
 751 -235 751 -235 768 -228.5 c 128,-1,10
 785 -222 785 -222 798 -215 c 1,11,-1
 833 -376 l 1,12,13
 808 -391 808 -391 768.5 -405.5 c 128,-1,14
 729 -420 729 -420 668 -420 c 0,15,16
 571 -420 571 -420 502 -366 c 128,-1,17
 433 -312 433 -312 433 -209 c 0,18,19
 433 -154 433 -154 456.5 -100.5 c 128,-1,20
 480 -47 480 -47 542 0 c 1,21,-1
 90 0 l 1,22,-1
 90 1165 l 1,23,-1
 962 1165 l 1,24,-1
 962 922 l 1,25,-1
 404 922 l 1,26,-1
 404 723 l 1,27,-1
 874 723 l 1,28,-1
 874 481 l 1,29,-1
 404 481 l 1,30,-1
 404 242 l 1,31,-1
 959 242 l 1,0,-1
EndSplineSet
Substitution2: "'locl' Localized Forms in Latin lookup 8 subtable" Eogonek.smcp.NAV
EndChar

StartChar: Eth
Encoding: 208 208 96
Width: 1358
VWidth: 1798
GlyphClass: 2
Flags: W
AnchorPoint: "Anchor-1" 613 -240 basechar 0
AnchorPoint: "Anchor-0" 609 1362 basechar 0
LayerCount: 2
Fore
SplineSet
611 -250 m 2,0,-1
 150 -250 l 1,1,-1
 150 390 l 1,2,-1
 5 390 l 1,3,-1
 5 575 l 1,4,-1
 150 575 l 1,5,-1
 150 1206 l 1,6,-1
 609 1206 l 2,7,8
 806 1206 806 1206 957 1118 c 128,-1,9
 1108 1030 1108 1030 1193.5 873.5 c 128,-1,10
 1279 717 1279 717 1279 510 c 2,11,-1
 1279 445 l 2,12,13
 1279 238 1279 238 1193.5 81.5 c 128,-1,14
 1108 -75 1108 -75 957.5 -162.5 c 128,-1,15
 807 -250 807 -250 611 -250 c 2,0,-1
721 575 m 1,16,-1
 721 390 l 1,17,-1
 476 390 l 1,18,-1
 476 2 l 1,19,-1
 611 2 l 2,20,21
 775 2 775 2 861.5 116 c 128,-1,22
 948 230 948 230 948 445 c 2,23,-1
 948 512 l 2,24,25
 948 728 948 728 860.5 840.5 c 128,-1,26
 773 953 773 953 609 953 c 2,27,-1
 476 953 l 1,28,-1
 476 575 l 1,29,-1
 721 575 l 1,16,-1
EndSplineSet
Substitution2: "'c2sc' Capitals to Small Capitals lookup 0 subtable" Eth.smcp
Position2: "'cpsp' Capital Spacing lookup 0 subtable" dx=36 dy=0 dh=72 dv=0
EndChar

StartChar: Euro
Encoding: 8364 8364 98
Width: 1181
GlyphClass: 2
Flags: W
LayerCount: 2
Fore
SplineSet
881 232 m 0,0,1
 930 232 930 232 976 239 c 128,-1,2
 1022 246 1022 246 1063 262 c 1,3,-1
 1102 11 l 1,4,5
 1042 -3 1042 -3 976.5 -11 c 128,-1,6
 911 -19 911 -19 843 -19 c 0,7,8
 676 -19 676 -19 545.5 40.5 c 128,-1,9
 415 100 415 100 338 218 c 128,-1,10
 261 336 261 336 255 513 c 1,11,-1
 87 513 l 1,12,-1
 87 668 l 1,13,-1
 255 668 l 1,14,-1
 255 792 l 1,15,-1
 87 792 l 1,16,-1
 87 945 l 1,17,-1
 257 945 l 1,18,19
 270 1119 270 1119 350.5 1237 c 128,-1,20
 431 1355 431 1355 564.5 1415 c 128,-1,21
 698 1475 698 1475 870 1475 c 0,22,23
 929 1475 929 1475 987 1466.5 c 128,-1,24
 1045 1458 1045 1458 1102 1444 c 1,25,-1
 1063 1192 l 1,26,27
 1026 1206 1026 1206 979.5 1214.5 c 128,-1,28
 933 1223 933 1223 889 1223 c 0,29,30
 755 1223 755 1223 676 1158.5 c 128,-1,31
 597 1094 597 1094 583 945 c 1,32,-1
 904 945 l 1,33,-1
 904 792 l 1,34,-1
 581 792 l 1,35,-1
 581 668 l 1,36,-1
 904 668 l 1,37,-1
 904 513 l 1,38,-1
 581 513 l 1,39,40
 587 350 587 350 669 291 c 128,-1,41
 751 232 751 232 881 232 c 0,0,1
EndSplineSet
Substitution2: "'c2sc' Capitals to Small Capitals lookup 0 subtable" Euro.smcp
Position2: "'cpsp' Capital Spacing lookup 0 subtable" dx=36 dy=0 dh=72 dv=0
EndChar

StartChar: Euro.smcp
Encoding: 65597 -1 99
Width: 1033
GlyphClass: 2
Flags: W
LayerCount: 2
Fore
SplineSet
739 226 m 0,0,1
 798 226 798 226 843.5 234.5 c 128,-1,2
 889 243 889 243 939 253 c 1,3,-1
 961 15 l 1,4,5
 905 0 905 0 853.5 -8 c 128,-1,6
 802 -16 802 -16 739 -16 c 0,7,8
 525 -16 525 -16 390 86.5 c 128,-1,9
 255 189 255 189 224 368 c 1,10,-1
 71 368 l 1,11,-1
 71 541 l 1,12,-1
 215 541 l 1,13,-1
 215 614 l 1,14,-1
 71 614 l 1,15,-1
 71 788 l 1,16,-1
 225 788 l 1,17,18
 257 975 257 975 390.5 1079.5 c 128,-1,19
 524 1184 524 1184 737 1184 c 0,20,21
 801 1184 801 1184 851.5 1176 c 128,-1,22
 902 1168 902 1168 962 1151 c 1,23,-1
 940 913 l 1,24,25
 885 928 885 928 840.5 935 c 128,-1,26
 796 942 796 942 737 942 c 0,27,28
 653 942 653 942 605.5 902.5 c 128,-1,29
 558 863 558 863 541 788 c 1,30,-1
 882 788 l 1,31,-1
 882 614 l 1,32,-1
 529 614 l 1,33,-1
 529 541 l 1,34,-1
 882 541 l 1,35,-1
 882 368 l 1,36,-1
 540 368 l 1,37,38
 576 226 576 226 739 226 c 0,0,1
EndSplineSet
EndChar

StartChar: F
Encoding: 70 70 100
Width: 1122
VWidth: 1798
GlyphClass: 2
Flags: W
AnchorPoint: "Anchor-1" 619 -240 basechar 0
AnchorPoint: "Anchor-0" 619 1362 basechar 0
LayerCount: 2
Fore
SplineSet
1019 592 m 1,0,-1
 1019 340 l 1,1,-1
 446 340 l 1,2,-1
 446 -250 l 1,3,-1
 120 -250 l 1,4,-1
 120 1206 l 1,5,-1
 1083 1206 l 1,6,-1
 1083 953 l 1,7,-1
 446 953 l 1,8,-1
 446 592 l 1,9,-1
 1019 592 l 1,0,-1
EndSplineSet
Substitution2: "'c2sc' Capitals to Small Capitals lookup 0 subtable" F.smcp
Position2: "'cpsp' Capital Spacing lookup 0 subtable" dx=36 dy=0 dh=72 dv=0
EndChar

StartChar: F.smcp
Encoding: 65598 -1 101
Width: 963
GlyphClass: 2
Flags: W
AnchorPoint: "Anchor-1" 489 10 basechar 0
AnchorPoint: "Anchor-0" 541 1320 basechar 0
LayerCount: 2
Fore
SplineSet
889 692 m 1,0,-1
 889 450 l 1,1,-1
 404 450 l 1,2,-1
 404 0 l 1,3,-1
 90 0 l 1,4,-1
 90 1165 l 1,5,-1
 936 1165 l 1,6,-1
 936 922 l 1,7,-1
 404 922 l 1,8,-1
 404 692 l 1,9,-1
 889 692 l 1,0,-1
EndSplineSet
EndChar

StartChar: G
Encoding: 71 71 102
Width: 1396
VWidth: 1798
GlyphClass: 2
Flags: W
AnchorPoint: "Anchor-1" 730 -259 basechar 0
AnchorPoint: "Anchor-0" 672 1383 basechar 0
LayerCount: 2
Fore
SplineSet
1293 519 m 1,0,-1
 1293 -68 l 1,1,2
 1257 -109 1257 -109 1183.5 -156 c 128,-1,3
 1110 -203 1110 -203 996 -236.5 c 128,-1,4
 882 -270 882 -270 724 -270 c 0,5,6
 533 -270 533 -270 390 -187.5 c 128,-1,7
 247 -105 247 -105 167.5 52 c 128,-1,8
 88 209 88 209 88 435 c 2,9,-1
 88 521 l 2,10,11
 88 746 88 746 166 904 c 128,-1,12
 244 1062 244 1062 383.5 1144.5 c 128,-1,13
 523 1227 523 1227 705 1227 c 0,14,15
 900 1227 900 1227 1024.5 1164.5 c 128,-1,16
 1149 1102 1149 1102 1213 992 c 128,-1,17
 1277 882 1277 882 1292 739 c 1,18,-1
 978 739 l 1,19,20
 962 849 962 849 903 912 c 128,-1,21
 844 975 844 975 715 975 c 0,22,23
 576 975 576 975 497.5 861 c 128,-1,24
 419 747 419 747 419 523 c 2,25,-1
 419 435 l 2,26,27
 419 -18 419 -18 745 -18 c 0,28,29
 840 -18 840 -18 892.5 5 c 128,-1,30
 945 28 945 28 967 50 c 1,31,-1
 967 292 l 1,32,-1
 708 292 l 1,33,-1
 708 519 l 1,34,-1
 1293 519 l 1,0,-1
EndSplineSet
Substitution2: "'c2sc' Capitals to Small Capitals lookup 0 subtable" G.smcp
Position2: "'cpsp' Capital Spacing lookup 0 subtable" dx=36 dy=0 dh=72 dv=0
EndChar

StartChar: G.smcp
Encoding: 65599 -1 103
Width: 1184
GlyphClass: 2
Flags: W
AnchorPoint: "Anchor-1" 591 -4 basechar 0
AnchorPoint: "Anchor-0" 584 1320 basechar 0
LayerCount: 2
Fore
SplineSet
1125 634 m 1,0,-1
 1125 140 l 1,1,2
 1092 107 1092 107 1024.5 70.5 c 128,-1,3
 957 34 957 34 856.5 9 c 128,-1,4
 756 -16 756 -16 621 -16 c 0,5,6
 370 -16 370 -16 219 131 c 128,-1,7
 68 278 68 278 68 552 c 2,8,-1
 68 612 l 2,9,10
 68 795 68 795 138 922.5 c 128,-1,11
 208 1050 208 1050 329.5 1116 c 128,-1,12
 451 1182 451 1182 605 1182 c 0,13,14
 781 1182 781 1182 891 1130 c 128,-1,15
 1001 1078 1001 1078 1056.5 986 c 128,-1,16
 1112 894 1112 894 1124 773 c 1,17,-1
 824 773 l 1,18,19
 811 858 811 858 764.5 898.5 c 128,-1,20
 718 939 718 939 617 939 c 0,21,22
 515 939 515 939 448.5 861.5 c 128,-1,23
 382 784 382 784 382 614 c 2,24,-1
 382 552 l 2,25,26
 382 386 382 386 445.5 306 c 128,-1,27
 509 226 509 226 645 226 c 0,28,29
 710 226 710 226 751 238.5 c 128,-1,30
 792 251 792 251 810 264 c 1,31,-1
 810 422 l 1,32,-1
 597 422 l 1,33,-1
 597 634 l 1,34,-1
 1125 634 l 1,0,-1
EndSplineSet
EndChar

StartChar: Germandbls.smcp
Encoding: 65604 -1 111
Width: 1139
GlyphClass: 2
Flags: W
LayerCount: 2
Fore
SplineSet
456 39 m 1,0,-1
 546 260 l 1,1,2
 563 247 563 247 593.5 230 c 128,-1,3
 624 213 624 213 661 213 c 0,4,5
 718 213 718 213 751.5 251 c 128,-1,6
 785 289 785 289 785 353 c 0,7,8
 785 429 785 429 731 460 c 128,-1,9
 677 491 677 491 578 491 c 2,10,-1
 497 491 l 1,11,-1
 497 676 l 1,12,-1
 657 885 l 1,13,14
 631 912 631 912 598 929 c 128,-1,15
 565 946 565 946 525 946 c 0,16,17
 472 946 472 946 433 895.5 c 128,-1,18
 394 845 394 845 394 741 c 2,19,-1
 394 0 l 1,20,-1
 90 0 l 1,21,-1
 90 743 l 1,22,-1
 90 743 l 1,23,24
 91 960 91 960 203.5 1070 c 128,-1,25
 316 1180 316 1180 530 1180 c 0,26,27
 676 1180 676 1180 788 1116.5 c 128,-1,28
 900 1053 900 1053 995 934 c 1,29,-1
 776 675 l 1,30,31
 924 646 924 646 1006 564 c 128,-1,32
 1088 482 1088 482 1088 353 c 0,33,34
 1088 229 1088 229 1035.5 145.5 c 128,-1,35
 983 62 983 62 895.5 20.5 c 128,-1,36
 808 -21 808 -21 703 -21 c 0,37,38
 620 -21 620 -21 560 -3.5 c 128,-1,39
 500 14 500 14 456 39 c 1,0,-1
EndSplineSet
EndChar

StartChar: H
Encoding: 72 72 112
Width: 1443
VWidth: 1798
GlyphClass: 2
Flags: W
AnchorPoint: "Anchor-1" 714 -240 basechar 0
AnchorPoint: "Anchor-0" 712 1362 basechar 0
LayerCount: 2
Fore
SplineSet
446 1206 m 1,0,-1
 446 620 l 1,1,-1
 997 620 l 1,2,-1
 997 1206 l 1,3,-1
 1322 1206 l 1,4,-1
 1322 -250 l 1,5,-1
 997 -250 l 1,6,-1
 997 368 l 1,7,-1
 446 368 l 1,8,-1
 446 -250 l 1,9,-1
 120 -250 l 1,10,-1
 120 1206 l 1,11,-1
 446 1206 l 1,0,-1
EndSplineSet
Substitution2: "'c2sc' Capitals to Small Capitals lookup 0 subtable" H.smcp
Position2: "'cpsp' Capital Spacing lookup 0 subtable" dx=36 dy=0 dh=72 dv=0
EndChar

StartChar: H.smcp
Encoding: 65605 -1 113
Width: 1235
GlyphClass: 2
Flags: W
AnchorPoint: "Anchor-1" 615 10 basechar 0
AnchorPoint: "Anchor-0" 615 1320 basechar 0
LayerCount: 2
Fore
SplineSet
404 1165 m 1,0,-1
 404 692 l 1,1,-1
 833 692 l 1,2,-1
 833 1165 l 1,3,-1
 1145 1165 l 1,4,-1
 1145 0 l 1,5,-1
 833 0 l 1,6,-1
 833 449 l 1,7,-1
 404 449 l 1,8,-1
 404 0 l 1,9,-1
 90 0 l 1,10,-1
 90 1165 l 1,11,-1
 404 1165 l 1,0,-1
EndSplineSet
EndChar

StartChar: Hbar
Encoding: 294 294 114
Width: 1484
VWidth: 1798
GlyphClass: 2
Flags: W
AnchorPoint: "Anchor-1" 724 -240 basechar 0
AnchorPoint: "Anchor-0" 724 1362 basechar 0
LayerCount: 2
Fore
SplineSet
466 1206 m 1,0,-1
 466 981 l 1,1,-1
 1017 981 l 1,2,-1
 1017 1206 l 1,3,-1
 1342 1206 l 1,4,-1
 1342 981 l 1,5,-1
 1461 981 l 1,6,-1
 1461 804 l 1,7,-1
 1342 804 l 1,8,-1
 1342 -250 l 1,9,-1
 1017 -250 l 1,10,-1
 1017 368 l 1,11,-1
 466 368 l 1,12,-1
 466 -250 l 1,13,-1
 141 -250 l 1,14,-1
 141 804 l 1,15,-1
 33 804 l 1,16,-1
 33 981 l 1,17,-1
 141 981 l 1,18,-1
 141 1206 l 1,19,-1
 466 1206 l 1,0,-1
466 620 m 1,20,-1
 1017 620 l 1,21,-1
 1017 804 l 1,22,-1
 466 804 l 1,23,-1
 466 620 l 1,20,-1
EndSplineSet
Substitution2: "'c2sc' Capitals to Small Capitals lookup 0 subtable" Hbar.smcp
Position2: "'cpsp' Capital Spacing lookup 0 subtable" dx=36 dy=0 dh=72 dv=0
EndChar

StartChar: Hbar.smcp
Encoding: 65606 -1 115
Width: 1350
GlyphClass: 2
Flags: W
AnchorPoint: "Anchor-1" 615 10 basechar 0
AnchorPoint: "Anchor-0" 615 1320 basechar 0
LayerCount: 2
Fore
SplineSet
462 1165 m 1,0,-1
 462 1035 l 1,1,-1
 890 1035 l 1,2,-1
 890 1165 l 1,3,-1
 1202 1165 l 1,4,-1
 1202 1035 l 1,5,-1
 1292 1035 l 1,6,-1
 1292 850 l 1,7,-1
 1202 850 l 1,8,-1
 1202 0 l 1,9,-1
 890 0 l 1,10,-1
 890 449 l 1,11,-1
 462 449 l 1,12,-1
 462 0 l 1,13,-1
 148 0 l 1,14,-1
 148 850 l 1,15,-1
 58 850 l 1,16,-1
 58 1035 l 1,17,-1
 148 1035 l 1,18,-1
 148 1165 l 1,19,-1
 462 1165 l 1,0,-1
462 692 m 1,20,-1
 890 692 l 1,21,-1
 890 850 l 1,22,-1
 462 850 l 1,23,-1
 462 692 l 1,20,-1
EndSplineSet
EndChar

StartChar: I
Encoding: 73 73 118
Width: 609
VWidth: 1798
GlyphClass: 2
Flags: W
AnchorPoint: "Anchor-1" 279 -241 basechar 0
AnchorPoint: "Anchor-0" 279 1362 basechar 0
LayerCount: 2
Fore
SplineSet
467 1206 m 1,0,-1
 467 -250 l 1,1,-1
 142 -250 l 1,2,-1
 142 1206 l 1,3,-1
 467 1206 l 1,0,-1
EndSplineSet
Substitution2: "'c2sc' Capitals to Small Capitals lookup 0 subtable" I.smcp
Position2: "'cpsp' Capital Spacing lookup 0 subtable" dx=36 dy=0 dh=72 dv=0
EndChar

StartChar: I.smcp
Encoding: 65608 -1 119
Width: 537
GlyphClass: 2
Flags: W
AnchorPoint: "Anchor-1" 244 4 basechar 0
AnchorPoint: "Anchor-0" 244 1320 basechar 0
LayerCount: 2
Fore
SplineSet
425 1165 m 1,0,-1
 425 0 l 1,1,-1
 112 0 l 1,2,-1
 112 1165 l 1,3,-1
 425 1165 l 1,0,-1
EndSplineSet
EndChar

StartChar: J
Encoding: 74 74 140
Width: 1148
VWidth: 1798
GlyphClass: 2
Flags: W
AnchorPoint: "Anchor-1" 512 -260 basechar 0
AnchorPoint: "Anchor-0" 852 1349 basechar 0
LayerCount: 2
Fore
SplineSet
705 202 m 2,0,-1
 705 1206 l 1,1,-1
 1029 1206 l 1,2,-1
 1029 202 l 2,3,4
 1029 56 1029 56 963.5 -50 c 128,-1,5
 898 -156 898 -156 786.5 -213 c 128,-1,6
 675 -270 675 -270 535 -270 c 0,7,8
 391 -270 391 -270 279 -221.5 c 128,-1,9
 167 -173 167 -173 103.5 -72 c 128,-1,10
 40 29 40 29 40 184 c 1,11,-1
 366 184 l 1,12,13
 366 69 366 69 410 25.5 c 128,-1,14
 454 -18 454 -18 535 -18 c 0,15,16
 614 -18 614 -18 659.5 39.5 c 128,-1,17
 705 97 705 97 705 202 c 2,0,-1
EndSplineSet
Substitution2: "'c2sc' Capitals to Small Capitals lookup 0 subtable" J.smcp
Position2: "'cpsp' Capital Spacing lookup 0 subtable" dx=36 dy=0 dh=72 dv=0
EndChar

StartChar: J.smcp
Encoding: 65619 -1 141
Width: 992
GlyphClass: 2
Flags: W
AnchorPoint: "Anchor-1" 457 -10 basechar 0
AnchorPoint: "Anchor-0" 734 1320 basechar 0
LayerCount: 2
Fore
SplineSet
587 403 m 2,0,-1
 587 1165 l 1,1,-1
 900 1165 l 1,2,-1
 900 403 l 2,3,4
 900 270 900 270 842 176.5 c 128,-1,5
 784 83 784 83 687 33.5 c 128,-1,6
 590 -16 590 -16 473 -16 c 0,7,8
 274 -16 274 -16 152.5 79.5 c 128,-1,9
 31 175 31 175 31 379 c 1,10,-1
 345 379 l 1,11,12
 345 226 345 226 473 226 c 0,13,14
 531 226 531 226 559 268.5 c 128,-1,15
 587 311 587 311 587 403 c 2,0,-1
EndSplineSet
EndChar

StartChar: K
Encoding: 75 75 144
Width: 1306
VWidth: 1798
GlyphClass: 2
Flags: W
AnchorPoint: "Anchor-1" 660 -160 basechar 0
AnchorPoint: "Anchor-0" 605 1345 basechar 0
LayerCount: 2
Fore
SplineSet
938 -250 m 1,0,-1
 596 316 l 1,1,-1
 446 153 l 1,2,-1
 446 -250 l 1,3,-1
 120 -250 l 1,4,-1
 120 1206 l 1,5,-1
 446 1206 l 1,6,-1
 446 551 l 1,7,-1
 574 735 l 1,8,-1
 916 1206 l 1,9,-1
 1316 1206 l 1,10,-1
 812 563 l 1,11,-1
 1324 -250 l 1,12,-1
 938 -250 l 1,0,-1
EndSplineSet
Substitution2: "'salt' Stylistic Alternatives lookup 13 subtable" K.alt
Substitution2: "'c2sc' Capitals to Small Capitals lookup 0 subtable" K.smcp
Position2: "'cpsp' Capital Spacing lookup 0 subtable" dx=36 dy=0 dh=72 dv=0
EndChar

StartChar: K.alt
Encoding: 65621 -1 145
Width: 1324
GlyphClass: 2
Flags: W
LayerCount: 2
Fore
SplineSet
957 0 m 1,0,-1
 615 589 l 1,1,-1
 445 589 l 1,2,-1
 445 0 l 1,3,-1
 120 0 l 1,4,-1
 120 1456 l 1,5,-1
 445 1456 l 1,6,-1
 445 880 l 1,7,-1
 583 880 l 1,8,-1
 900 1456 l 1,9,-1
 1294 1456 l 1,10,-1
 870 776 l 1,11,-1
 1343 0 l 1,12,-1
 957 0 l 1,0,-1
EndSplineSet
EndChar

StartChar: K.smcp
Encoding: 65622 -1 146
Width: 1129
GlyphClass: 2
Flags: W
AnchorPoint: "Anchor-1" 532 6 basechar 0
AnchorPoint: "Anchor-0" 518 1320 basechar 0
LayerCount: 2
Fore
SplineSet
779 0 m 1,0,-1
 525 417 l 1,1,-1
 404 298 l 1,2,-1
 404 0 l 1,3,-1
 90 0 l 1,4,-1
 90 1165 l 1,5,-1
 404 1165 l 1,6,-1
 404 688 l 1,7,-1
 496 818 l 1,8,-1
 749 1165 l 1,9,-1
 1143 1165 l 1,10,-1
 737 645 l 1,11,-1
 1148 0 l 1,12,-1
 779 0 l 1,0,-1
EndSplineSet
EndChar

StartChar: L
Encoding: 76 76 149
Width: 1109
VWidth: 1798
GlyphClass: 2
Flags: W
AnchorPoint: "Anchor-1" 620 -240 basechar 0
AnchorPoint: "Anchor-0" 264 1346 basechar 0
LayerCount: 2
Fore
SplineSet
1070 2 m 1,0,-1
 1070 -250 l 1,1,-1
 120 -250 l 1,2,-1
 120 1206 l 1,3,-1
 446 1206 l 1,4,-1
 446 2 l 1,5,-1
 1070 2 l 1,0,-1
EndSplineSet
Substitution2: "'c2sc' Capitals to Small Capitals lookup 0 subtable" L.smcp
Position2: "'cpsp' Capital Spacing lookup 0 subtable" dx=36 dy=0 dh=72 dv=0
EndChar

StartChar: L.smcp
Encoding: 65624 -1 150
Width: 954
GlyphClass: 2
Flags: W
AnchorPoint: "Anchor-1" 527 8 basechar 0
AnchorPoint: "Anchor-0" 233 1320 basechar 0
LayerCount: 2
Fore
SplineSet
923 242 m 1,0,-1
 923 0 l 1,1,-1
 90 0 l 1,2,-1
 90 1165 l 1,3,-1
 404 1165 l 1,4,-1
 404 242 l 1,5,-1
 923 242 l 1,0,-1
EndSplineSet
EndChar

StartChar: Lslash
Encoding: 321 321 161
Width: 1152
VWidth: 1798
GlyphClass: 2
Flags: W
AnchorPoint: "Anchor-1" 618 -240 basechar 0
AnchorPoint: "Anchor-0" 262 1346 basechar 0
LayerCount: 2
Fore
SplineSet
1112 2 m 1,0,-1
 1112 -250 l 1,1,-1
 163 -250 l 1,2,-1
 163 392 l 1,3,-1
 27 354 l 1,4,-1
 27 524 l 1,5,-1
 163 562 l 1,6,-1
 163 1206 l 1,7,-1
 488 1206 l 1,8,-1
 488 653 l 1,9,-1
 694 711 l 1,10,-1
 694 541 l 1,11,-1
 488 483 l 1,12,-1
 488 2 l 1,13,-1
 1112 2 l 1,0,-1
EndSplineSet
Substitution2: "'c2sc' Capitals to Small Capitals lookup 0 subtable" Lslash.smcp
Position2: "'cpsp' Capital Spacing lookup 0 subtable" dx=36 dy=0 dh=72 dv=0
EndChar

StartChar: Lslash.smcp
Encoding: 65631 -1 162
Width: 983
GlyphClass: 2
Flags: W
AnchorPoint: "Anchor-1" 527 8 basechar 0
AnchorPoint: "Anchor-0" 233 1320 basechar 0
LayerCount: 2
Fore
SplineSet
951 242 m 1,0,-1
 951 0 l 1,1,-1
 119 0 l 1,2,-1
 119 528 l 1,3,-1
 9 497 l 1,4,-1
 9 666 l 1,5,-1
 119 697 l 1,6,-1
 119 1165 l 1,7,-1
 432 1165 l 1,8,-1
 432 785 l 1,9,-1
 676 853 l 1,10,-1
 676 684 l 1,11,-1
 432 616 l 1,12,-1
 432 242 l 1,13,-1
 951 242 l 1,0,-1
EndSplineSet
EndChar

StartChar: M
Encoding: 77 77 163
Width: 1794
VWidth: 1798
GlyphClass: 2
Flags: W
AnchorPoint: "Anchor-1" 893 -240 basechar 0
AnchorPoint: "Anchor-0" 890 1351 basechar 0
LayerCount: 2
Fore
SplineSet
120 1206 m 1,0,-1
 546 1206 l 1,1,-1
 896 165 l 1,2,-1
 1245 1206 l 1,3,-1
 1672 1206 l 1,4,-1
 1672 -250 l 1,5,-1
 1345 -250 l 1,6,-1
 1345 127 l 1,7,-1
 1377 813 l 1,8,-1
 1005 -250 l 1,9,-1
 786 -250 l 1,10,-1
 414 813 l 1,11,-1
 446 127 l 1,12,-1
 446 -250 l 1,13,-1
 120 -250 l 1,14,-1
 120 1206 l 1,0,-1
EndSplineSet
Substitution2: "'unic' Unicase lookup 2 subtable" M.unic
Substitution2: "'c2sc' Capitals to Small Capitals lookup 0 subtable" M.smcp
Position2: "'cpsp' Capital Spacing lookup 0 subtable" dx=36 dy=0 dh=72 dv=0
EndChar

StartChar: M.smcp
Encoding: 65632 -1 164
Width: 1545
GlyphClass: 2
Flags: W
AnchorPoint: "Anchor-1" 765 10 basechar 0
AnchorPoint: "Anchor-0" 765 1320 basechar 0
LayerCount: 2
Fore
SplineSet
90 1165 m 1,0,-1
 504 1165 l 1,1,-1
 771 395 l 1,2,-1
 1037 1165 l 1,3,-1
 1453 1165 l 1,4,-1
 1453 0 l 1,5,-1
 1139 0 l 1,6,-1
 1139 216 l 1,7,-1
 1170 830 l 1,8,-1
 873 0 l 1,9,-1
 668 0 l 1,10,-1
 373 824 l 1,11,-1
 405 216 l 1,12,-1
 405 0 l 1,13,-1
 90 0 l 1,14,-1
 90 1165 l 1,0,-1
EndSplineSet
EndChar

StartChar: M.unic
Encoding: 65633 -1 165
Width: 2215
GlyphClass: 2
Flags: W
AnchorPoint: "Anchor-1" 1118 10 basechar 0
AnchorPoint: "Anchor-0" 1114 1632 basechar 0
LayerCount: 2
Fore
SplineSet
731 1215 m 0,0,1
 623 1215 623 1215 547.5 1144.5 c 128,-1,2
 472 1074 472 1074 446 964 c 1,3,-1
 446 0 l 1,4,-1
 120 0 l 1,5,-1
 120 1456 l 1,6,-1
 427 1456 l 1,7,-1
 439 1306 l 1,8,9
 512 1384 512 1384 613.5 1430 c 128,-1,10
 715 1476 715 1476 840 1476 c 0,11,12
 968 1476 968 1476 1062.5 1424 c 128,-1,13
 1157 1372 1157 1372 1210 1267 c 1,14,15
 1291 1361 1291 1361 1407 1418.5 c 128,-1,16
 1523 1476 1523 1476 1664 1476 c 0,17,18
 1864 1476 1864 1476 1979 1360 c 128,-1,19
 2094 1244 2094 1244 2094 968 c 2,20,-1
 2094 0 l 1,21,-1
 1770 0 l 1,22,-1
 1770 929 l 2,23,24
 1770 1090 1770 1090 1713.5 1152.5 c 128,-1,25
 1657 1215 1657 1215 1555 1215 c 0,26,27
 1447 1215 1447 1215 1371.5 1144.5 c 128,-1,28
 1296 1074 1296 1074 1270 964 c 1,29,-1
 1270 0 l 1,30,-1
 946 0 l 1,31,-1
 946 929 l 2,32,33
 946 1090 946 1090 890 1152.5 c 128,-1,34
 834 1215 834 1215 731 1215 c 0,0,1
EndSplineSet
EndChar

StartChar: N
Encoding: 78 78 166
Width: 1442
VWidth: 1798
GlyphClass: 2
Flags: W
AnchorPoint: "Anchor-1" 720 -240 basechar 0
AnchorPoint: "Anchor-0" 726 1351 basechar 0
LayerCount: 2
Fore
SplineSet
1321 1206 m 1,0,-1
 1321 -250 l 1,1,-1
 996 -250 l 1,2,-1
 446 691 l 1,3,-1
 446 -250 l 1,4,-1
 120 -250 l 1,5,-1
 120 1206 l 1,6,-1
 446 1206 l 1,7,-1
 997 265 l 1,8,-1
 997 1206 l 1,9,-1
 1321 1206 l 1,0,-1
EndSplineSet
Substitution2: "'unic' Unicase lookup 2 subtable" N.unic
Substitution2: "'c2sc' Capitals to Small Capitals lookup 0 subtable" N.smcp
Position2: "'cpsp' Capital Spacing lookup 0 subtable" dx=36 dy=0 dh=72 dv=0
EndChar

StartChar: N.smcp
Encoding: 65634 -1 167
Width: 1234
GlyphClass: 2
Flags: W
AnchorPoint: "Anchor-1" 619 4 basechar 0
AnchorPoint: "Anchor-0" 624 1320 basechar 0
LayerCount: 2
Fore
SplineSet
1144 1165 m 1,0,-1
 1144 0 l 1,1,-1
 831 0 l 1,2,-1
 404 710 l 1,3,-1
 404 0 l 1,4,-1
 90 0 l 1,5,-1
 90 1165 l 1,6,-1
 404 1165 l 1,7,-1
 831 455 l 1,8,-1
 831 1165 l 1,9,-1
 1144 1165 l 1,0,-1
EndSplineSet
EndChar

StartChar: N.unic
Encoding: 65635 -1 168
Width: 1443
GlyphClass: 2
Flags: W
AnchorPoint: "Anchor-1" 720 10 basechar 0
AnchorPoint: "Anchor-0" 726 1632 basechar 0
LayerCount: 2
Fore
SplineSet
762 1215 m 0,0,1
 642 1215 642 1215 558 1142.5 c 128,-1,2
 474 1070 474 1070 446 956 c 1,3,-1
 446 0 l 1,4,-1
 120 0 l 1,5,-1
 120 1456 l 1,6,-1
 427 1456 l 1,7,-1
 440 1297 l 1,8,9
 517 1378 517 1378 626 1427 c 128,-1,10
 735 1476 735 1476 871 1476 c 0,11,12
 1011 1476 1011 1476 1112 1425.5 c 128,-1,13
 1213 1375 1213 1375 1267.5 1263 c 128,-1,14
 1322 1151 1322 1151 1322 965 c 2,15,-1
 1322 0 l 1,16,-1
 997 0 l 1,17,-1
 997 926 l 2,18,19
 997 1089 997 1089 936 1152 c 128,-1,20
 875 1215 875 1215 762 1215 c 0,0,1
EndSplineSet
EndChar

StartChar: NameMe.65564
Encoding: 65638 -1 172
Width: 570
GlyphClass: 1
Flags: W
LayerCount: 2
Fore
SplineSet
136 1272 m 1,0,-1
 406 1272 l 1,1,-1
 406 488 l 2,2,3
 406 382 406 382 437 335.5 c 128,-1,4
 468 289 468 289 565 289 c 2,5,-1
 590 289 l 1,6,-1
 590 0 l 1,7,-1
 565 0 l 2,8,9
 347 0 347 0 241.5 115.5 c 128,-1,10
 136 231 136 231 136 463 c 2,11,-1
 136 1272 l 1,0,-1
EndSplineSet
EndChar

StartChar: NameMe.65565
Encoding: 65639 -1 173
Width: 700
GlyphClass: 1
Flags: W
LayerCount: 2
Fore
SplineSet
510 228 m 0,0,1
 527 228 527 228 560.5 222 c 128,-1,2
 594 216 594 216 621 205 c 1,3,-1
 598 88 l 1,4,5
 579 94 579 94 553 99 c 128,-1,6
 527 104 527 104 510 104 c 0,7,8
 449 104 449 104 413 67.5 c 128,-1,9
 377 31 377 31 377 -8 c 0,10,11
 377 -25 377 -25 380.5 -29.5 c 128,-1,12
 384 -34 384 -34 403 -34 c 2,13,-1
 496 -34 l 2,14,15
 556 -34 556 -34 589 -67 c 128,-1,16
 622 -100 622 -100 622 -150 c 0,17,18
 622 -244 622 -244 574 -304 c 128,-1,19
 526 -364 526 -364 446 -393 c 128,-1,20
 366 -422 366 -422 269 -422 c 0,21,22
 209 -422 209 -422 160.5 -410.5 c 128,-1,23
 112 -399 112 -399 71 -380 c 1,24,-1
 126 -265 l 1,25,26
 156 -280 156 -280 189 -289.5 c 128,-1,27
 222 -299 222 -299 271 -299 c 0,28,29
 321 -299 321 -299 375.5 -285.5 c 128,-1,30
 430 -272 430 -272 468 -243 c 128,-1,31
 506 -214 506 -214 506 -170 c 0,32,33
 506 -158 506 -158 472 -158 c 2,34,-1
 398 -158 l 2,35,36
 331 -158 331 -158 293.5 -121 c 128,-1,37
 256 -84 256 -84 256 -16 c 0,38,39
 256 59 256 59 292 113.5 c 128,-1,40
 328 168 328 168 386.5 198 c 128,-1,41
 445 228 445 228 510 228 c 0,0,1
EndSplineSet
EndChar

StartChar: NameMe.65583
Encoding: 65641 -1 175
Width: 471
GlyphClass: 1
Flags: W
LayerCount: 2
Fore
SplineSet
-55 1331 m 1,0,-1
 -33 1423 l 1,1,2
 -2 1397 -2 1397 43 1375 c 1,3,4
 123 1509 123 1509 189 1568.5 c 128,-1,5
 255 1628 255 1628 337 1628 c 0,6,7
 420 1628 420 1628 473.5 1576 c 128,-1,8
 527 1524 527 1524 527 1445 c 0,9,10
 527 1339 527 1339 453 1298 c 128,-1,11
 379 1257 379 1257 207 1257 c 2,12,-1
 182 1257 l 2,13,14
 90 1257 90 1257 30 1274 c 128,-1,15
 -30 1291 -30 1291 -55 1331 c 1,0,-1
205 1359 m 2,16,17
 336 1359 336 1359 381.5 1375.5 c 128,-1,18
 427 1392 427 1392 427 1441 c 0,19,20
 427 1477 427 1477 404 1500.5 c 128,-1,21
 381 1524 381 1524 342 1524 c 0,22,23
 293 1524 293 1524 251.5 1487.5 c 128,-1,24
 210 1451 210 1451 150 1359 c 1,25,-1
 205 1359 l 2,16,17
EndSplineSet
EndChar

StartChar: NameMe.65703
Encoding: 65642 -1 176
Width: 543
GlyphClass: 1
Flags: W
LayerCount: 2
Fore
SplineSet
407 1270 m 1,0,-1
 407 1 l 1,1,-1
 137 1 l 1,2,-1
 137 1270 l 1,3,-1
 407 1270 l 1,0,-1
EndSplineSet
EndChar

StartChar: O
Encoding: 79 79 186
Width: 1413
VWidth: 1798
GlyphClass: 2
Flags: W
AnchorPoint: "Anchor-1" 707 -250 basechar 0
AnchorPoint: "Anchor-0" 707 1353 basechar 0
LayerCount: 2
Fore
SplineSet
1334 510 m 2,0,-1
 1334 445 l 2,1,2
 1334 224 1334 224 1254.5 63.5 c 128,-1,3
 1175 -97 1175 -97 1034 -183.5 c 128,-1,4
 893 -270 893 -270 708 -270 c 256,5,6
 523 -270 523 -270 381 -183.5 c 128,-1,7
 239 -97 239 -97 158.5 63.5 c 128,-1,8
 78 224 78 224 78 445 c 2,9,-1
 78 510 l 2,10,11
 78 732 78 732 158 892.5 c 128,-1,12
 238 1053 238 1053 379.5 1139.5 c 128,-1,13
 521 1226 521 1226 706 1226 c 256,14,15
 891 1226 891 1226 1032.5 1139.5 c 128,-1,16
 1174 1053 1174 1053 1254 892.5 c 128,-1,17
 1334 732 1334 732 1334 510 c 2,0,-1
1005 445 m 2,18,-1
 1005 512 l 2,19,20
 1005 735 1005 735 927 852 c 128,-1,21
 849 969 849 969 706 969 c 0,22,23
 560 969 560 969 484 852 c 128,-1,24
 408 735 408 735 408 512 c 2,25,-1
 408 445 l 2,26,27
 408 224 408 224 485 105 c 128,-1,28
 562 -14 562 -14 708 -14 c 0,29,30
 851 -14 851 -14 928 105 c 128,-1,31
 1005 224 1005 224 1005 445 c 2,18,-1
EndSplineSet
Substitution2: "'c2sc' Capitals to Small Capitals lookup 0 subtable" O.smcp
Position2: "'cpsp' Capital Spacing lookup 0 subtable" dx=36 dy=0 dh=72 dv=0
EndChar

StartChar: O.smcp
Encoding: 65649 -1 187
Width: 1215
GlyphClass: 2
Flags: W
AnchorPoint: "Anchor-1" 631 0 basechar 0
AnchorPoint: "Anchor-0" 606 1320 basechar 0
LayerCount: 2
Fore
SplineSet
1159 604 m 2,0,-1
 1159 560 l 2,1,2
 1159 383 1159 383 1088.5 253.5 c 128,-1,3
 1018 124 1018 124 894 54 c 128,-1,4
 770 -16 770 -16 609 -16 c 0,5,6
 446 -16 446 -16 321.5 54 c 128,-1,7
 197 124 197 124 126.5 253.5 c 128,-1,8
 56 383 56 383 56 560 c 2,9,-1
 56 604 l 2,10,11
 56 782 56 782 126 911 c 128,-1,12
 196 1040 196 1040 320 1110.5 c 128,-1,13
 444 1181 444 1181 607 1181 c 0,14,15
 768 1181 768 1181 892.5 1110.5 c 128,-1,16
 1017 1040 1017 1040 1088 911 c 128,-1,17
 1159 782 1159 782 1159 604 c 2,0,-1
844 560 m 2,18,-1
 844 605 l 2,19,20
 844 766 844 766 781.5 853 c 128,-1,21
 719 940 719 940 607 940 c 0,22,23
 490 940 490 940 430.5 853 c 128,-1,24
 371 766 371 766 371 605 c 2,25,-1
 371 560 l 2,26,27
 371 403 371 403 431.5 313.5 c 128,-1,28
 492 224 492 224 609 224 c 0,29,30
 719 224 719 224 781.5 313.5 c 128,-1,31
 844 403 844 403 844 560 c 2,18,-1
EndSplineSet
EndChar

StartChar: OE
Encoding: 338 338 188
Width: 1988
VWidth: 1798
GlyphClass: 2
Flags: W
AnchorPoint: "Anchor-1" 953 -250 basechar 0
AnchorPoint: "Anchor-0" 953 1353 basechar 0
LayerCount: 2
Fore
SplineSet
710 1226 m 0,0,1
 786 1226 786 1226 860 1220 c 128,-1,2
 934 1214 934 1214 1001 1206 c 1,3,-1
 1900 1206 l 1,4,-1
 1900 953 l 1,5,-1
 1235 953 l 1,6,-1
 1235 620 l 1,7,-1
 1799 620 l 1,8,-1
 1799 376 l 1,9,-1
 1235 376 l 1,10,-1
 1235 2 l 1,11,-1
 1899 2 l 1,12,-1
 1899 -250 l 1,13,-1
 1001 -250 l 1,14,15
 934 -257 934 -257 861 -263.5 c 128,-1,16
 788 -270 788 -270 712 -270 c 0,17,18
 529 -270 529 -270 390 -194.5 c 128,-1,19
 251 -119 251 -119 173 15.5 c 128,-1,20
 95 150 95 150 95 326 c 2,21,-1
 95 630 l 2,22,23
 95 807 95 807 172.5 941 c 128,-1,24
 250 1075 250 1075 388.5 1150.5 c 128,-1,25
 527 1226 527 1226 710 1226 c 0,0,1
407 326 m 2,26,27
 407 150 407 150 490 61 c 128,-1,28
 573 -28 573 -28 712 -28 c 0,29,30
 763 -28 763 -28 813 -24.5 c 128,-1,31
 863 -21 863 -21 910 -15 c 1,32,-1
 910 971 l 1,33,34
 863 977 863 977 812.5 980.5 c 128,-1,35
 762 984 762 984 710 984 c 0,36,37
 571 984 571 984 489 896 c 128,-1,38
 407 808 407 808 407 632 c 2,39,-1
 407 326 l 2,26,27
EndSplineSet
Substitution2: "'c2sc' Capitals to Small Capitals lookup 0 subtable" OE.smcp
Position2: "'cpsp' Capital Spacing lookup 0 subtable" dx=36 dy=0 dh=72 dv=0
EndChar

StartChar: OE.smcp
Encoding: 65650 -1 189
Width: 1673
GlyphClass: 2
Flags: W
LayerCount: 2
Fore
SplineSet
984 1165 m 2,0,-1
 1652 1165 l 1,1,-1
 1652 922 l 1,2,-1
 1093 922 l 1,3,-1
 1093 723 l 1,4,-1
 1563 723 l 1,5,-1
 1563 481 l 1,6,-1
 1093 481 l 1,7,-1
 1093 242 l 1,8,-1
 1648 242 l 1,9,-1
 1648 0 l 1,10,-1
 984 0 l 2,11,12
 873 0 873 0 767.5 -8 c 128,-1,13
 662 -16 662 -16 609 -16 c 0,14,15
 446 -16 446 -16 321.5 54 c 128,-1,16
 197 124 197 124 126.5 253.5 c 128,-1,17
 56 383 56 383 56 560 c 2,18,-1
 56 604 l 2,19,20
 56 782 56 782 126 911 c 128,-1,21
 196 1040 196 1040 320 1110.5 c 128,-1,22
 444 1181 444 1181 607 1181 c 0,23,24
 642 1181 642 1181 703.5 1177 c 128,-1,25
 765 1173 765 1173 839 1169 c 128,-1,26
 913 1165 913 1165 984 1165 c 2,0,-1
371 560 m 2,27,28
 371 403 371 403 431.5 313.5 c 128,-1,29
 492 224 492 224 609 224 c 0,30,31
 626 224 626 224 674.5 226.5 c 128,-1,32
 723 229 723 229 780 232 c 1,33,-1
 780 931 l 1,34,35
 721 934 721 934 672 937 c 128,-1,36
 623 940 623 940 607 940 c 0,37,38
 490 940 490 940 430.5 853 c 128,-1,39
 371 766 371 766 371 605 c 2,40,-1
 371 560 l 2,27,28
EndSplineSet
EndChar

StartChar: Ohorn
Encoding: 416 416 200
Width: 1447
VWidth: 1798
GlyphClass: 2
Flags: W
AnchorPoint: "Anchor-1" 692 -250 basechar 0
AnchorPoint: "Anchor-0" 703 1345 basechar 0
LayerCount: 2
Fore
SplineSet
1334 510 m 2,0,-1
 1334 445 l 2,1,2
 1334 224 1334 224 1254 63.5 c 128,-1,3
 1174 -97 1174 -97 1033 -183.5 c 128,-1,4
 892 -270 892 -270 707 -270 c 256,5,6
 522 -270 522 -270 380 -183.5 c 128,-1,7
 238 -97 238 -97 158 63.5 c 128,-1,8
 78 224 78 224 78 445 c 2,9,-1
 78 510 l 2,10,11
 78 732 78 732 157.5 892.5 c 128,-1,12
 237 1053 237 1053 378.5 1139.5 c 128,-1,13
 520 1226 520 1226 705 1226 c 0,14,15
 845 1226 845 1226 961.5 1175.5 c 128,-1,16
 1078 1125 1078 1125 1161 1031 c 1,17,18
 1231 1050 1231 1050 1255 1123 c 128,-1,19
 1279 1196 1279 1196 1279 1312 c 1,20,-1
 1477 1312 l 1,21,22
 1477 1145 1477 1145 1424 1036.5 c 128,-1,23
 1371 928 1371 928 1255 888 c 1,24,25
 1293 809 1293 809 1313.5 714 c 128,-1,26
 1334 619 1334 619 1334 510 c 2,0,-1
1004 445 m 2,27,-1
 1004 512 l 2,28,29
 1004 735 1004 735 926 852 c 128,-1,30
 848 969 848 969 705 969 c 0,31,32
 560 969 560 969 483.5 852 c 128,-1,33
 407 735 407 735 407 512 c 2,34,-1
 407 445 l 2,35,36
 407 224 407 224 484.5 105 c 128,-1,37
 562 -14 562 -14 707 -14 c 0,38,39
 850 -14 850 -14 927 105 c 128,-1,40
 1004 224 1004 224 1004 445 c 2,27,-1
EndSplineSet
EndChar

StartChar: Omega
Encoding: 8486 8486 205
Width: 1379
GlyphClass: 2
Flags: W
AnchorPoint: "Anchor-1" 679 10 basechar 0
LayerCount: 2
Fore
SplineSet
120 0 m 1,0,-1
 120 255 l 1,1,-1
 343 255 l 1,2,3
 239 346 239 346 170 482 c 128,-1,4
 101 618 101 618 101 783 c 2,5,-1
 101 864 l 2,6,7
 101 1043 101 1043 174 1181 c 128,-1,8
 247 1319 247 1319 378 1397 c 128,-1,9
 509 1475 509 1475 681 1475 c 0,10,11
 854 1475 854 1475 985 1397 c 128,-1,12
 1116 1319 1116 1319 1189.5 1181 c 128,-1,13
 1263 1043 1263 1043 1263 864 c 2,14,-1
 1263 783 l 2,15,16
 1263 618 1263 618 1194 481.5 c 128,-1,17
 1125 345 1125 345 1023 255 c 1,18,-1
 1244 255 l 1,19,-1
 1244 0 l 1,20,-1
 735 0 l 1,21,-1
 735 259 l 1,22,23
 803 297 803 297 849 418 c 128,-1,24
 895 539 895 539 895 783 c 2,25,-1
 895 866 l 2,26,27
 895 1041 895 1041 838.5 1130.5 c 128,-1,28
 782 1220 782 1220 681 1220 c 0,29,30
 582 1220 582 1220 525.5 1130.5 c 128,-1,31
 469 1041 469 1041 469 866 c 2,32,-1
 469 783 l 2,33,34
 469 537 469 537 515.5 416.5 c 128,-1,35
 562 296 562 296 635 259 c 1,36,-1
 635 0 l 1,37,-1
 120 0 l 1,0,-1
EndSplineSet
Substitution2: "'c2sc' Capitals to Small Capitals lookup 0 subtable" Omega.smcp
Position2: "'cpsp' Capital Spacing lookup 0 subtable" dx=36 dy=0 dh=72 dv=0
EndChar

StartChar: Omega.smcp
Encoding: 65658 -1 206
Width: 1223
GlyphClass: 2
Flags: W
AnchorPoint: "Anchor-1" 637 10 basechar 0
LayerCount: 2
Fore
SplineSet
89 0 m 1,0,-1
 89 246 l 1,1,-1
 284 246 l 1,2,3
 187 315 187 315 125 420.5 c 128,-1,4
 63 526 63 526 63 660 c 2,5,-1
 63 691 l 2,6,7
 63 819 63 819 128.5 930.5 c 128,-1,8
 194 1042 194 1042 316.5 1111.5 c 128,-1,9
 439 1181 439 1181 610 1181 c 0,10,11
 782 1181 782 1181 905 1111.5 c 128,-1,12
 1028 1042 1028 1042 1094 931 c 128,-1,13
 1160 820 1160 820 1160 693 c 2,14,-1
 1160 660 l 2,15,16
 1160 526 1160 526 1098 420.5 c 128,-1,17
 1036 315 1036 315 939 246 c 1,18,-1
 1141 246 l 1,19,-1
 1141 0 l 1,20,-1
 666 0 l 1,21,-1
 666 250 l 1,22,23
 758 293 758 293 802 377 c 128,-1,24
 846 461 846 461 846 606 c 2,25,-1
 846 655 l 2,26,27
 846 779 846 779 791.5 859.5 c 128,-1,28
 737 940 737 940 610 940 c 0,29,30
 486 940 486 940 432 859.5 c 128,-1,31
 378 779 378 779 378 655 c 2,32,-1
 378 606 l 2,33,34
 378 462 378 462 422.5 377.5 c 128,-1,35
 467 293 467 293 563 250 c 1,36,-1
 563 0 l 1,37,-1
 89 0 l 1,0,-1
EndSplineSet
EndChar

StartChar: Oslash
Encoding: 216 216 207
Width: 1410
VWidth: 1798
GlyphClass: 2
Flags: W
AnchorPoint: "Anchor-0" 715 1424 basechar 0
LayerCount: 2
Fore
SplineSet
1345 510 m 2,0,-1
 1345 445 l 2,1,2
 1345 224 1345 224 1265 63.5 c 128,-1,3
 1185 -97 1185 -97 1043.5 -183.5 c 128,-1,4
 902 -270 902 -270 717 -270 c 0,5,6
 555 -270 555 -270 424 -202 c 1,7,-1
 341 -345 l 1,8,-1
 143 -345 l 1,9,-1
 285 -101 l 1,10,11
 192 -9 192 -9 139.5 129.5 c 128,-1,12
 87 268 87 268 87 445 c 2,13,-1
 87 510 l 2,14,15
 87 732 87 732 167 892.5 c 128,-1,16
 247 1053 247 1053 388.5 1139.5 c 128,-1,17
 530 1226 530 1226 715 1226 c 0,18,19
 882 1226 882 1226 1016 1154 c 1,20,-1
 1083 1268 l 1,21,-1
 1279 1268 l 1,22,-1
 1153 1051 l 1,23,24
 1243 958 1243 958 1294 821 c 128,-1,25
 1345 684 1345 684 1345 510 c 2,0,-1
417 445 m 2,26,27
 417 293 417 293 454 188 c 1,28,-1
 878 916 l 1,29,30
 811 969 811 969 715 969 c 0,31,32
 569 969 569 969 493 852 c 128,-1,33
 417 735 417 735 417 512 c 2,34,-1
 417 445 l 2,26,27
1014 445 m 2,35,-1
 1014 512 l 2,36,37
 1014 654 1014 654 981 756 c 1,38,-1
 561 33 l 1,39,40
 626 -14 626 -14 717 -14 c 0,41,42
 860 -14 860 -14 937 105 c 128,-1,43
 1014 224 1014 224 1014 445 c 2,35,-1
EndSplineSet
Substitution2: "'c2sc' Capitals to Small Capitals lookup 0 subtable" Oslash.smcp
Position2: "'cpsp' Capital Spacing lookup 0 subtable" dx=36 dy=0 dh=72 dv=0
EndChar

StartChar: Oslash.smcp
Encoding: 65659 -1 208
Width: 1215
GlyphClass: 2
Flags: W
AnchorPoint: "Anchor-1" 631 0 basechar 0
AnchorPoint: "Anchor-0" 606 1320 basechar 0
LayerCount: 2
Fore
SplineSet
1159 604 m 2,0,-1
 1159 560 l 2,1,2
 1159 383 1159 383 1088.5 253.5 c 128,-1,3
 1018 124 1018 124 894 54 c 128,-1,4
 770 -16 770 -16 609 -16 c 0,5,6
 440 -16 440 -16 311 60 c 1,7,-1
 227 -55 l 1,8,-1
 57 -55 l 1,9,-1
 204 145 l 1,10,11
 134 220 134 220 95 325 c 128,-1,12
 56 430 56 430 56 560 c 2,13,-1
 56 604 l 2,14,15
 56 782 56 782 126 911 c 128,-1,16
 196 1040 196 1040 320 1110.5 c 128,-1,17
 444 1181 444 1181 607 1181 c 0,18,19
 776 1181 776 1181 905 1103 c 1,20,-1
 989 1217 l 1,21,-1
 1158 1217 l 1,22,-1
 1012 1017 l 1,23,24
 1081 942 1081 942 1120 837.5 c 128,-1,25
 1159 733 1159 733 1159 604 c 2,0,-1
371 560 m 2,26,27
 371 469 371 469 391 401 c 1,28,-1
 749 889 l 1,29,30
 692 940 692 940 607 940 c 0,31,32
 490 940 490 940 430.5 853 c 128,-1,33
 371 766 371 766 371 605 c 2,34,-1
 371 560 l 2,26,27
844 560 m 2,35,-1
 844 605 l 2,36,37
 844 693 844 693 824 761 c 1,38,-1
 467 273 l 1,39,40
 524 224 524 224 609 224 c 0,41,42
 719 224 719 224 781.5 313.5 c 128,-1,43
 844 403 844 403 844 560 c 2,35,-1
EndSplineSet
EndChar

StartChar: P
Encoding: 80 80 213
Width: 1327
VWidth: 1798
GlyphClass: 2
Flags: W
AnchorPoint: "Anchor-1" 613 -240 basechar 0
AnchorPoint: "Anchor-0" 606 1362 basechar 0
LayerCount: 2
Fore
SplineSet
694 256 m 2,0,-1
 446 256 l 1,1,-1
 446 -250 l 1,2,-1
 120 -250 l 1,3,-1
 120 1206 l 1,4,-1
 694 1206 l 2,5,6
 868 1206 868 1206 992.5 1143 c 128,-1,7
 1117 1080 1117 1080 1183.5 970.5 c 128,-1,8
 1250 861 1250 861 1250 720 c 0,9,10
 1250 509 1250 509 1102 382.5 c 128,-1,11
 954 256 954 256 694 256 c 2,0,-1
694 953 m 2,12,-1
 446 953 l 1,13,-1
 446 509 l 1,14,-1
 694 509 l 2,15,16
 814 509 814 509 867.5 568 c 128,-1,17
 921 627 921 627 921 718 c 0,18,19
 921 811 921 811 867.5 882 c 128,-1,20
 814 953 814 953 694 953 c 2,12,-1
EndSplineSet
Substitution2: "'c2sc' Capitals to Small Capitals lookup 0 subtable" P.smcp
Position2: "'cpsp' Capital Spacing lookup 0 subtable" dx=36 dy=0 dh=72 dv=0
EndChar

StartChar: P.smcp
Encoding: 65662 -1 214
Width: 1150
GlyphClass: 2
Flags: W
AnchorPoint: "Anchor-1" 574 0 basechar 0
AnchorPoint: "Anchor-0" 576 1320 basechar 0
LayerCount: 2
Fore
SplineSet
593 377 m 2,0,-1
 404 377 l 1,1,-1
 404 0 l 1,2,-1
 90 0 l 1,3,-1
 90 1165 l 1,4,-1
 593 1165 l 2,5,6
 744 1165 744 1165 853.5 1112 c 128,-1,7
 963 1059 963 1059 1022 967 c 128,-1,8
 1081 875 1081 875 1081 757 c 0,9,10
 1081 588 1081 588 950.5 482.5 c 128,-1,11
 820 377 820 377 593 377 c 2,0,-1
593 922 m 2,12,-1
 404 922 l 1,13,-1
 404 620 l 1,14,-1
 593 620 l 2,15,16
 683 620 683 620 726.5 658.5 c 128,-1,17
 770 697 770 697 770 755 c 0,18,19
 770 822 770 822 726.5 872 c 128,-1,20
 683 922 683 922 593 922 c 2,12,-1
EndSplineSet
EndChar

StartChar: Q
Encoding: 81 81 215
Width: 1413
VWidth: 1798
GlyphClass: 2
Flags: W
AnchorPoint: "Anchor-1" 698 -260 basechar 0
AnchorPoint: "Anchor-0" 700 1350 basechar 0
LayerCount: 2
Fore
SplineSet
1336 510 m 2,0,-1
 1336 445 l 2,1,2
 1336 243 1336 243 1268.5 91.5 c 128,-1,3
 1201 -60 1201 -60 1083 -150 c 1,4,-1
 1322 -339 l 1,5,-1
 1118 -513 l 1,6,-1
 808 -263 l 1,7,8
 759 -270 759 -270 708 -270 c 0,9,10
 523 -270 523 -270 381 -183.5 c 128,-1,11
 239 -97 239 -97 158.5 63.5 c 128,-1,12
 78 224 78 224 78 445 c 2,13,-1
 78 510 l 2,14,15
 78 732 78 732 158 892.5 c 128,-1,16
 238 1053 238 1053 379.5 1139.5 c 128,-1,17
 521 1226 521 1226 706 1226 c 256,18,19
 891 1226 891 1226 1033 1139.5 c 128,-1,20
 1175 1053 1175 1053 1255.5 892.5 c 128,-1,21
 1336 732 1336 732 1336 510 c 2,0,-1
1005 445 m 2,22,-1
 1005 512 l 2,23,24
 1005 735 1005 735 927 852 c 128,-1,25
 849 969 849 969 706 969 c 0,26,27
 561 969 561 969 484.5 852 c 128,-1,28
 408 735 408 735 408 512 c 2,29,-1
 408 445 l 2,30,31
 408 224 408 224 485.5 105 c 128,-1,32
 563 -14 563 -14 708 -14 c 0,33,34
 851 -14 851 -14 928 105 c 128,-1,35
 1005 224 1005 224 1005 445 c 2,22,-1
EndSplineSet
Substitution2: "'c2sc' Capitals to Small Capitals lookup 0 subtable" Q.smcp
Position2: "'cpsp' Capital Spacing lookup 0 subtable" dx=36 dy=0 dh=72 dv=0
EndChar

StartChar: Q.smcp
Encoding: 65663 -1 216
Width: 1215
GlyphClass: 2
Flags: W
AnchorPoint: "Anchor-1" 599 -10 basechar 0
AnchorPoint: "Anchor-0" 599 1320 basechar 0
LayerCount: 2
Fore
SplineSet
1161 604 m 2,0,-1
 1161 560 l 2,1,2
 1161 403 1161 403 1105 283 c 128,-1,3
 1049 163 1049 163 950 90 c 1,4,-1
 1144 -57 l 1,5,-1
 951 -218 l 1,6,-1
 683 -12 l 1,7,8
 648 -16 648 -16 611 -16 c 0,9,10
 449 -16 449 -16 325 54 c 128,-1,11
 201 124 201 124 130.5 253.5 c 128,-1,12
 60 383 60 383 60 560 c 2,13,-1
 60 604 l 2,14,15
 60 782 60 782 130 911 c 128,-1,16
 200 1040 200 1040 324 1110.5 c 128,-1,17
 448 1181 448 1181 610 1181 c 0,18,19
 770 1181 770 1181 894.5 1110.5 c 128,-1,20
 1019 1040 1019 1040 1090 911 c 128,-1,21
 1161 782 1161 782 1161 604 c 2,0,-1
849 560 m 2,22,-1
 849 605 l 2,23,24
 849 766 849 766 786 853 c 128,-1,25
 723 940 723 940 610 940 c 0,26,27
 493 940 493 940 433 853 c 128,-1,28
 373 766 373 766 373 605 c 2,29,-1
 373 560 l 2,30,31
 373 403 373 403 433.5 313.5 c 128,-1,32
 494 224 494 224 611 224 c 0,33,34
 723 224 723 224 786 313.5 c 128,-1,35
 849 403 849 403 849 560 c 2,22,-1
EndSplineSet
EndChar

StartChar: R
Encoding: 82 82 217
Width: 1324
VWidth: 1798
GlyphClass: 2
Flags: W
AnchorPoint: "Anchor-1" 611 -240 basechar 0
AnchorPoint: "Anchor-0" 610 1351 basechar 0
LayerCount: 2
Fore
SplineSet
926 -250 m 1,0,-1
 660 276 l 1,1,-1
 446 276 l 1,2,-1
 446 -250 l 1,3,-1
 120 -250 l 1,4,-1
 120 1206 l 1,5,-1
 679 1206 l 2,6,7
 930 1206 930 1206 1076.5 1093.5 c 128,-1,8
 1223 981 1223 981 1223 766 c 0,9,10
 1223 603 1223 603 1153 506.5 c 128,-1,11
 1083 410 1083 410 965 356 c 1,12,-1
 1275 -235 l 1,13,-1
 1275 -250 l 1,14,-1
 926 -250 l 1,0,-1
679 953 m 2,15,-1
 446 953 l 1,16,-1
 446 529 l 1,17,-1
 680 529 l 2,18,19
 789 529 789 529 843.5 586 c 128,-1,20
 898 643 898 643 898 740 c 0,21,22
 898 839 898 839 843 896 c 128,-1,23
 788 953 788 953 679 953 c 2,15,-1
EndSplineSet
Substitution2: "'c2sc' Capitals to Small Capitals lookup 0 subtable" R.smcp
Position2: "'cpsp' Capital Spacing lookup 0 subtable" dx=36 dy=0 dh=72 dv=0
EndChar

StartChar: R.smcp
Encoding: 65664 -1 218
Width: 1158
GlyphClass: 2
Flags: W
AnchorPoint: "Anchor-1" 525 8 basechar 0
AnchorPoint: "Anchor-0" 520 1320 basechar 0
LayerCount: 2
Fore
SplineSet
772 0 m 1,0,-1
 560 396 l 1,1,-1
 404 396 l 1,2,-1
 404 0 l 1,3,-1
 90 0 l 1,4,-1
 90 1165 l 1,5,-1
 592 1165 l 2,6,7
 808 1165 808 1165 938.5 1077 c 128,-1,8
 1069 989 1069 989 1069 817 c 0,9,10
 1069 673 1069 673 1009 597.5 c 128,-1,11
 949 522 949 522 852 478 c 1,12,-1
 1110 13 l 1,13,-1
 1110 0 l 1,14,-1
 772 0 l 1,0,-1
592 922 m 2,15,-1
 404 922 l 1,16,-1
 404 639 l 1,17,-1
 592 639 l 2,18,19
 755 639 755 639 755 782 c 0,20,21
 755 850 755 850 712 886 c 128,-1,22
 669 922 669 922 592 922 c 2,15,-1
EndSplineSet
EndChar

StartChar: S
Encoding: 83 83 225
Width: 1271
VWidth: 1798
GlyphClass: 2
Flags: W
AnchorPoint: "Anchor-1" 628 -251 basechar 0
AnchorPoint: "Anchor-0" 622 1353 basechar 0
LayerCount: 2
Fore
SplineSet
875 134 m 0,0,1
 875 183 875 183 854.5 219.5 c 128,-1,2
 834 256 834 256 775.5 288.5 c 128,-1,3
 717 321 717 321 603 358 c 0,4,5
 473 401 473 401 360.5 459 c 128,-1,6
 248 517 248 517 179.5 604 c 128,-1,7
 111 691 111 691 111 819 c 0,8,9
 111 942 111 942 182 1033.5 c 128,-1,10
 253 1125 253 1125 377 1175.5 c 128,-1,11
 501 1226 501 1226 661 1226 c 256,12,13
 821 1226 821 1226 942.5 1169 c 128,-1,14
 1064 1112 1064 1112 1132 1011 c 128,-1,15
 1200 910 1200 910 1200 776 c 1,16,-1
 876 776 l 1,17,18
 876 865 876 865 821 921.5 c 128,-1,19
 766 978 766 978 654 978 c 0,20,21
 545 978 545 978 490.5 931 c 128,-1,22
 436 884 436 884 436 817 c 0,23,24
 436 747 436 747 509 700.5 c 128,-1,25
 582 654 582 654 715 612 c 0,26,27
 949 539 949 539 1074.5 428.5 c 128,-1,28
 1200 318 1200 318 1200 136 c 0,29,30
 1200 -57 1200 -57 1054.5 -163.5 c 128,-1,31
 909 -270 909 -270 667 -270 c 0,32,33
 557 -270 557 -270 450 -241.5 c 128,-1,34
 343 -213 343 -213 256.5 -154 c 128,-1,35
 170 -95 170 -95 118.5 -3.5 c 128,-1,36
 67 88 67 88 67 214 c 1,37,-1
 393 214 l 1,38,39
 393 82 393 82 467 29.5 c 128,-1,40
 541 -23 541 -23 667 -23 c 0,41,42
 775 -23 775 -23 825 22.5 c 128,-1,43
 875 68 875 68 875 134 c 0,0,1
EndSplineSet
Substitution2: "'c2sc' Capitals to Small Capitals lookup 0 subtable" S.smcp
Position2: "'cpsp' Capital Spacing lookup 0 subtable" dx=36 dy=0 dh=72 dv=0
EndChar

StartChar: S.smcp
Encoding: 65668 -1 226
Width: 1109
GlyphClass: 2
Flags: W
AnchorPoint: "Anchor-1" 552 0 basechar 0
AnchorPoint: "Anchor-0" 543 1320 basechar 0
LayerCount: 2
Fore
SplineSet
738 315 m 0,0,1
 738 369 738 369 692.5 404 c 128,-1,2
 647 439 647 439 526 467 c 0,3,4
 375 502 375 502 280.5 546.5 c 128,-1,5
 186 591 186 591 141.5 660 c 128,-1,6
 97 729 97 729 97 835 c 0,7,8
 97 938 97 938 155.5 1015.5 c 128,-1,9
 214 1093 214 1093 316 1137 c 128,-1,10
 418 1181 418 1181 547 1181 c 0,11,12
 689 1181 689 1181 799 1138.5 c 128,-1,13
 909 1096 909 1096 972.5 1015 c 128,-1,14
 1036 934 1036 934 1036 817 c 1,15,-1
 723 817 l 1,16,17
 723 873 723 873 677 916.5 c 128,-1,18
 631 960 631 960 548 960 c 0,19,20
 466 960 466 960 428.5 922.5 c 128,-1,21
 391 885 391 885 391 848 c 0,22,23
 391 800 391 800 435 770 c 128,-1,24
 479 740 479 740 589 711 c 1,25,26
 813 663 813 663 922.5 576.5 c 128,-1,27
 1032 490 1032 490 1032 324 c 0,28,29
 1032 162 1032 162 905 73 c 128,-1,30
 778 -16 778 -16 569 -16 c 0,31,32
 475 -16 475 -16 384 6 c 128,-1,33
 293 28 293 28 219 74.5 c 128,-1,34
 145 121 145 121 101 195 c 128,-1,35
 57 269 57 269 57 374 c 1,36,-1
 371 374 l 1,37,38
 371 283 371 283 422.5 243.5 c 128,-1,39
 474 204 474 204 587 204 c 0,40,41
 676 204 676 204 707 241.5 c 128,-1,42
 738 279 738 279 738 315 c 0,0,1
EndSplineSet
EndChar

StartChar: Schwa
Encoding: 399 399 233
Width: 1428
VWidth: 1798
GlyphClass: 2
Flags: W
AnchorPoint: "Anchor-1" 696 -250 basechar 0
AnchorPoint: "Anchor-0" 661 1353 basechar 0
LayerCount: 2
Fore
SplineSet
706 -271 m 0,0,1
 500 -271 500 -271 358.5 -186.5 c 128,-1,2
 217 -102 217 -102 145 52 c 128,-1,3
 73 206 73 206 73 416 c 2,4,-1
 73 584 l 1,5,-1
 1011 584 l 1,6,7
 1007 686 1007 686 968 769.5 c 128,-1,8
 929 853 929 853 844.5 902 c 128,-1,9
 760 951 760 951 618 951 c 0,10,11
 483 951 483 951 381.5 930.5 c 128,-1,12
 280 910 280 910 221 890 c 1,13,-1
 173 1149 l 1,14,15
 196 1160 196 1160 266 1178.5 c 128,-1,16
 336 1197 336 1197 434.5 1212 c 128,-1,17
 533 1227 533 1227 638 1227 c 0,18,19
 867 1227 867 1227 1022.5 1141 c 128,-1,20
 1178 1055 1178 1055 1257 903.5 c 128,-1,21
 1336 752 1336 752 1336 555 c 2,22,-1
 1336 396 l 2,23,24
 1336 200 1336 200 1253 49.5 c 128,-1,25
 1170 -101 1170 -101 1027.5 -186 c 128,-1,26
 885 -271 885 -271 706 -271 c 0,0,1
706 4 m 0,27,28
 843 4 843 4 918.5 97.5 c 128,-1,29
 994 191 994 191 1009 329 c 1,30,-1
 398 329 l 1,31,-1
 398 297 l 2,32,33
 398 216 398 216 428.5 149.5 c 128,-1,34
 459 83 459 83 526.5 43.5 c 128,-1,35
 594 4 594 4 706 4 c 0,27,28
EndSplineSet
EndChar

StartChar: T
Encoding: 84 84 237
Width: 1281
VWidth: 1798
GlyphClass: 2
Flags: W
AnchorPoint: "Anchor-1" 614 -250 basechar 0
AnchorPoint: "Anchor-0" 612 1350 basechar 0
LayerCount: 2
Fore
SplineSet
1241 1206 m 1,0,-1
 1241 953 l 1,1,-1
 798 953 l 1,2,-1
 798 -250 l 1,3,-1
 473 -250 l 1,4,-1
 473 953 l 1,5,-1
 39 953 l 1,6,-1
 39 1206 l 1,7,-1
 1241 1206 l 1,0,-1
EndSplineSet
Substitution2: "'c2sc' Capitals to Small Capitals lookup 0 subtable" T.smcp
Position2: "'cpsp' Capital Spacing lookup 0 subtable" dx=36 dy=0 dh=72 dv=0
EndChar

StartChar: T.smcp
Encoding: 65674 -1 238
Width: 1118
GlyphClass: 2
Flags: W
AnchorPoint: "Anchor-1" 531 3 basechar 0
AnchorPoint: "Anchor-0" 530 1320 basechar 0
LayerCount: 2
Fore
SplineSet
1086 1165 m 1,0,-1
 1086 922 l 1,1,-1
 711 922 l 1,2,-1
 711 0 l 1,3,-1
 396 0 l 1,4,-1
 396 922 l 1,5,-1
 31 922 l 1,6,-1
 31 1165 l 1,7,-1
 1086 1165 l 1,0,-1
EndSplineSet
EndChar

StartChar: Tbar
Encoding: 358 358 239
Width: 1281
VWidth: 1798
GlyphClass: 2
Flags: W
AnchorPoint: "Anchor-1" 614 -250 basechar 0
AnchorPoint: "Anchor-0" 612 1350 basechar 0
LayerCount: 2
Fore
SplineSet
970 674 m 1,0,-1
 970 489 l 1,1,-1
 798 489 l 1,2,-1
 798 -250 l 1,3,-1
 473 -250 l 1,4,-1
 473 489 l 1,5,-1
 254 489 l 1,6,-1
 254 674 l 1,7,-1
 473 674 l 1,8,-1
 473 953 l 1,9,-1
 39 953 l 1,10,-1
 39 1206 l 1,11,-1
 1241 1206 l 1,12,-1
 1241 953 l 1,13,-1
 798 953 l 1,14,-1
 798 674 l 1,15,-1
 970 674 l 1,0,-1
EndSplineSet
Substitution2: "'c2sc' Capitals to Small Capitals lookup 0 subtable" Tbar.smcp
Position2: "'cpsp' Capital Spacing lookup 0 subtable" dx=36 dy=0 dh=72 dv=0
EndChar

StartChar: Thorn
Encoding: 222 222 244
Width: 1257
VWidth: 1798
GlyphClass: 2
Flags: W
LayerCount: 2
Fore
SplineSet
125 1206 m 1,0,-1
 438 1206 l 1,1,-1
 438 942 l 1,2,-1
 650 942 l 2,3,4
 828 942 828 942 950 883.5 c 128,-1,5
 1072 825 1072 825 1135 723 c 128,-1,6
 1198 621 1198 621 1198 488 c 0,7,8
 1198 356 1198 356 1135 253.5 c 128,-1,9
 1072 151 1072 151 950 92.5 c 128,-1,10
 828 34 828 34 650 34 c 2,11,-1
 438 34 l 1,12,-1
 438 -250 l 1,13,-1
 125 -250 l 1,14,-1
 125 1206 l 1,0,-1
650 700 m 2,15,-1
 438 700 l 1,16,-1
 438 276 l 1,17,-1
 650 276 l 2,18,19
 776 276 776 276 830.5 340 c 128,-1,20
 885 404 885 404 885 486 c 0,21,22
 885 569 885 569 830.5 634.5 c 128,-1,23
 776 700 776 700 650 700 c 2,15,-1
EndSplineSet
Substitution2: "'c2sc' Capitals to Small Capitals lookup 0 subtable" Thorn.smcp
Position2: "'cpsp' Capital Spacing lookup 0 subtable" dx=36 dy=0 dh=72 dv=0
EndChar

StartChar: Thorn.smcp
Encoding: 65678 -1 245
Width: 1050
GlyphClass: 2
Flags: W
AnchorPoint: "Anchor-1" 450 10 basechar 0
AnchorPoint: "Anchor-0" 526 1320 basechar 0
LayerCount: 2
Fore
SplineSet
90 0 m 1,0,-1
 90 1165 l 1,1,-1
 404 1165 l 1,2,-1
 404 1007 l 1,3,-1
 521 1007 l 2,4,5
 673 1007 673 1007 782.5 956 c 128,-1,6
 892 905 892 905 951 816.5 c 128,-1,7
 1010 728 1010 728 1010 615 c 0,8,9
 1010 497 1010 497 951 408 c 128,-1,10
 892 319 892 319 782.5 268.5 c 128,-1,11
 673 218 673 218 521 218 c 2,12,-1
 404 218 l 1,13,-1
 404 0 l 1,14,-1
 90 0 l 1,0,-1
521 764 m 2,15,-1
 404 764 l 1,16,-1
 404 461 l 1,17,-1
 521 461 l 2,18,19
 611 461 611 461 654.5 505 c 128,-1,20
 698 549 698 549 698 613 c 0,21,22
 698 674 698 674 654.5 719 c 128,-1,23
 611 764 611 764 521 764 c 2,15,-1
EndSplineSet
EndChar

StartChar: U
Encoding: 85 85 246
Width: 1356
VWidth: 1798
GlyphClass: 2
Flags: W
AnchorPoint: "Anchor-1" 666 -250 basechar 0
AnchorPoint: "Anchor-0" 667 1351 basechar 0
LayerCount: 2
Fore
SplineSet
917 1206 m 1,0,-1
 1243 1206 l 1,1,-1
 1243 250 l 2,2,3
 1243 81 1243 81 1171.5 -35 c 128,-1,4
 1100 -151 1100 -151 973 -210.5 c 128,-1,5
 846 -270 846 -270 679 -270 c 256,6,7
 512 -270 512 -270 383.5 -210.5 c 128,-1,8
 255 -151 255 -151 183 -35 c 128,-1,9
 111 81 111 81 111 250 c 2,10,-1
 111 1206 l 1,11,-1
 438 1206 l 1,12,-1
 438 250 l 2,13,14
 438 109 438 109 501 45.5 c 128,-1,15
 564 -18 564 -18 679 -18 c 256,16,17
 794 -18 794 -18 855.5 45.5 c 128,-1,18
 917 109 917 109 917 250 c 2,19,-1
 917 1206 l 1,0,-1
EndSplineSet
Substitution2: "'unic' Unicase lookup 2 subtable" U.unic
Substitution2: "'c2sc' Capitals to Small Capitals lookup 0 subtable" U.smcp
Position2: "'cpsp' Capital Spacing lookup 0 subtable" dx=36 dy=0 dh=72 dv=0
EndChar

StartChar: U.smcp
Encoding: 65679 -1 247
Width: 1174
GlyphClass: 2
Flags: W
AnchorPoint: "Anchor-1" 574 0 basechar 0
AnchorPoint: "Anchor-0" 576 1320 basechar 0
LayerCount: 2
Fore
SplineSet
769 1165 m 1,0,-1
 1083 1165 l 1,1,-1
 1083 413 l 2,2,3
 1083 205 1083 205 949 94.5 c 128,-1,4
 815 -16 815 -16 588 -16 c 0,5,6
 365 -16 365 -16 227 94.5 c 128,-1,7
 89 205 89 205 89 413 c 2,8,-1
 89 1165 l 1,9,-1
 403 1165 l 1,10,-1
 403 413 l 2,11,12
 403 313 403 313 450.5 269.5 c 128,-1,13
 498 226 498 226 588 226 c 0,14,15
 677 226 677 226 723 269.5 c 128,-1,16
 769 313 769 313 769 413 c 2,17,-1
 769 1165 l 1,0,-1
EndSplineSet
EndChar

StartChar: U.unic
Encoding: 65680 -1 248
Width: 1443
GlyphClass: 2
Flags: W
AnchorPoint: "Anchor-1" 721 0 basechar 0
AnchorPoint: "Anchor-0" 722 1632 basechar 0
LayerCount: 2
Fore
SplineSet
1015 0 m 1,0,-1
 1003 148 l 1,1,2
 925 70 925 70 817.5 25 c 128,-1,3
 710 -20 710 -20 579 -20 c 0,4,5
 439 -20 439 -20 336 32 c 128,-1,6
 233 84 233 84 176.5 200.5 c 128,-1,7
 120 317 120 317 120 508 c 2,8,-1
 120 1456 l 1,9,-1
 445 1456 l 1,10,-1
 445 547 l 2,11,12
 445 433 445 433 476.5 367.5 c 128,-1,13
 508 302 508 302 561.5 275 c 128,-1,14
 615 248 615 248 681 248 c 0,15,16
 746 248 746 248 810.5 280 c 128,-1,17
 875 312 875 312 925 369.5 c 128,-1,18
 975 427 975 427 996 504 c 1,19,-1
 996 1456 l 1,20,-1
 1322 1456 l 1,21,-1
 1322 0 l 1,22,-1
 1015 0 l 1,0,-1
EndSplineSet
EndChar

StartChar: Uhorn
Encoding: 431 431 263
Width: 1467
VWidth: 1798
GlyphClass: 2
Flags: W
AnchorPoint: "Anchor-1" 692 -259 basechar 0
AnchorPoint: "Anchor-0" 694 1362 basechar 0
LayerCount: 2
Fore
SplineSet
917 1206 m 1,0,-1
 1243 1206 l 1,1,-1
 1243 977 l 1,2,3
 1333 984 1333 984 1373.5 1023 c 128,-1,4
 1414 1062 1414 1062 1424.5 1129 c 128,-1,5
 1435 1196 1435 1196 1435 1287 c 1,6,-1
 1632 1287 l 1,7,8
 1632 1143 1632 1143 1597.5 1040.5 c 128,-1,9
 1563 938 1563 938 1478.5 881 c 128,-1,10
 1394 824 1394 824 1243 818 c 1,11,-1
 1243 250 l 2,12,13
 1243 81 1243 81 1171.5 -35 c 128,-1,14
 1100 -151 1100 -151 973 -210.5 c 128,-1,15
 846 -270 846 -270 679 -270 c 256,16,17
 512 -270 512 -270 383.5 -210.5 c 128,-1,18
 255 -151 255 -151 183 -35 c 128,-1,19
 111 81 111 81 111 250 c 2,20,-1
 111 1206 l 1,21,-1
 438 1206 l 1,22,-1
 438 250 l 2,23,24
 438 109 438 109 501 45.5 c 128,-1,25
 564 -18 564 -18 679 -18 c 256,26,27
 794 -18 794 -18 855.5 45.5 c 128,-1,28
 917 109 917 109 917 250 c 2,29,-1
 917 1206 l 1,0,-1
EndSplineSet
EndChar

StartChar: Uogonek
Encoding: 370 370 270
Width: 1356
VWidth: 1798
GlyphClass: 2
Flags: W
AnchorPoint: "Anchor-1" 666 -250 basechar 0
AnchorPoint: "Anchor-0" 667 1351 basechar 0
LayerCount: 2
Fore
SplineSet
917 1206 m 1,0,-1
 1243 1206 l 1,1,-1
 1243 250 l 2,2,3
 1243 101 1243 101 1187 -6.5 c 128,-1,4
 1131 -114 1131 -114 1032 -178 c 1,5,-1
 1033 -179 l 1,6,7
 956 -221 956 -221 919.5 -259.5 c 128,-1,8
 883 -298 883 -298 883 -350 c 0,9,10
 883 -377 883 -377 897.5 -395.5 c 128,-1,11
 912 -414 912 -414 946 -414 c 0,12,13
 973 -414 973 -414 990 -407.5 c 128,-1,14
 1007 -401 1007 -401 1020 -394 c 1,15,-1
 1055 -555 l 1,16,17
 1030 -570 1030 -570 990.5 -584.5 c 128,-1,18
 951 -599 951 -599 890 -599 c 0,19,20
 792 -599 792 -599 723.5 -545.5 c 128,-1,21
 655 -492 655 -492 655 -389 c 0,22,23
 655 -359 655 -359 661.5 -329 c 128,-1,24
 668 -299 668 -299 684 -270 c 1,25,-1
 679 -270 l 2,26,27
 512 -270 512 -270 383.5 -210.5 c 128,-1,28
 255 -151 255 -151 183 -35 c 128,-1,29
 111 81 111 81 111 250 c 2,30,-1
 111 1206 l 1,31,-1
 438 1206 l 1,32,-1
 438 250 l 2,33,34
 438 109 438 109 501 45.5 c 128,-1,35
 564 -18 564 -18 679 -18 c 256,36,37
 794 -18 794 -18 855.5 45.5 c 128,-1,38
 917 109 917 109 917 250 c 2,39,-1
 917 1206 l 1,0,-1
EndSplineSet
Substitution2: "'unic' Unicase lookup 2 subtable" Uogonek.unic
Substitution2: "'c2sc' Capitals to Small Capitals lookup 0 subtable" Uogonek.smcp
Position2: "'cpsp' Capital Spacing lookup 0 subtable" dx=36 dy=0 dh=72 dv=0
EndChar

StartChar: Uogonek.smcp
Encoding: 65694 -1 271
Width: 1174
GlyphClass: 2
Flags: W
AnchorPoint: "Anchor-1" 574 0 basechar 0
AnchorPoint: "Anchor-0" 576 1320 basechar 0
LayerCount: 2
Fore
SplineSet
769 1165 m 1,0,-1
 1083 1165 l 1,1,-1
 1083 413 l 2,2,3
 1083 262 1083 262 1011 162 c 128,-1,4
 939 62 939 62 811 18 c 1,5,6
 734 -38 734 -38 734 -109 c 0,7,8
 734 -136 734 -136 748.5 -154 c 128,-1,9
 763 -172 763 -172 797 -172 c 0,10,11
 823 -172 823 -172 840.5 -165.5 c 128,-1,12
 858 -159 858 -159 871 -153 c 1,13,-1
 906 -314 l 1,14,15
 881 -329 881 -329 841 -343.5 c 128,-1,16
 801 -358 801 -358 741 -358 c 0,17,18
 643 -358 643 -358 574.5 -304 c 128,-1,19
 506 -250 506 -250 506 -147 c 0,20,21
 506 -113 506 -113 514 -80 c 128,-1,22
 522 -47 522 -47 542 -15 c 1,23,24
 338 -4 338 -4 213.5 106 c 128,-1,25
 89 216 89 216 89 413 c 2,26,-1
 89 1165 l 1,27,-1
 403 1165 l 1,28,-1
 403 413 l 2,29,30
 403 313 403 313 450.5 269.5 c 128,-1,31
 498 226 498 226 588 226 c 0,32,33
 677 226 677 226 723 269.5 c 128,-1,34
 769 313 769 313 769 413 c 2,35,-1
 769 1165 l 1,0,-1
EndSplineSet
EndChar

StartChar: V
Encoding: 86 86 279
Width: 1346
VWidth: 1798
GlyphClass: 2
Flags: W
AnchorPoint: "Anchor-1" 655 -240 basechar 0
AnchorPoint: "Anchor-0" 655 1362 basechar 0
LayerCount: 2
Fore
SplineSet
363 1206 m 1,0,-1
 672 122 l 1,1,-1
 982 1206 l 1,2,-1
 1345 1206 l 1,3,-1
 846 -250 l 1,4,-1
 497 -250 l 1,5,-1
 1 1206 l 1,6,-1
 363 1206 l 1,0,-1
EndSplineSet
Substitution2: "'c2sc' Capitals to Small Capitals lookup 0 subtable" V.smcp
Position2: "'cpsp' Capital Spacing lookup 0 subtable" dx=36 dy=0 dh=72 dv=0
EndChar

StartChar: V.smcp
Encoding: 65700 -1 280
Width: 1167
GlyphClass: 2
Flags: W
AnchorPoint: "Anchor-1" 561 10 basechar 0
AnchorPoint: "Anchor-0" 561 1320 basechar 0
LayerCount: 2
Fore
SplineSet
587 317 m 1,0,-1
 845 1165 l 1,1,-1
 1173 1165 l 1,2,-1
 756 0 l 1,3,-1
 408 0 l 1,4,-1
 -8 1165 l 1,5,-1
 321 1165 l 1,6,-1
 574 321 l 1,7,-1
 581 285 l 1,8,-1
 587 317 l 1,0,-1
EndSplineSet
EndChar

StartChar: W
Encoding: 87 87 281
Width: 1786
VWidth: 1798
GlyphClass: 2
Flags: W
AnchorPoint: "Anchor-1" 922 -240 basechar 0
AnchorPoint: "Anchor-0" 924 1351 basechar 0
LayerCount: 2
Fore
SplineSet
351 1206 m 1,0,-1
 534 241 l 1,1,-1
 754 1206 l 1,2,-1
 1030 1206 l 1,3,-1
 1252 240 l 1,4,-1
 1434 1206 l 1,5,-1
 1756 1206 l 1,6,-1
 1440 -250 l 1,7,-1
 1108 -250 l 1,8,-1
 891 646 l 1,9,-1
 678 -250 l 1,10,-1
 344 -250 l 1,11,-1
 28 1206 l 1,12,-1
 351 1206 l 1,0,-1
EndSplineSet
Substitution2: "'c2sc' Capitals to Small Capitals lookup 0 subtable" W.smcp
Position2: "'cpsp' Capital Spacing lookup 0 subtable" dx=36 dy=0 dh=72 dv=0
EndChar

StartChar: W.smcp
Encoding: 65701 -1 282
Width: 1528
GlyphClass: 2
Flags: W
AnchorPoint: "Anchor-1" 786 10 basechar 0
AnchorPoint: "Anchor-0" 786 1320 basechar 0
LayerCount: 2
Fore
SplineSet
327 1165 m 1,0,-1
 461 434 l 1,1,-1
 622 1165 l 1,2,-1
 897 1165 l 1,3,-1
 1061 435 l 1,4,-1
 1195 1165 l 1,5,-1
 1494 1165 l 1,6,-1
 1232 0 l 1,7,-1
 917 0 l 1,8,-1
 759 667 l 1,9,-1
 606 0 l 1,10,-1
 290 0 l 1,11,-1
 26 1165 l 1,12,-1
 327 1165 l 1,0,-1
EndSplineSet
EndChar

StartChar: X
Encoding: 88 88 289
Width: 1304
VWidth: 1798
GlyphClass: 2
Flags: W
AnchorPoint: "Anchor-1" 645 -240 basechar 0
AnchorPoint: "Anchor-0" 653 1362 basechar 0
LayerCount: 2
Fore
SplineSet
396 1206 m 1,0,-1
 652 710 l 1,1,-1
 908 1206 l 1,2,-1
 1280 1206 l 1,3,-1
 866 484 l 1,4,-1
 1291 -250 l 1,5,-1
 916 -250 l 1,6,-1
 652 255 l 1,7,-1
 389 -250 l 1,8,-1
 13 -250 l 1,9,-1
 439 484 l 1,10,-1
 24 1206 l 1,11,-1
 396 1206 l 1,0,-1
EndSplineSet
Substitution2: "'c2sc' Capitals to Small Capitals lookup 0 subtable" X.smcp
Position2: "'cpsp' Capital Spacing lookup 0 subtable" dx=36 dy=0 dh=72 dv=0
EndChar

StartChar: X.smcp
Encoding: 65707 -1 290
Width: 1126
GlyphClass: 2
Flags: W
AnchorPoint: "Anchor-1" 550 8 basechar 0
AnchorPoint: "Anchor-0" 550 1320 basechar 0
LayerCount: 2
Fore
SplineSet
361 1165 m 1,0,-1
 546 796 l 1,1,-1
 734 1165 l 1,2,-1
 1094 1165 l 1,3,-1
 745 587 l 1,4,-1
 1126 0 l 1,5,-1
 756 0 l 1,6,-1
 550 376 l 1,7,-1
 354 0 l 1,8,-1
 -6 0 l 1,9,-1
 354 587 l 1,10,-1
 4 1165 l 1,11,-1
 361 1165 l 1,0,-1
EndSplineSet
EndChar

StartChar: Y
Encoding: 89 89 291
Width: 1277
VWidth: 1798
GlyphClass: 2
Flags: W
AnchorPoint: "Anchor-1" 615 -249 basechar 0
AnchorPoint: "Anchor-0" 618 1350 basechar 0
LayerCount: 2
Fore
SplineSet
353 1206 m 1,0,-1
 638 558 l 1,1,-1
 925 1206 l 1,2,-1
 1277 1206 l 1,3,-1
 804 276 l 1,4,-1
 804 -250 l 1,5,-1
 473 -250 l 1,6,-1
 473 276 l 1,7,-1
 -1 1206 l 1,8,-1
 353 1206 l 1,0,-1
EndSplineSet
Substitution2: "'c2sc' Capitals to Small Capitals lookup 0 subtable" Y.smcp
Position2: "'cpsp' Capital Spacing lookup 0 subtable" dx=36 dy=0 dh=72 dv=0
EndChar

StartChar: Y.smcp
Encoding: 65708 -1 292
Width: 1111
GlyphClass: 2
Flags: W
AnchorPoint: "Anchor-1" 533 10 basechar 0
AnchorPoint: "Anchor-0" 533 1320 basechar 0
LayerCount: 2
Fore
SplineSet
332 1165 m 1,0,-1
 555 683 l 1,1,-1
 779 1165 l 1,2,-1
 1117 1165 l 1,3,-1
 709 409 l 1,4,-1
 709 0 l 1,5,-1
 395 0 l 1,6,-1
 395 422 l 1,7,-1
 -5 1165 l 1,8,-1
 332 1165 l 1,0,-1
EndSplineSet
EndChar

StartChar: Z
Encoding: 90 90 301
Width: 1246
VWidth: 1798
GlyphClass: 2
Flags: W
AnchorPoint: "Anchor-1" 613 -240 basechar 0
AnchorPoint: "Anchor-0" 616 1351 basechar 0
LayerCount: 2
Fore
SplineSet
1192 2 m 1,0,-1
 1192 -250 l 1,1,-1
 70 -250 l 1,2,-1
 70 -72 l 1,3,-1
 781 953 l 1,4,-1
 68 953 l 1,5,-1
 68 1206 l 1,6,-1
 1181 1206 l 1,7,-1
 1181 1032 l 1,8,-1
 475 2 l 1,9,-1
 1192 2 l 1,0,-1
EndSplineSet
Substitution2: "'c2sc' Capitals to Small Capitals lookup 0 subtable" Z.smcp
Position2: "'cpsp' Capital Spacing lookup 0 subtable" dx=36 dy=0 dh=72 dv=0
EndChar

StartChar: Z.smcp
Encoding: 65714 -1 302
Width: 1077
GlyphClass: 2
Flags: W
AnchorPoint: "Anchor-1" 533 10 basechar 0
AnchorPoint: "Anchor-0" 533 1320 basechar 0
LayerCount: 2
Fore
SplineSet
1038 242 m 1,0,-1
 1038 0 l 1,1,-1
 55 0 l 1,2,-1
 55 155 l 1,3,-1
 632 922 l 1,4,-1
 50 922 l 1,5,-1
 50 1165 l 1,6,-1
 1033 1165 l 1,7,-1
 1033 1014 l 1,8,-1
 464 242 l 1,9,-1
 1038 242 l 1,0,-1
EndSplineSet
EndChar

StartChar: a
Encoding: 97 97 309
Width: 1092
VWidth: 1798
GlyphClass: 2
Flags: W
AnchorPoint: "Anchor-1" 502 -250 basechar 0
AnchorPoint: "Anchor-0" 582 1040 basechar 0
LayerCount: 2
Fore
SplineSet
721 -250 m 1,0,1
 702 -211 702 -211 691 -150 c 1,2,3
 649 -200 649 -200 585 -235 c 128,-1,4
 521 -270 521 -270 423 -270 c 0,5,6
 322 -270 322 -270 238.5 -228.5 c 128,-1,7
 155 -187 155 -187 105.5 -114 c 128,-1,8
 56 -41 56 -41 56 54 c 0,9,10
 56 223 56 223 180.5 316.5 c 128,-1,11
 305 410 305 410 560 410 c 2,12,-1
 677 410 l 1,13,-1
 677 472 l 2,14,15
 677 545 677 545 643 588 c 128,-1,16
 609 631 609 631 532 631 c 0,17,18
 467 631 467 631 430 598 c 128,-1,19
 393 565 393 565 393 504 c 1,20,-1
 81 504 l 1,21,22
 81 601 81 601 138.5 680 c 128,-1,23
 196 759 196 759 301.5 805.5 c 128,-1,24
 407 852 407 852 549 852 c 0,25,26
 676 852 676 852 775.5 809.5 c 128,-1,27
 875 767 875 767 933 682 c 128,-1,28
 991 597 991 597 991 470 c 2,29,-1
 991 17 l 2,30,31
 991 -80 991 -80 1002.5 -136 c 128,-1,32
 1014 -192 1014 -192 1036 -233 c 1,33,-1
 1036 -250 l 1,34,-1
 721 -250 l 1,0,1
494 -43 m 0,35,36
 563 -43 563 -43 610 -12.5 c 128,-1,37
 657 18 657 18 677 56 c 1,38,-1
 677 238 l 1,39,-1
 563 238 l 2,40,41
 458 238 458 238 413.5 189.5 c 128,-1,42
 369 141 369 141 369 73 c 0,43,44
 369 23 369 23 404 -10 c 128,-1,45
 439 -43 439 -43 494 -43 c 0,35,36
EndSplineSet
Substitution2: "'unic' Unicase lookup 2 subtable" A.unic
Substitution2: "'smcp' Lowercase to Small Capitals lookup 1 subtable" A.smcp
EndChar

StartChar: acute
Encoding: 180 180 313
Width: 684
VWidth: 1798
GlyphClass: 2
Flags: W
LayerCount: 2
Fore
SplineSet
95 975 m 1,0,-1
 293 1286 l 1,1,-1
 627 1286 l 1,2,-1
 350 975 l 1,3,-1
 95 975 l 1,0,-1
EndSplineSet
EndChar

StartChar: acutecomb
Encoding: 769 769 314
Width: 0
VWidth: 1798
GlyphClass: 4
Flags: W
AnchorPoint: "Anchor-3" -566 1391 basemark 0
AnchorPoint: "Anchor-3" -566 1040 mark 0
AnchorPoint: "Anchor-0" -566 1040 mark 0
LayerCount: 2
Fore
SplineSet
-686 975 m 1,0,-1
 -488 1286 l 1,1,-1
 -155 1286 l 1,2,-1
 -431 975 l 1,3,-1
 -686 975 l 1,0,-1
EndSplineSet
EndChar

StartChar: ae
Encoding: 230 230 316
Width: 1730
VWidth: 1798
GlyphClass: 2
Flags: W
AnchorPoint: "Anchor-0" 859 1041 basechar 0
LayerCount: 2
Fore
SplineSet
1242 -270 m 0,0,1
 1118 -270 1118 -270 1022 -233 c 128,-1,2
 926 -196 926 -196 860 -129 c 1,3,4
 806 -185 806 -185 710.5 -227.5 c 128,-1,5
 615 -270 615 -270 477 -270 c 0,6,7
 277 -270 277 -270 170.5 -177 c 128,-1,8
 64 -84 64 -84 64 71 c 0,9,10
 64 229 64 229 193 315.5 c 128,-1,11
 322 402 322 402 572 402 c 2,12,-1
 722 402 l 1,13,-1
 722 454 l 2,14,15
 722 527 722 527 684.5 568 c 128,-1,16
 647 609 647 609 576 609 c 0,17,18
 498 609 498 609 455.5 575.5 c 128,-1,19
 413 542 413 542 413 493 c 1,20,-1
 100 512 l 1,21,22
 100 611 100 611 159 687.5 c 128,-1,23
 218 764 218 764 326 808 c 128,-1,24
 434 852 434 852 580 852 c 0,25,26
 787 852 787 852 903 752 c 1,27,28
 964 801 964 801 1045 827 c 128,-1,29
 1126 853 1126 853 1226 852 c 0,30,31
 1438 852 1438 852 1560 720 c 128,-1,32
 1682 588 1682 588 1682 363 c 2,33,-1
 1682 195 l 1,34,-1
 1028 195 l 1,35,36
 1039 98 1039 98 1098.5 35 c 128,-1,37
 1158 -28 1158 -28 1281 -28 c 0,38,39
 1382 -28 1382 -28 1446 -5.5 c 128,-1,40
 1510 17 1510 17 1570 46 c 1,41,-1
 1650 -149 l 1,42,43
 1592 -192 1592 -192 1483.5 -231 c 128,-1,44
 1375 -270 1375 -270 1242 -270 c 0,0,1
1226 609 m 0,45,46
 1132 609 1132 609 1087 549.5 c 128,-1,47
 1042 490 1042 490 1030 395 c 1,48,-1
 1375 395 l 1,49,-1
 1375 422 l 2,50,51
 1375 508 1375 508 1337.5 558.5 c 128,-1,52
 1300 609 1300 609 1226 609 c 0,45,46
536 -51 m 0,53,54
 585 -51 585 -51 636 -29.5 c 128,-1,55
 687 -8 687 -8 722 22 c 1,56,-1
 722 208 l 1,57,-1
 574 208 l 2,58,59
 477 208 477 208 427 165.5 c 128,-1,60
 377 123 377 123 377 67 c 0,61,62
 377 13 377 13 415.5 -19 c 128,-1,63
 454 -51 454 -51 536 -51 c 0,53,54
EndSplineSet
Substitution2: "'unic' Unicase lookup 2 subtable" AE
Substitution2: "'smcp' Lowercase to Small Capitals lookup 1 subtable" AE.smcp
EndChar

StartChar: afii57636
Encoding: 8362 8362 321
Width: 1836
GlyphClass: 2
Flags: W
LayerCount: 2
Fore
SplineSet
105 1082 m 1,0,-1
 901 1082 l 2,1,2
 1051 1082 1051 1082 1135.5 1037.5 c 128,-1,3
 1220 993 1220 993 1254.5 901.5 c 128,-1,4
 1289 810 1289 810 1289 670 c 2,5,-1
 1289 367 l 1,6,-1
 976 367 l 1,7,-1
 976 671 l 2,8,9
 976 747 976 747 953.5 782.5 c 128,-1,10
 931 818 931 818 890.5 828.5 c 128,-1,11
 850 839 850 839 797 839 c 2,12,-1
 417 839 l 1,13,-1
 417 0 l 1,14,-1
 105 0 l 1,15,-1
 105 1082 l 1,0,-1
1098 0 m 2,16,-1
 546 0 l 1,17,-1
 546 717 l 1,18,-1
 859 717 l 1,19,-1
 859 243 l 1,20,-1
 1239 243 l 2,21,22
 1292 243 1292 243 1332 253.5 c 128,-1,23
 1372 264 1372 264 1395 300 c 128,-1,24
 1418 336 1418 336 1418 411 c 2,25,-1
 1418 1082 l 1,26,-1
 1731 1082 l 1,27,-1
 1731 412 l 2,28,29
 1731 307 1731 307 1675 229.5 c 128,-1,30
 1619 152 1619 152 1526.5 101 c 128,-1,31
 1434 50 1434 50 1322 25 c 128,-1,32
 1210 0 1210 0 1098 0 c 2,16,-1
EndSplineSet
EndChar

StartChar: ampersand
Encoding: 38 38 325
Width: 1364
VWidth: 1798
GlyphClass: 2
Flags: W
LayerCount: 2
Fore
SplineSet
982 -250 m 1,0,-1
 910 -168 l 1,1,2
 827 -220 827 -220 737.5 -245.5 c 128,-1,3
 648 -271 648 -271 538 -271 c 0,4,5
 392 -271 392 -271 285 -218 c 128,-1,6
 178 -165 178 -165 120.5 -72 c 128,-1,7
 63 21 63 21 63 141 c 0,8,9
 63 269 63 269 136 354 c 128,-1,10
 209 439 209 439 323 521 c 1,11,12
 261 606 261 606 226 682 c 128,-1,13
 191 758 191 758 191 840 c 0,14,15
 191 955 191 955 241 1042 c 128,-1,16
 291 1129 291 1129 382 1178 c 128,-1,17
 473 1227 473 1227 595 1227 c 0,18,19
 710 1227 710 1227 794 1180 c 128,-1,20
 878 1133 878 1133 924 1055 c 128,-1,21
 970 977 970 977 970 884 c 0,22,23
 970 783 970 783 915.5 703 c 128,-1,24
 861 623 861 623 777 563 c 2,25,-1
 687 499 l 1,26,-1
 927 221 l 1,27,28
 953 274 953 274 968 336.5 c 128,-1,29
 983 399 983 399 983 469 c 1,30,-1
 1247 469 l 1,31,32
 1247 335 1247 335 1216 217 c 128,-1,33
 1185 99 1185 99 1113 5 c 1,34,-1
 1333 -250 l 1,35,-1
 982 -250 l 1,0,-1
466 845 m 0,36,37
 466 801 466 801 488.5 757 c 128,-1,38
 511 713 511 713 549 664 c 1,39,-1
 619 709 l 2,40,41
 681 749 681 749 698.5 786.5 c 128,-1,42
 716 824 716 824 716 864 c 0,43,44
 716 908 716 908 684.5 946 c 128,-1,45
 653 984 653 984 594 984 c 0,46,47
 530 984 530 984 498 943 c 128,-1,48
 466 902 466 902 466 845 c 0,36,37
378 160 m 0,49,50
 378 78 378 78 429 25 c 128,-1,51
 480 -28 480 -28 558 -28 c 0,52,53
 655 -28 655 -28 744 23 c 1,54,-1
 465 343 l 1,55,-1
 450 332 l 1,56,57
 407 288 407 288 392.5 245.5 c 128,-1,58
 378 203 378 203 378 160 c 0,49,50
EndSplineSet
Substitution2: "'smcp' Lowercase to Small Capitals lookup 1 subtable" ampersand.smcp
Substitution2: "'c2sc' Capitals to Small Capitals lookup 0 subtable" ampersand.smcp
Position2: "'cpsp' Capital Spacing lookup 0 subtable" dx=36 dy=0 dh=72 dv=0
EndChar

StartChar: ampersand.smcp
Encoding: 65718 -1 326
Width: 1362
GlyphClass: 2
Flags: W
LayerCount: 2
Fore
SplineSet
544 -20 m 0,0,1
 331 -20 331 -20 207 69.5 c 128,-1,2
 83 159 83 159 83 297 c 0,3,4
 83 398 83 398 140.5 464.5 c 128,-1,5
 198 531 198 531 298 593 c 2,6,-1
 321 608 l 1,7,8
 255 676 255 676 217 740 c 128,-1,9
 179 804 179 804 179 892 c 0,10,11
 179 967 179 967 221.5 1033 c 128,-1,12
 264 1099 264 1099 345 1140 c 128,-1,13
 426 1181 426 1181 543 1181 c 0,14,15
 716 1181 716 1181 818.5 1098 c 128,-1,16
 921 1015 921 1015 921 875 c 0,17,18
 921 792 921 792 868.5 725 c 128,-1,19
 816 658 816 658 737 609 c 2,20,-1
 682 574 l 1,21,-1
 883 377 l 1,22,23
 932 455 932 455 932 560 c 1,24,-1
 1195 560 l 1,25,26
 1195 440 1195 440 1159.5 351.5 c 128,-1,27
 1124 263 1124 263 1066 197 c 1,28,-1
 1267 0 l 1,29,-1
 930 0 l 1,30,-1
 876 54 l 1,31,32
 800 16 800 16 715 -2 c 128,-1,33
 630 -20 630 -20 544 -20 c 0,0,1
442 861 m 0,34,35
 442 830 442 830 464 799.5 c 128,-1,36
 486 769 486 769 521 733 c 1,37,-1
 557 755 l 2,38,39
 621 793 621 793 637.5 818.5 c 128,-1,40
 654 844 654 844 654 873 c 0,41,42
 654 904 654 904 626 929.5 c 128,-1,43
 598 955 598 955 548 955 c 0,44,45
 496 955 496 955 469 927 c 128,-1,46
 442 899 442 899 442 861 c 0,34,35
396 329 m 0,47,48
 396 279 396 279 436 249.5 c 128,-1,49
 476 220 476 220 544 220 c 0,50,51
 624 220 624 220 691 239 c 1,52,-1
 484 445 l 1,53,-1
 465 433 l 2,54,55
 425 406 425 406 410.5 379 c 128,-1,56
 396 352 396 352 396 329 c 0,47,48
EndSplineSet
EndChar

StartChar: aogonek
Encoding: 261 261 327
Width: 1092
VWidth: 1798
GlyphClass: 2
Flags: W
AnchorPoint: "Anchor-1" 502 -250 basechar 0
AnchorPoint: "Anchor-0" 582 1040 basechar 0
LayerCount: 2
Fore
SplineSet
1005 -626 m 1,0,1
 980 -641 980 -641 940.5 -655.5 c 128,-1,2
 901 -670 901 -670 840 -670 c 0,3,4
 742 -670 742 -670 673.5 -616 c 128,-1,5
 605 -562 605 -562 605 -459 c 0,6,7
 605 -403 605 -403 629.5 -348.5 c 128,-1,8
 654 -294 654 -294 719 -246 c 1,9,10
 701 -207 701 -207 691 -150 c 1,11,12
 649 -200 649 -200 585 -235 c 128,-1,13
 521 -270 521 -270 423 -270 c 0,14,15
 322 -270 322 -270 238.5 -228.5 c 128,-1,16
 155 -187 155 -187 105.5 -114 c 128,-1,17
 56 -41 56 -41 56 54 c 0,18,19
 56 223 56 223 180.5 316.5 c 128,-1,20
 305 410 305 410 560 410 c 2,21,-1
 677 410 l 1,22,-1
 677 472 l 2,23,24
 677 545 677 545 643 588 c 128,-1,25
 609 631 609 631 532 631 c 0,26,27
 467 631 467 631 430 598 c 128,-1,28
 393 565 393 565 393 504 c 1,29,-1
 81 504 l 1,30,31
 81 601 81 601 138.5 680 c 128,-1,32
 196 759 196 759 301.5 805.5 c 128,-1,33
 407 852 407 852 549 852 c 0,34,35
 676 852 676 852 775.5 809.5 c 128,-1,36
 875 767 875 767 933 682 c 128,-1,37
 991 597 991 597 991 470 c 2,38,-1
 991 17 l 2,39,40
 991 -80 991 -80 1002.5 -136 c 128,-1,41
 1014 -192 1014 -192 1036 -233 c 1,42,-1
 1036 -250 l 1,43,-1
 983 -250 l 1,44,45
 906 -292 906 -292 869.5 -330 c 128,-1,46
 833 -368 833 -368 833 -421 c 0,47,48
 833 -448 833 -448 847.5 -466.5 c 128,-1,49
 862 -485 862 -485 896 -485 c 0,50,51
 923 -485 923 -485 940 -478.5 c 128,-1,52
 957 -472 957 -472 970 -465 c 1,53,-1
 1005 -626 l 1,0,1
494 -43 m 0,54,55
 563 -43 563 -43 610 -12.5 c 128,-1,56
 657 18 657 18 677 56 c 1,57,-1
 677 238 l 1,58,-1
 563 238 l 2,59,60
 458 238 458 238 413.5 189.5 c 128,-1,61
 369 141 369 141 369 73 c 0,62,63
 369 23 369 23 404 -10 c 128,-1,64
 439 -43 439 -43 494 -43 c 0,54,55
EndSplineSet
Substitution2: "'locl' Localized Forms in Latin lookup 8 subtable" aogonek.NAV
Substitution2: "'unic' Unicase lookup 2 subtable" Aogonek.unic
Substitution2: "'smcp' Lowercase to Small Capitals lookup 1 subtable" Aogonek.smcp
EndChar

StartChar: approxequal
Encoding: 8776 8776 329
Width: 1189
GlyphClass: 2
Flags: W
LayerCount: 2
Fore
SplineSet
101 674 m 1,0,-1
 101 914 l 1,1,2
 148 964 148 964 215 992.5 c 128,-1,3
 282 1021 282 1021 347 1021 c 0,4,5
 427 1023 427 1023 482 1001.5 c 128,-1,6
 537 980 537 980 600 948 c 0,7,8
 659 918 659 918 711 898.5 c 128,-1,9
 763 879 763 879 837 879 c 0,10,11
 902 879 902 879 959.5 912.5 c 128,-1,12
 1017 946 1017 946 1064 1005 c 1,13,-1
 1064 765 l 1,14,15
 1017 716 1017 716 964 687.5 c 128,-1,16
 911 659 911 659 846 659 c 0,17,18
 772 659 772 659 720.5 678.5 c 128,-1,19
 669 698 669 698 610 728 c 0,20,21
 547 760 547 760 491.5 781.5 c 128,-1,22
 436 803 436 803 356 801 c 0,23,24
 291 801 291 801 219.5 767 c 128,-1,25
 148 733 148 733 101 674 c 1,0,-1
101 255 m 1,26,-1
 101 495 l 1,27,28
 148 545 148 545 210.5 573 c 128,-1,29
 273 601 273 601 338 601 c 0,30,31
 418 603 418 603 472.5 581.5 c 128,-1,32
 527 560 527 560 590 528 c 0,33,34
 649 498 649 498 701 478.5 c 128,-1,35
 753 459 753 459 827 459 c 0,36,37
 892 459 892 459 954 493 c 128,-1,38
 1016 527 1016 527 1063 586 c 1,39,-1
 1064 345 l 1,40,41
 1017 296 1017 296 959.5 267.5 c 128,-1,42
 902 239 902 239 837 239 c 0,43,44
 763 239 763 239 711 258.5 c 128,-1,45
 659 278 659 278 600 308 c 0,46,47
 537 340 537 340 482 361.5 c 128,-1,48
 427 383 427 383 347 381 c 0,49,50
 282 381 282 381 215 347.5 c 128,-1,51
 148 314 148 314 101 255 c 1,26,-1
EndSplineSet
EndChar

StartChar: arabic_2dots
Encoding: 65720 -1 330
Width: 517
GlyphClass: 1
Flags: W
LayerCount: 2
Fore
SplineSet
88 272 m 1,0,-1
 258 104 l 1,1,-1
 426 272 l 1,2,-1
 597 102 l 1,3,-1
 426 -70 l 1,4,-1
 258 100 l 1,5,-1
 88 -70 l 1,6,-1
 -82 102 l 1,7,-1
 88 272 l 1,0,-1
EndSplineSet
EndChar

StartChar: arabic_3dots
Encoding: 65721 -1 331
Width: 528
GlyphClass: 1
Flags: W
LayerCount: 2
Fore
SplineSet
255 482 m 1,0,-1
 416 322 l 1,1,-1
 255 161 l 1,2,-1
 94 322 l 1,3,-1
 255 482 l 1,0,-1
430 227 m 1,4,-1
 591 66 l 1,5,-1
 430 -95 l 1,6,-1
 269 66 l 1,7,-1
 430 227 l 1,4,-1
81 227 m 1,8,-1
 241 66 l 1,9,-1
 81 -95 l 1,10,-1
 -80 66 l 1,11,-1
 81 227 l 1,8,-1
EndSplineSet
EndChar

StartChar: arabic_3dots_a
Encoding: 65722 -1 332
Width: 528
GlyphClass: 1
Flags: W
LayerCount: 2
Fore
SplineSet
430 296 m 1,0,-1
 591 135 l 1,1,-1
 430 -26 l 1,2,-1
 269 135 l 1,3,-1
 430 296 l 1,0,-1
81 296 m 1,4,-1
 241 135 l 1,5,-1
 81 -26 l 1,6,-1
 -80 135 l 1,7,-1
 81 296 l 1,4,-1
255 40 m 1,8,-1
 416 -121 l 1,9,-1
 255 -281 l 1,10,-1
 94 -121 l 1,11,-1
 255 40 l 1,8,-1
EndSplineSet
EndChar

StartChar: arabic_dot
Encoding: 65723 -1 333
Width: 197
GlyphClass: 1
Flags: W
LayerCount: 2
Fore
SplineSet
96 282 m 1,0,-1
 276 102 l 1,1,-1
 96 -77 l 1,2,-1
 -83 102 l 1,3,-1
 96 282 l 1,0,-1
EndSplineSet
EndChar

StartChar: arabic_gaf_bar
Encoding: 65724 -1 334
Width: 787
GlyphClass: 1
Flags: W
LayerCount: 2
Fore
SplineSet
-61 1559 m 1,0,-1
 -61 1711 l 1,1,-1
 752 2042 l 1,2,-1
 752 1890 l 1,3,-1
 -61 1559 l 1,0,-1
EndSplineSet
EndChar

StartChar: asciicircum
Encoding: 94 94 337
Width: 907
VWidth: 1798
GlyphClass: 2
Flags: W
LayerCount: 2
Fore
SplineSet
628 479 m 1,0,-1
 455 938 l 1,1,-1
 281 479 l 1,2,-1
 41 479 l 1,3,-1
 340 1206 l 1,4,-1
 570 1206 l 1,5,-1
 869 479 l 1,6,-1
 628 479 l 1,0,-1
EndSplineSet
EndChar

StartChar: asciitilde
Encoding: 126 126 338
Width: 1311
VWidth: 1798
GlyphClass: 2
Flags: W
LayerCount: 2
Fore
SplineSet
982 546 m 1,0,-1
 1208 546 l 1,1,2
 1208 352 1208 352 1115 237.5 c 128,-1,3
 1022 123 1022 123 875 123 c 0,4,5
 796 123 796 123 734.5 154.5 c 128,-1,6
 673 186 673 186 602 254 c 0,7,8
 562 295 562 295 526 315.5 c 128,-1,9
 490 336 490 336 450 336 c 0,10,11
 395 336 395 336 360.5 285.5 c 128,-1,12
 326 235 326 235 326 160 c 1,13,-1
 100 163 l 1,14,15
 100 360 100 360 192 470.5 c 128,-1,16
 284 581 284 581 431 581 c 0,17,18
 510 581 510 581 576 548 c 128,-1,19
 642 515 642 515 708 450 c 0,20,21
 748 410 748 410 783.5 389 c 128,-1,22
 819 368 819 368 857 368 c 0,23,24
 912 368 912 368 947 419.5 c 128,-1,25
 982 471 982 471 982 546 c 1,0,-1
EndSplineSet
EndChar

StartChar: asterisk
Encoding: 42 42 339
Width: 942
VWidth: 1798
GlyphClass: 2
Flags: W
LayerCount: 2
Fore
SplineSet
126 438 m 1,0,-1
 348 711 l 1,1,-1
 27 801 l 1,2,-1
 89 983 l 1,3,-1
 405 855 l 1,4,-1
 383 1206 l 1,5,-1
 586 1206 l 1,6,-1
 563 849 l 1,7,-1
 872 974 l 1,8,-1
 933 789 l 1,9,-1
 607 699 l 1,10,-1
 822 433 l 1,11,-1
 658 319 l 1,12,-1
 474 612 l 1,13,-1
 290 328 l 1,14,-1
 126 438 l 1,0,-1
EndSplineSet
EndChar

StartChar: at
Encoding: 64 64 340
Width: 1835
VWidth: 1798
GlyphClass: 2
Flags: W
LayerCount: 2
Fore
SplineSet
1752 292 m 0,0,1
 1748 188 1748 188 1721.5 88 c 128,-1,2
 1695 -12 1695 -12 1641.5 -93.5 c 128,-1,3
 1588 -175 1588 -175 1505.5 -223 c 128,-1,4
 1423 -271 1423 -271 1308 -271 c 0,5,6
 1225 -271 1225 -271 1162 -233.5 c 128,-1,7
 1099 -196 1099 -196 1065 -129 c 1,8,9
 967 -268 967 -268 802 -268 c 0,10,11
 705 -268 705 -268 635 -212 c 128,-1,12
 565 -156 565 -156 532 -54.5 c 128,-1,13
 499 47 499 47 511 183 c 0,14,15
 531 353 531 353 597 478 c 128,-1,16
 663 603 663 603 764 671.5 c 128,-1,17
 865 740 865 740 986 740 c 0,18,19
 1103 740 1103 740 1169.5 707 c 128,-1,20
 1236 674 1236 674 1297 631 c 1,21,-1
 1247 49 l 2,22,23
 1236 -45 1236 -45 1271 -75 c 128,-1,24
 1306 -105 1306 -105 1348 -105 c 0,25,26
 1409 -105 1409 -105 1456 -53.5 c 128,-1,27
 1503 -2 1503 -2 1531 86 c 128,-1,28
 1559 174 1559 174 1562 284 c 0,29,30
 1573 499 1573 499 1511.5 659.5 c 128,-1,31
 1450 820 1450 820 1313.5 909 c 128,-1,32
 1177 998 1177 998 961 998 c 0,33,34
 757 998 757 998 609 895 c 128,-1,35
 461 792 461 792 377.5 614 c 128,-1,36
 294 436 294 436 283 211 c 0,37,38
 266 -151 266 -151 428 -337 c 128,-1,39
 590 -523 590 -523 895 -523 c 0,40,41
 982 -523 982 -523 1072.5 -503.5 c 128,-1,42
 1163 -484 1163 -484 1226 -456 c 1,43,-1
 1264 -614 l 1,44,45
 1194 -659 1194 -659 1089 -681 c 128,-1,46
 984 -703 984 -703 891 -703 c 0,47,48
 491 -703 491 -703 275 -469.5 c 128,-1,49
 59 -236 59 -236 76 211 c 0,50,51
 85 416 85 416 150.5 590 c 128,-1,52
 216 764 216 764 332 892.5 c 128,-1,53
 448 1021 448 1021 607.5 1092 c 128,-1,54
 767 1163 767 1163 965 1163 c 0,55,56
 1228 1163 1228 1163 1407 1054 c 128,-1,57
 1586 945 1586 945 1674.5 749 c 128,-1,58
 1763 553 1763 553 1752 292 c 0,0,1
747 183 m 0,59,60
 737 53 737 53 769.5 -16 c 128,-1,61
 802 -85 802 -85 875 -85 c 0,62,63
 909 -85 909 -85 955.5 -52 c 128,-1,64
 1002 -19 1002 -19 1037 84 c 1,65,-1
 1078 549 l 1,66,67
 1042 559 1042 559 1005 559 c 0,68,69
 887 559 887 559 826.5 462.5 c 128,-1,70
 766 366 766 366 747 183 c 0,59,60
EndSplineSet
EndChar

StartChar: b
Encoding: 98 98 342
Width: 1153
VWidth: 1798
GlyphClass: 2
Flags: W
AnchorPoint: "Anchor-1" 598 -260 basechar 0
AnchorPoint: "Anchor-0" 634 1361 basechar 0
LayerCount: 2
Fore
SplineSet
1092 303 m 2,0,-1
 1092 282 l 2,1,2
 1092 119 1092 119 1046.5 -5.5 c 128,-1,3
 1001 -130 1001 -130 908 -200 c 128,-1,4
 815 -270 815 -270 672 -270 c 0,5,6
 581 -270 581 -270 514 -234.5 c 128,-1,7
 447 -199 447 -199 399 -136 c 1,8,-1
 385 -250 l 1,9,-1
 105 -250 l 1,10,-1
 105 1286 l 1,11,-1
 417 1286 l 1,12,-1
 417 740 l 1,13,14
 463 793 463 793 525.5 822.5 c 128,-1,15
 588 852 588 852 670 852 c 0,16,17
 814 852 814 852 907.5 781 c 128,-1,18
 1001 710 1001 710 1046.5 586.5 c 128,-1,19
 1092 463 1092 463 1092 303 c 2,0,-1
780 282 m 2,20,-1
 780 303 l 2,21,22
 780 386 780 386 764.5 455.5 c 128,-1,23
 749 525 749 525 708.5 567 c 128,-1,24
 668 609 668 609 592 609 c 0,25,26
 524 609 524 609 482 582.5 c 128,-1,27
 440 556 440 556 417 507 c 1,28,-1
 417 75 l 1,29,30
 440 26 440 26 483 -0.5 c 128,-1,31
 526 -27 526 -27 594 -27 c 0,32,33
 671 -27 671 -27 711 12.5 c 128,-1,34
 751 52 751 52 765.5 122 c 128,-1,35
 780 192 780 192 780 282 c 2,20,-1
EndSplineSet
Substitution2: "'unic' Unicase lookup 2 subtable" B
Substitution2: "'smcp' Lowercase to Small Capitals lookup 1 subtable" B.smcp
EndChar

StartChar: backslash
Encoding: 92 92 343
Width: 869
VWidth: 1798
GlyphClass: 2
Flags: W
LayerCount: 2
Fore
SplineSet
596 -375 m 1,0,-1
 -11 1206 l 1,1,-1
 313 1206 l 1,2,-1
 921 -375 l 1,3,-1
 596 -375 l 1,0,-1
EndSplineSet
EndChar

StartChar: bar
Encoding: 124 124 344
Width: 520
VWidth: 1798
GlyphClass: 2
Flags: W
LayerCount: 2
Fore
SplineSet
351 1206 m 1,0,-1
 351 -520 l 1,1,-1
 173 -520 l 1,2,-1
 173 1206 l 1,3,-1
 351 1206 l 1,0,-1
EndSplineSet
EndChar

StartChar: braceleft
Encoding: 123 123 345
Width: 670
VWidth: 1798
GlyphClass: 2
Flags: W
LayerCount: 2
Fore
SplineSet
633 -444 m 1,0,-1
 573 -611 l 1,1,2
 436 -572 436 -572 357.5 -502.5 c 128,-1,3
 279 -433 279 -433 246.5 -341.5 c 128,-1,4
 214 -250 214 -250 214 -145 c 2,5,-1
 214 58 l 2,6,7
 214 151 214 151 174.5 206 c 128,-1,8
 135 261 135 261 45 261 c 1,9,-1
 45 475 l 1,10,11
 135 475 135 475 174.5 530 c 128,-1,12
 214 585 214 585 214 678 c 2,13,-1
 214 882 l 2,14,15
 214 987 214 987 246.5 1078.5 c 128,-1,16
 279 1170 279 1170 357.5 1239.5 c 128,-1,17
 436 1309 436 1309 573 1347 c 1,18,-1
 633 1181 l 1,19,20
 549 1150 549 1150 519.5 1069 c 128,-1,21
 490 988 490 988 490 882 c 2,22,-1
 490 678 l 2,23,24
 490 579 490 579 446.5 497.5 c 128,-1,25
 403 416 403 416 308 368 c 1,26,27
 403 321 403 321 446.5 239.5 c 128,-1,28
 490 158 490 158 490 58 c 2,29,-1
 490 -145 l 2,30,31
 490 -251 490 -251 519.5 -331.5 c 128,-1,32
 549 -412 549 -412 633 -444 c 1,0,-1
EndSplineSet
EndChar

StartChar: braceright
Encoding: 125 125 346
Width: 670
VWidth: 1798
GlyphClass: 2
Flags: W
LayerCount: 2
Fore
SplineSet
98 -611 m 1,0,-1
 38 -444 l 1,1,2
 122 -412 122 -412 151.5 -331.5 c 128,-1,3
 181 -251 181 -251 181 -145 c 2,4,-1
 181 58 l 2,5,6
 181 159 181 159 225.5 240.5 c 128,-1,7
 270 322 270 322 367 368 c 1,8,9
 270 415 270 415 225.5 496.5 c 128,-1,10
 181 578 181 578 181 678 c 2,11,-1
 181 882 l 2,12,13
 181 988 181 988 151.5 1069 c 128,-1,14
 122 1150 122 1150 38 1181 c 1,15,-1
 98 1347 l 1,16,17
 235 1309 235 1309 313.5 1239.5 c 128,-1,18
 392 1170 392 1170 424.5 1078.5 c 128,-1,19
 457 987 457 987 457 882 c 2,20,-1
 457 678 l 2,21,22
 457 585 457 585 496.5 530 c 128,-1,23
 536 475 536 475 627 475 c 1,24,-1
 627 261 l 1,25,26
 536 261 536 261 496.5 206 c 128,-1,27
 457 151 457 151 457 58 c 2,28,-1
 457 -145 l 2,29,30
 457 -250 457 -250 424.5 -341.5 c 128,-1,31
 392 -433 392 -433 313.5 -502.5 c 128,-1,32
 235 -572 235 -572 98 -611 c 1,0,-1
EndSplineSet
EndChar

StartChar: bracketleft
Encoding: 91 91 347
Width: 572
VWidth: 1798
GlyphClass: 2
Flags: W
LayerCount: 2
Fore
SplineSet
557 1218 m 1,0,-1
 428 1218 l 1,1,-1
 428 -363 l 1,2,-1
 557 -363 l 1,3,-1
 557 -593 l 1,4,-1
 141 -593 l 1,5,-1
 141 1449 l 1,6,-1
 557 1449 l 1,7,-1
 557 1218 l 1,0,-1
EndSplineSet
Position2: "Single Positioning lookup 9 subtable" dx=0 dy=0 dh=100 dv=0
Position2: "Single Positioning lookup 8 subtable" dx=0 dy=0 dh=160 dv=0
EndChar

StartChar: bracketright
Encoding: 93 93 348
Width: 572
VWidth: 1798
GlyphClass: 2
Flags: W
LayerCount: 2
Fore
SplineSet
13 1449 m 1,0,-1
 430 1449 l 1,1,-1
 430 -593 l 1,2,-1
 13 -593 l 1,3,-1
 13 -363 l 1,4,-1
 144 -363 l 1,5,-1
 144 1218 l 1,6,-1
 13 1218 l 1,7,-1
 13 1449 l 1,0,-1
EndSplineSet
EndChar

StartChar: breve
Encoding: 728 728 349
Width: 919
VWidth: 1798
GlyphClass: 2
Flags: W
LayerCount: 2
Fore
SplineSet
600 1281 m 1,0,-1
 818 1281 l 1,1,2
 818 1148 818 1148 721 1064.5 c 128,-1,3
 624 981 624 981 459 981 c 0,4,5
 293 981 293 981 196.5 1064.5 c 128,-1,6
 100 1148 100 1148 100 1281 c 1,7,-1
 317 1281 l 1,8,9
 317 1230 317 1230 349 1190.5 c 128,-1,10
 381 1151 381 1151 459 1151 c 0,11,12
 536 1151 536 1151 568 1190.5 c 128,-1,13
 600 1230 600 1230 600 1281 c 1,0,-1
EndSplineSet
EndChar

StartChar: brokenbar
Encoding: 166 166 350
Width: 520
VWidth: 1798
GlyphClass: 2
Flags: W
LayerCount: 2
Fore
SplineSet
398 1206 m 1,0,-1
 398 448 l 1,1,-1
 124 448 l 1,2,-1
 124 1206 l 1,3,-1
 398 1206 l 1,0,-1
398 -520 m 1,4,-1
 124 -520 l 1,5,-1
 124 275 l 1,6,-1
 398 275 l 1,7,-1
 398 -520 l 1,4,-1
EndSplineSet
EndChar

StartChar: bullet
Encoding: 8226 8226 351
Width: 747
GlyphClass: 2
Flags: W
LayerCount: 2
Fore
SplineSet
136 727 m 2,0,-1
 136 765 l 2,1,2
 136 867 136 867 202 933 c 128,-1,3
 268 999 268 999 380 999 c 0,4,5
 496 999 496 999 561.5 933 c 128,-1,6
 627 867 627 867 627 765 c 2,7,-1
 627 727 l 2,8,9
 627 625 627 625 561.5 560.5 c 128,-1,10
 496 496 496 496 382 496 c 0,11,12
 269 496 269 496 202.5 560.5 c 128,-1,13
 136 625 136 625 136 727 c 2,0,-1
EndSplineSet
EndChar

StartChar: c
Encoding: 99 99 352
Width: 1066
VWidth: 1798
GlyphClass: 2
Flags: W
AnchorPoint: "Anchor-1" 533 -260 basechar 0
AnchorPoint: "Anchor-0" 533 1040 basechar 0
LayerCount: 2
Fore
SplineSet
556 -27 m 0,0,1
 631 -27 631 -27 676 14.5 c 128,-1,2
 721 56 721 56 721 129 c 1,3,-1
 1015 129 l 1,4,5
 1015 11 1015 11 954.5 -79 c 128,-1,6
 894 -169 894 -169 792 -219.5 c 128,-1,7
 690 -270 690 -270 562 -270 c 0,8,9
 394 -270 394 -270 282.5 -197.5 c 128,-1,10
 171 -125 171 -125 115 -1 c 128,-1,11
 59 123 59 123 59 278 c 2,12,-1
 59 304 l 2,13,14
 59 459 59 459 114.5 583 c 128,-1,15
 170 707 170 707 282 779.5 c 128,-1,16
 394 852 394 852 561 852 c 0,17,18
 695 852 695 852 797 800.5 c 128,-1,19
 899 749 899 749 957 653.5 c 128,-1,20
 1015 558 1015 558 1015 425 c 1,21,-1
 721 425 l 1,22,23
 721 502 721 502 679 555.5 c 128,-1,24
 637 609 637 609 554 609 c 0,25,26
 478 609 478 609 438.5 566.5 c 128,-1,27
 399 524 399 524 385.5 454.5 c 128,-1,28
 372 385 372 385 372 304 c 2,29,-1
 372 278 l 2,30,31
 372 196 372 196 385.5 126.5 c 128,-1,32
 399 57 399 57 438.5 15 c 128,-1,33
 478 -27 478 -27 556 -27 c 0,0,1
EndSplineSet
Substitution2: "'unic' Unicase lookup 2 subtable" C
Substitution2: "'smcp' Lowercase to Small Capitals lookup 1 subtable" C.smcp
EndChar

StartChar: caron
Encoding: 711 711 354
Width: 974
VWidth: 1798
GlyphClass: 2
Flags: W
LayerCount: 2
Fore
SplineSet
337 1287 m 1,0,-1
 485 1147 l 1,1,-1
 633 1287 l 1,2,-1
 899 1287 l 1,3,-1
 899 1276 l 1,4,-1
 586 994 l 1,5,-1
 385 994 l 1,6,-1
 70 1278 l 1,7,-1
 70 1287 l 1,8,-1
 337 1287 l 1,0,-1
EndSplineSet
EndChar

StartChar: cedilla
Encoding: 184 184 358
Width: 560
VWidth: 1798
GlyphClass: 2
Flags: W
LayerCount: 2
Fore
SplineSet
123 -242 m 1,0,-1
 360 -242 l 1,1,-1
 348 -301 l 1,2,3
 404 -311 404 -311 451.5 -349.5 c 128,-1,4
 499 -388 499 -388 499 -474 c 0,5,6
 499 -583 499 -583 407 -649.5 c 128,-1,7
 315 -716 315 -716 136 -716 c 1,8,-1
 129 -543 l 1,9,10
 173 -543 173 -543 202 -524 c 128,-1,11
 231 -505 231 -505 231 -462 c 0,12,13
 231 -422 231 -422 198.5 -406 c 128,-1,14
 166 -390 166 -390 92 -386 c 1,15,-1
 123 -242 l 1,0,-1
EndSplineSet
EndChar

StartChar: cent
Encoding: 162 162 359
Width: 1196
VWidth: 1798
GlyphClass: 2
Flags: W
LayerCount: 2
Fore
SplineSet
596 -27 m 0,0,1
 671 -27 671 -27 716.5 14.5 c 128,-1,2
 762 56 762 56 761 129 c 1,3,-1
 1056 129 l 1,4,5
 1055 -24 1055 -24 956 -128.5 c 128,-1,6
 857 -233 857 -233 704 -261 c 1,7,-1
 704 -495 l 1,8,-1
 507 -495 l 1,9,-1
 507 -263 l 1,10,11
 371 -242 371 -242 280.5 -166.5 c 128,-1,12
 190 -91 190 -91 145 24 c 128,-1,13
 100 139 100 139 100 278 c 2,14,-1
 100 304 l 2,15,16
 100 443 100 443 145 558.5 c 128,-1,17
 190 674 190 674 280.5 749.5 c 128,-1,18
 371 825 371 825 507 845 c 1,19,-1
 507 1068 l 1,20,-1
 704 1068 l 1,21,-1
 704 843 l 1,22,23
 863 816 863 816 959 707 c 128,-1,24
 1055 598 1055 598 1056 425 c 1,25,-1
 761 425 l 1,26,27
 762 502 762 502 720 555.5 c 128,-1,28
 678 609 678 609 595 609 c 0,29,30
 518 609 518 609 479 566.5 c 128,-1,31
 440 524 440 524 426.5 454.5 c 128,-1,32
 413 385 413 385 413 304 c 2,33,-1
 413 278 l 2,34,35
 413 196 413 196 426.5 126.5 c 128,-1,36
 440 57 440 57 479.5 15 c 128,-1,37
 519 -27 519 -27 596 -27 c 0,0,1
EndSplineSet
EndChar

StartChar: circumflex
Encoding: 710 710 360
Width: 1023
VWidth: 1798
GlyphClass: 2
Flags: W
LayerCount: 2
Fore
SplineSet
599 1286 m 1,0,-1
 914 1006 l 1,1,-1
 914 994 l 1,2,-1
 667 994 l 1,3,-1
 509 1135 l 1,4,-1
 352 994 l 1,5,-1
 110 994 l 1,6,-1
 110 1010 l 1,7,-1
 419 1286 l 1,8,-1
 599 1286 l 1,0,-1
EndSplineSet
EndChar

StartChar: colon
Encoding: 58 58 361
Width: 624
VWidth: 1798
GlyphClass: 2
Flags: W
LayerCount: 2
Fore
SplineSet
128 516 m 256,0,1
 128 592 128 592 182 642 c 128,-1,2
 236 692 236 692 312 692 c 0,3,4
 389 692 389 692 442.5 642 c 128,-1,5
 496 592 496 592 496 516 c 0,6,7
 496 441 496 441 442 391 c 128,-1,8
 388 341 388 341 312 341 c 0,9,10
 234 341 234 341 181 390.5 c 128,-1,11
 128 440 128 440 128 516 c 256,0,1
128 -73 m 0,12,13
 128 2 128 2 182 52.5 c 128,-1,14
 236 103 236 103 312 103 c 0,15,16
 389 103 389 103 442.5 52.5 c 128,-1,17
 496 2 496 2 496 -73 c 0,18,19
 496 -149 496 -149 442 -199 c 128,-1,20
 388 -249 388 -249 312 -249 c 0,21,22
 234 -249 234 -249 181 -199 c 128,-1,23
 128 -149 128 -149 128 -73 c 0,12,13
EndSplineSet
EndChar

StartChar: comma
Encoding: 44 44 362
Width: 528
VWidth: 1798
GlyphClass: 2
Flags: W
LayerCount: 2
Fore
SplineSet
403 -1 m 1,0,-1
 401 -205 l 2,1,2
 401 -321 401 -321 344 -436.5 c 128,-1,3
 287 -552 287 -552 201 -626 c 1,4,-1
 41 -547 l 1,5,6
 75 -479 75 -479 110.5 -406 c 128,-1,7
 146 -333 146 -333 146 -221 c 2,8,-1
 146 -1 l 1,9,-1
 403 -1 l 1,0,-1
EndSplineSet
EndChar

StartChar: commaaccent
Encoding: 65725 -1 363
Width: 454
GlyphClass: 1
Flags: W
LayerCount: 2
Fore
SplineSet
336 278 m 1,0,-1
 336 207 l 2,1,2
 336 110 336 110 294 12 c 128,-1,3
 252 -86 252 -86 194 -149 c 1,4,-1
 44 -70 l 1,5,6
 77 -16 77 -16 98 43.5 c 128,-1,7
 119 103 119 103 119 191 c 2,8,-1
 119 278 l 1,9,-1
 336 278 l 1,0,-1
EndSplineSet
EndChar

StartChar: commaaccentrotate
Encoding: 65726 -1 364
Width: 509
GlyphClass: 1
Flags: W
LayerCount: 2
Fore
SplineSet
125 1089 m 1,0,-1
 125 1227 l 2,1,2
 125 1334 125 1334 163 1421.5 c 128,-1,3
 201 1509 201 1509 267 1552 c 1,4,-1
 425 1477 l 1,5,6
 403 1433 403 1433 380 1365.5 c 128,-1,7
 357 1298 357 1298 357 1215 c 2,8,-1
 355 1089 l 1,9,-1
 125 1089 l 1,0,-1
EndSplineSet
EndChar

StartChar: copyright
Encoding: 169 169 365
Width: 1609
VWidth: 1798
GlyphClass: 2
Flags: W
LayerCount: 2
Fore
SplineSet
87 479 m 256,0,1
 87 638 87 638 142 774 c 128,-1,2
 197 910 197 910 295 1011.5 c 128,-1,3
 393 1113 393 1113 521.5 1169.5 c 128,-1,4
 650 1226 650 1226 797 1226 c 256,5,6
 944 1226 944 1226 1072.5 1169.5 c 128,-1,7
 1201 1113 1201 1113 1298.5 1011.5 c 128,-1,8
 1396 910 1396 910 1451.5 774 c 128,-1,9
 1507 638 1507 638 1507 479 c 256,10,11
 1507 320 1507 320 1451.5 184 c 128,-1,12
 1396 48 1396 48 1298.5 -54 c 128,-1,13
 1201 -156 1201 -156 1072.5 -213 c 128,-1,14
 944 -270 944 -270 797 -270 c 256,15,16
 650 -270 650 -270 521.5 -213 c 128,-1,17
 393 -156 393 -156 295 -54 c 128,-1,18
 197 48 197 48 142 184 c 128,-1,19
 87 320 87 320 87 479 c 256,0,1
208 479 m 256,20,21
 208 347 208 347 253.5 233 c 128,-1,22
 299 119 299 119 380 34 c 128,-1,23
 461 -51 461 -51 568 -98.5 c 128,-1,24
 675 -146 675 -146 797 -146 c 256,25,26
 919 -146 919 -146 1025.5 -98.5 c 128,-1,27
 1132 -51 1132 -51 1212.5 34 c 128,-1,28
 1293 119 1293 119 1339 233 c 128,-1,29
 1385 347 1385 347 1385 479 c 256,30,31
 1385 611 1385 611 1339 724.5 c 128,-1,32
 1293 838 1293 838 1212.5 923 c 128,-1,33
 1132 1008 1132 1008 1025.5 1055 c 128,-1,34
 919 1102 919 1102 797 1102 c 256,35,36
 675 1102 675 1102 568 1055 c 128,-1,37
 461 1008 461 1008 380 923 c 128,-1,38
 299 838 299 838 253.5 724.5 c 128,-1,39
 208 611 208 611 208 479 c 256,20,21
963 346 m 1,40,-1
 1117 346 l 1,41,42
 1117 189 1117 189 1027.5 110.5 c 128,-1,43
 938 32 938 32 783 32 c 0,44,45
 622 32 622 32 528 139.5 c 128,-1,46
 434 247 434 247 434 419 c 2,47,-1
 434 538 l 2,48,49
 434 710 434 710 528 817.5 c 128,-1,50
 622 925 622 925 783 925 c 0,51,52
 938 925 938 925 1028 846.5 c 128,-1,53
 1118 768 1118 768 1118 611 c 1,54,-1
 964 611 l 1,55,56
 964 707 964 707 918 749 c 128,-1,57
 872 791 872 791 783 791 c 0,58,59
 686 791 686 791 637 720 c 128,-1,60
 588 649 588 649 588 539 c 2,61,-1
 588 419 l 2,62,63
 588 307 588 307 637 236.5 c 128,-1,64
 686 166 686 166 783 166 c 0,65,66
 872 166 872 166 917.5 207.5 c 128,-1,67
 963 249 963 249 963 346 c 1,40,-1
EndSplineSet
EndChar

StartChar: crossbar
Encoding: 65727 -1 366
Width: 990
GlyphClass: 1
Flags: W
LayerCount: 2
Fore
SplineSet
855 836 m 1,0,-1
 855 651 l 1,1,-1
 139 651 l 1,2,-1
 139 836 l 1,3,-1
 855 836 l 1,0,-1
EndSplineSet
EndChar

StartChar: currency
Encoding: 164 164 367
Width: 1408
VWidth: 1798
GlyphClass: 2
Flags: W
LayerCount: 2
Fore
SplineSet
110 358 m 0,0,1
 110 462 110 462 139 554.5 c 128,-1,2
 168 647 168 647 219 724 c 1,3,-1
 75 871 l 1,4,-1
 214 1014 l 1,5,-1
 357 868 l 1,6,7
 431 923 431 923 519.5 953.5 c 128,-1,8
 608 984 608 984 706 984 c 256,9,10
 804 984 804 984 893 953 c 128,-1,11
 982 922 982 922 1055 867 c 1,12,-1
 1200 1015 l 1,13,-1
 1341 871 l 1,14,-1
 1193 720 l 1,15,16
 1244 644 1244 644 1272 552.5 c 128,-1,17
 1300 461 1300 461 1300 358 c 0,18,19
 1300 260 1300 260 1274 171.5 c 128,-1,20
 1248 83 1248 83 1202 9 c 1,21,-1
 1341 -133 l 1,22,-1
 1200 -277 l 1,23,-1
 1068 -142 l 1,24,25
 993 -202 993 -202 900.5 -236 c 128,-1,26
 808 -270 808 -270 706 -270 c 256,27,28
 604 -270 604 -270 511.5 -236.5 c 128,-1,29
 419 -203 419 -203 344 -143 c 1,30,-1
 214 -276 l 1,31,-1
 75 -133 l 1,32,-1
 211 5 l 1,33,34
 163 80 163 80 136.5 169.5 c 128,-1,35
 110 259 110 259 110 358 c 0,0,1
294 358 m 256,36,37
 294 234 294 234 349.5 135 c 128,-1,38
 405 36 405 36 498.5 -22 c 128,-1,39
 592 -80 592 -80 706 -80 c 256,40,41
 820 -80 820 -80 913 -22 c 128,-1,42
 1006 36 1006 36 1061.5 135 c 128,-1,43
 1117 234 1117 234 1117 358 c 256,44,45
 1117 482 1117 482 1061.5 580.5 c 128,-1,46
 1006 679 1006 679 913 737 c 128,-1,47
 820 795 820 795 706 795 c 256,48,49
 592 795 592 795 498.5 737 c 128,-1,50
 405 679 405 679 349.5 580.5 c 128,-1,51
 294 482 294 482 294 358 c 256,36,37
EndSplineSet
EndChar

StartChar: d
Encoding: 100 100 368
Width: 1152
VWidth: 1798
GlyphClass: 2
Flags: W
AnchorPoint: "Anchor-1" 617 -250 basechar 0
AnchorPoint: "Anchor-0" 549 1362 basechar 0
LayerCount: 2
Fore
SplineSet
60 278 m 2,0,-1
 60 299 l 2,1,2
 60 464 60 464 108.5 588.5 c 128,-1,3
 157 713 157 713 251.5 782.5 c 128,-1,4
 346 852 346 852 482 852 c 0,5,6
 561 852 561 852 623.5 821.5 c 128,-1,7
 686 791 686 791 734 736 c 1,8,-1
 734 1286 l 1,9,-1
 1048 1286 l 1,10,-1
 1048 -250 l 1,11,-1
 766 -250 l 1,12,-1
 751 -134 l 1,13,14
 701 -197 701 -197 634 -233.5 c 128,-1,15
 567 -270 567 -270 480 -270 c 0,16,17
 344 -270 344 -270 250.5 -198.5 c 128,-1,18
 157 -127 157 -127 108.5 -3 c 128,-1,19
 60 121 60 121 60 278 c 2,0,-1
372 299 m 2,20,-1
 372 278 l 2,21,22
 372 151 372 151 413 62 c 128,-1,23
 454 -27 454 -27 559 -27 c 0,24,25
 622 -27 622 -27 666 1 c 128,-1,26
 710 29 710 29 734 78 c 1,27,-1
 734 503 l 1,28,29
 684 609 684 609 561 609 c 0,30,31
 458 609 458 609 415 520 c 128,-1,32
 372 431 372 431 372 299 c 2,20,-1
EndSplineSet
Substitution2: "'unic' Unicase lookup 2 subtable" D
Substitution2: "'smcp' Lowercase to Small Capitals lookup 1 subtable" D.smcp
EndChar

StartChar: dagger
Encoding: 8224 8224 369
Width: 1095
GlyphClass: 2
Flags: W
LayerCount: 2
Fore
SplineSet
1043 1082 m 1,0,-1
 1043 831 l 1,1,-1
 702 831 l 1,2,-1
 702 0 l 1,3,-1
 390 0 l 1,4,-1
 390 831 l 1,5,-1
 54 831 l 1,6,-1
 54 1082 l 1,7,-1
 390 1082 l 1,8,-1
 390 1456 l 1,9,-1
 702 1456 l 1,10,-1
 702 1082 l 1,11,-1
 1043 1082 l 1,0,-1
EndSplineSet
EndChar

StartChar: daggerdbl
Encoding: 8225 8225 370
Width: 1190
GlyphClass: 2
Flags: W
LayerCount: 2
Fore
SplineSet
1090 243 m 1,0,-1
 1090 0 l 1,1,-1
 750 0 l 1,2,-1
 750 -416 l 1,3,-1
 436 -416 l 1,4,-1
 436 0 l 1,5,-1
 101 0 l 1,6,-1
 101 243 l 1,7,-1
 436 243 l 1,8,-1
 436 839 l 1,9,-1
 101 839 l 1,10,-1
 101 1082 l 1,11,-1
 436 1082 l 1,12,-1
 436 1456 l 1,13,-1
 750 1456 l 1,14,-1
 750 1082 l 1,15,-1
 1090 1082 l 1,16,-1
 1090 839 l 1,17,-1
 750 839 l 1,18,-1
 750 243 l 1,19,-1
 1090 243 l 1,0,-1
EndSplineSet
EndChar

StartChar: dcroat
Encoding: 273 273 372
Width: 1306
VWidth: 1798
GlyphClass: 2
Flags: W
AnchorPoint: "Anchor-1" 617 -250 basechar 0
AnchorPoint: "Anchor-0" 549 1361 basechar 0
LayerCount: 2
Fore
SplineSet
60 278 m 2,0,-1
 60 299 l 2,1,2
 60 464 60 464 108.5 588.5 c 128,-1,3
 157 713 157 713 251.5 782.5 c 128,-1,4
 346 852 346 852 482 852 c 0,5,6
 561 852 561 852 623.5 821.5 c 128,-1,7
 686 791 686 791 734 736 c 1,8,-1
 734 968 l 1,9,-1
 480 968 l 1,10,-1
 480 1153 l 1,11,-1
 734 1153 l 1,12,-1
 734 1286 l 1,13,-1
 1048 1286 l 1,14,-1
 1048 1153 l 1,15,-1
 1196 1153 l 1,16,-1
 1196 968 l 1,17,-1
 1048 968 l 1,18,-1
 1048 -250 l 1,19,-1
 766 -250 l 1,20,-1
 751 -134 l 1,21,22
 701 -197 701 -197 634 -233.5 c 128,-1,23
 567 -270 567 -270 480 -270 c 0,24,25
 344 -270 344 -270 250.5 -198.5 c 128,-1,26
 157 -127 157 -127 108.5 -3 c 128,-1,27
 60 121 60 121 60 278 c 2,0,-1
372 299 m 2,28,-1
 372 278 l 2,29,30
 372 151 372 151 413 62 c 128,-1,31
 454 -27 454 -27 559 -27 c 0,32,33
 622 -27 622 -27 666 1 c 128,-1,34
 710 29 710 29 734 78 c 1,35,-1
 734 503 l 1,36,37
 684 609 684 609 561 609 c 0,38,39
 458 609 458 609 415 520 c 128,-1,40
 372 431 372 431 372 299 c 2,28,-1
EndSplineSet
Substitution2: "'unic' Unicase lookup 2 subtable" Dcroat
Substitution2: "'smcp' Lowercase to Small Capitals lookup 1 subtable" Dcroat.smcp
EndChar

StartChar: degree
Encoding: 176 176 373
Width: 806
VWidth: 1798
GlyphClass: 2
Flags: W
LayerCount: 2
Fore
SplineSet
127 949 m 256,0,1
 127 1025 127 1025 164.5 1088 c 128,-1,2
 202 1151 202 1151 265 1188.5 c 128,-1,3
 328 1226 328 1226 403 1226 c 256,4,5
 478 1226 478 1226 539.5 1188.5 c 128,-1,6
 601 1151 601 1151 638 1088 c 128,-1,7
 675 1025 675 1025 675 949 c 256,8,9
 675 873 675 873 638 810.5 c 128,-1,10
 601 748 601 748 539.5 711.5 c 128,-1,11
 478 675 478 675 403 675 c 256,12,13
 328 675 328 675 265 711.5 c 128,-1,14
 202 748 202 748 164.5 810.5 c 128,-1,15
 127 873 127 873 127 949 c 256,0,1
276 949 m 0,16,17
 276 895 276 895 313.5 859.5 c 128,-1,18
 351 824 351 824 403 824 c 0,19,20
 454 824 454 824 489.5 859 c 128,-1,21
 525 894 525 894 525 949 c 256,22,23
 525 1004 525 1004 489.5 1040.5 c 128,-1,24
 454 1077 454 1077 403 1077 c 0,25,26
 351 1077 351 1077 313.5 1040.5 c 128,-1,27
 276 1004 276 1004 276 949 c 0,16,17
EndSplineSet
EndChar

StartChar: dieresis
Encoding: 168 168 374
Width: 988
VWidth: 1798
GlyphClass: 2
Flags: W
LayerCount: 2
Fore
SplineSet
96 1116 m 0,0,1
 96 1171 96 1171 138 1208 c 128,-1,2
 180 1245 180 1245 240 1245 c 0,3,4
 301 1245 301 1245 343 1208 c 128,-1,5
 385 1171 385 1171 385 1116 c 0,6,7
 385 1062 385 1062 343 1025 c 128,-1,8
 301 988 301 988 240 988 c 0,9,10
 180 988 180 988 138 1025 c 128,-1,11
 96 1062 96 1062 96 1116 c 0,0,1
601 1116 m 0,12,13
 601 1170 601 1170 643 1207 c 128,-1,14
 685 1244 685 1244 745 1244 c 0,15,16
 806 1244 806 1244 847.5 1207 c 128,-1,17
 889 1170 889 1170 889 1116 c 0,18,19
 889 1061 889 1061 847.5 1024 c 128,-1,20
 806 987 806 987 745 987 c 0,21,22
 685 987 685 987 643 1024 c 128,-1,23
 601 1061 601 1061 601 1116 c 0,12,13
EndSplineSet
EndChar

StartChar: divide
Encoding: 247 247 375
Width: 1198
VWidth: 1798
GlyphClass: 2
Flags: W
LayerCount: 2
Fore
SplineSet
446 643 m 0,0,1
 446 708 446 708 492 754.5 c 128,-1,2
 538 801 538 801 603 801 c 256,3,4
 668 801 668 801 714 754.5 c 128,-1,5
 760 708 760 708 760 643 c 256,6,7
 760 578 760 578 714 532 c 128,-1,8
 668 486 668 486 603 486 c 256,9,10
 538 486 538 486 492 531 c 128,-1,11
 446 576 446 576 446 643 c 0,0,1
115 155 m 1,12,-1
 115 390 l 1,13,-1
 1083 390 l 1,14,-1
 1083 155 l 1,15,-1
 115 155 l 1,12,-1
446 -103 m 0,16,17
 446 -38 446 -38 492 8.5 c 128,-1,18
 538 55 538 55 603 55 c 256,19,20
 668 55 668 55 714 8.5 c 128,-1,21
 760 -38 760 -38 760 -103 c 0,22,23
 760 -167 760 -167 714 -213.5 c 128,-1,24
 668 -260 668 -260 603 -260 c 256,25,26
 538 -260 538 -260 492 -214.5 c 128,-1,27
 446 -169 446 -169 446 -103 c 0,16,17
EndSplineSet
EndChar

StartChar: dollar
Encoding: 36 36 376
Width: 1181
VWidth: 1798
GlyphClass: 2
Flags: W
LayerCount: 2
Fore
SplineSet
776 134 m 0,0,1
 776 217 776 217 733 263.5 c 128,-1,2
 690 310 690 310 586 352 c 0,3,4
 454 404 454 404 354 461 c 128,-1,5
 254 518 254 518 198 602.5 c 128,-1,6
 142 687 142 687 142 820 c 0,7,8
 142 991 142 991 254.5 1099 c 128,-1,9
 367 1207 367 1207 550 1224 c 1,10,-1
 550 1436 l 1,11,-1
 708 1436 l 1,12,-1
 708 1220 l 1,13,14
 883 1195 883 1195 988 1074.5 c 128,-1,15
 1093 954 1093 954 1093 756 c 1,16,-1
 780 756 l 1,17,18
 780 875 780 875 733 931 c 128,-1,19
 686 987 686 987 611 987 c 0,20,21
 528 987 528 987 491 938 c 128,-1,22
 454 889 454 889 454 819 c 0,23,24
 454 746 454 746 495 700.5 c 128,-1,25
 536 655 536 655 646 608 c 0,26,27
 776 555 776 555 875.5 496.5 c 128,-1,28
 975 438 975 438 1032 353 c 128,-1,29
 1089 268 1089 268 1089 136 c 0,30,31
 1089 -40 1089 -40 979 -144 c 128,-1,32
 869 -248 869 -248 688 -267 c 1,33,-1
 688 -466 l 1,34,-1
 530 -466 l 1,35,-1
 530 -267 l 1,36,37
 417 -255 417 -255 315.5 -204 c 128,-1,38
 214 -153 214 -153 150.5 -52 c 128,-1,39
 87 49 87 49 87 211 c 1,40,-1
 400 211 l 1,41,42
 400 118 400 118 430 65.5 c 128,-1,43
 460 13 460 13 508 -9 c 128,-1,44
 556 -31 556 -31 609 -31 c 0,45,46
 694 -31 694 -31 735 16.5 c 128,-1,47
 776 64 776 64 776 134 c 0,0,1
EndSplineSet
Substitution2: "'c2sc' Capitals to Small Capitals lookup 0 subtable" dollar.smcp
Position2: "'cpsp' Capital Spacing lookup 0 subtable" dx=36 dy=0 dh=72 dv=0
EndChar

StartChar: dollar.smcp
Encoding: 65728 -1 377
Width: 1109
GlyphClass: 2
Flags: W
LayerCount: 2
Fore
SplineSet
738 315 m 0,0,1
 738 369 738 369 692.5 404 c 128,-1,2
 647 439 647 439 526 467 c 0,3,4
 375 502 375 502 280.5 546.5 c 128,-1,5
 186 591 186 591 141.5 660 c 128,-1,6
 97 729 97 729 97 835 c 0,7,8
 97 930 97 930 147.5 1004 c 128,-1,9
 198 1078 198 1078 287 1123.5 c 128,-1,10
 376 1169 376 1169 490 1179 c 1,11,-1
 490 1395 l 1,12,-1
 648 1395 l 1,13,-1
 648 1175 l 1,14,15
 820 1154 820 1154 928 1062 c 128,-1,16
 1036 970 1036 970 1036 817 c 1,17,-1
 723 817 l 1,18,19
 723 873 723 873 677 916.5 c 128,-1,20
 631 960 631 960 548 960 c 0,21,22
 466 960 466 960 428.5 922.5 c 128,-1,23
 391 885 391 885 391 848 c 0,24,25
 391 800 391 800 435 770 c 128,-1,26
 479 740 479 740 589 711 c 1,27,28
 813 663 813 663 922.5 576.5 c 128,-1,29
 1032 490 1032 490 1032 324 c 0,30,31
 1032 178 1032 178 928 91 c 128,-1,32
 824 4 824 4 648 -12 c 1,33,-1
 648 -237 l 1,34,-1
 490 -237 l 1,35,-1
 490 -12 l 1,36,37
 378 -2 378 -2 279 42 c 128,-1,38
 180 86 180 86 118.5 167.5 c 128,-1,39
 57 249 57 249 57 374 c 1,40,-1
 371 374 l 1,41,42
 371 283 371 283 422.5 243.5 c 128,-1,43
 474 204 474 204 587 204 c 0,44,45
 676 204 676 204 707 241.5 c 128,-1,46
 738 279 738 279 738 315 c 0,0,1
EndSplineSet
EndChar

StartChar: dotaccent
Encoding: 729 729 378
Width: 553
VWidth: 1798
GlyphClass: 2
Flags: W
LayerCount: 2
Fore
SplineSet
113 1126 m 0,0,1
 113 1188 113 1188 156 1227.5 c 128,-1,2
 199 1267 199 1267 269 1267 c 0,3,4
 340 1267 340 1267 383 1227.5 c 128,-1,5
 426 1188 426 1188 426 1126 c 0,6,7
 426 1066 426 1066 383 1026.5 c 128,-1,8
 340 987 340 987 269 987 c 0,9,10
 199 987 199 987 156 1026.5 c 128,-1,11
 113 1066 113 1066 113 1126 c 0,0,1
EndSplineSet
EndChar

StartChar: dotbelow
Encoding: 803 803 379
Width: 0
VWidth: 1798
GlyphClass: 4
Flags: W
AnchorPoint: "Anchor-2" -597 -604 basemark 0
AnchorPoint: "Anchor-2" -597 -250 mark 0
AnchorPoint: "Anchor-1" -597 -250 mark 0
LayerCount: 2
Fore
SplineSet
-772 -483 m 0,0,1
 -772 -422 -772 -422 -724.5 -381 c 128,-1,2
 -677 -340 -677 -340 -598 -340 c 256,3,4
 -519 -340 -519 -340 -471 -381 c 128,-1,5
 -423 -422 -423 -422 -423 -483 c 0,6,7
 -423 -543 -423 -543 -471 -583.5 c 128,-1,8
 -519 -624 -519 -624 -598 -624 c 256,9,10
 -677 -624 -677 -624 -724.5 -583.5 c 128,-1,11
 -772 -543 -772 -543 -772 -483 c 0,0,1
EndSplineSet
EndChar

StartChar: dotlessi
Encoding: 305 305 380
Width: 572
VWidth: 1798
GlyphClass: 2
Flags: W
AnchorPoint: "Anchor-1" 249 -240 basechar 0
AnchorPoint: "Anchor-0" 252 1038 basechar 0
LayerCount: 2
Fore
SplineSet
442 832 m 1,0,-1
 442 -250 l 1,1,-1
 129 -250 l 1,2,-1
 129 832 l 1,3,-1
 442 832 l 1,0,-1
EndSplineSet
Substitution2: "'smcp' Lowercase to Small Capitals lookup 1 subtable" I.smcp
EndChar

StartChar: e
Encoding: 101 101 381
Width: 1111
VWidth: 1798
GlyphClass: 2
Flags: W
AnchorPoint: "Anchor-1" 568 -250 basechar 0
AnchorPoint: "Anchor-0" 565 1040 basechar 0
LayerCount: 2
Fore
SplineSet
614 -270 m 0,0,1
 442 -270 442 -270 319.5 -198.5 c 128,-1,2
 197 -127 197 -127 131.5 -8 c 128,-1,3
 66 111 66 111 66 255 c 2,4,-1
 66 293 l 2,5,6
 66 454 66 454 126 580.5 c 128,-1,7
 186 707 186 707 300.5 779.5 c 128,-1,8
 415 852 415 852 580 852 c 0,9,10
 811 852 811 852 937.5 707.5 c 128,-1,11
 1064 563 1064 563 1064 322 c 2,12,-1
 1064 194 l 1,13,-1
 384 194 l 1,14,15
 400 93 400 93 465 32.5 c 128,-1,16
 530 -28 530 -28 634 -28 c 0,17,18
 708 -28 708 -28 775 0.5 c 128,-1,19
 842 29 842 29 891 90 c 1,20,-1
 1037 -77 l 1,21,22
 987 -150 987 -150 879 -210 c 128,-1,23
 771 -270 771 -270 614 -270 c 0,0,1
578 609 m 0,24,25
 488 609 488 609 443.5 549 c 128,-1,26
 399 489 399 489 386 395 c 1,27,-1
 758 395 l 1,28,-1
 758 419 l 2,29,30
 757 504 757 504 712 556.5 c 128,-1,31
 667 609 667 609 578 609 c 0,24,25
EndSplineSet
Substitution2: "'unic' Unicase lookup 2 subtable" E.unic
Substitution2: "'smcp' Lowercase to Small Capitals lookup 1 subtable" E.smcp
EndChar

StartChar: eight
Encoding: 56 56 389
Width: 1181
VWidth: 1798
GlyphClass: 2
Flags: W
LayerCount: 2
Fore
SplineSet
1091 150 m 0,0,1
 1091 12 1091 12 1026 -81.5 c 128,-1,2
 961 -175 961 -175 848.5 -222.5 c 128,-1,3
 736 -270 736 -270 592 -270 c 0,4,5
 449 -270 449 -270 335.5 -222.5 c 128,-1,6
 222 -175 222 -175 156 -81.5 c 128,-1,7
 90 12 90 12 90 150 c 0,8,9
 90 271 90 271 153 361 c 128,-1,10
 216 451 216 451 322 501 c 1,11,12
 228 549 228 549 174.5 631 c 128,-1,13
 121 713 121 713 121 819 c 0,14,15
 121 952 121 952 181.5 1042.5 c 128,-1,16
 242 1133 242 1133 348 1180 c 128,-1,17
 454 1227 454 1227 590 1227 c 0,18,19
 728 1227 728 1227 834 1180 c 128,-1,20
 940 1133 940 1133 1000 1042.5 c 128,-1,21
 1060 952 1060 952 1060 819 c 0,22,23
 1060 713 1060 713 1006.5 631 c 128,-1,24
 953 549 953 549 861 500 c 1,25,26
 966 451 966 451 1028.5 361 c 128,-1,27
 1091 271 1091 271 1091 150 c 0,0,1
748 803 m 0,28,29
 748 886 748 886 707 935 c 128,-1,30
 666 984 666 984 590 984 c 0,31,32
 515 984 515 984 474.5 936 c 128,-1,33
 434 888 434 888 434 803 c 0,34,35
 434 719 434 719 475 668 c 128,-1,36
 516 617 516 617 592 617 c 256,37,38
 668 617 668 617 708 668 c 128,-1,39
 748 719 748 719 748 803 c 0,28,29
777 173 m 0,40,41
 777 268 777 268 725.5 321.5 c 128,-1,42
 674 375 674 375 590 375 c 0,43,44
 507 375 507 375 455 321.5 c 128,-1,45
 403 268 403 268 403 173 c 0,46,47
 403 79 403 79 455 26 c 128,-1,48
 507 -27 507 -27 592 -27 c 0,49,50
 676 -27 676 -27 726.5 26 c 128,-1,51
 777 79 777 79 777 173 c 0,40,41
EndSplineSet
Substitution2: "'ss01' Style Set 1 lookup 35 subtable" uni06F8
Substitution2: "'numr' Numerators lookup 21 subtable" eight.frac
Substitution2: "'dnom' Denominators lookup 20 subtable" eight.sup
Substitution2: "'frac' Diagonal Fractions lookup 19 subtable" eight.frac
Substitution2: "Single Substitution lookup 18 subtable" eight.sup
Substitution2: "'lnum' Lining Figures lookup 15 subtable" eight.pnum
Substitution2: "'onum' Oldstyle Figures lookup 14 subtable" eight.tnum
Substitution2: "'c2sc' Capitals to Small Capitals lookup 0 subtable" eight.smcp
Position2: "'cpsp' Capital Spacing lookup 0 subtable" dx=36 dy=0 dh=72 dv=0
EndChar

StartChar: eight.smcp
Encoding: 65731 -1 392
Width: 1070
GlyphClass: 2
Flags: W
LayerCount: 2
Fore
SplineSet
997 322 m 0,0,1
 997 209 997 209 937.5 133.5 c 128,-1,2
 878 58 878 58 774 21 c 128,-1,3
 670 -16 670 -16 536 -16 c 0,4,5
 405 -16 405 -16 300 21 c 128,-1,6
 195 58 195 58 134.5 133.5 c 128,-1,7
 74 209 74 209 74 322 c 0,8,9
 74 420 74 420 127 490 c 128,-1,10
 180 560 180 560 269 600 c 1,11,12
 191 639 191 639 146 703 c 128,-1,13
 101 767 101 767 101 851 c 0,14,15
 101 960 101 960 157 1033.5 c 128,-1,16
 213 1107 213 1107 311 1144.5 c 128,-1,17
 409 1182 409 1182 534 1182 c 0,18,19
 726 1182 726 1182 847 1098 c 128,-1,20
 968 1014 968 1014 968 851 c 0,21,22
 968 767 968 767 924 703 c 128,-1,23
 880 639 880 639 802 600 c 1,24,25
 892 560 892 560 944.5 489.5 c 128,-1,26
 997 419 997 419 997 322 c 0,0,1
656 831 m 0,27,28
 656 939 656 939 534 939 c 0,29,30
 414 939 414 939 414 831 c 0,31,32
 414 779 414 779 444.5 747 c 128,-1,33
 475 715 475 715 536 715 c 0,34,35
 598 715 598 715 627 747 c 128,-1,36
 656 779 656 779 656 831 c 0,27,28
684 352 m 0,37,38
 684 413 684 413 642 443 c 128,-1,39
 600 473 600 473 534 473 c 0,40,41
 470 473 470 473 428.5 443 c 128,-1,42
 387 413 387 413 387 352 c 0,43,44
 387 294 387 294 429 260 c 128,-1,45
 471 226 471 226 536 226 c 0,46,47
 602 226 602 226 643 260 c 128,-1,48
 684 294 684 294 684 352 c 0,37,38
EndSplineSet
EndChar

StartChar: eight.sup
Encoding: 65732 -1 393
Width: 765
GlyphClass: 2
Flags: W
LayerCount: 2
Fore
SplineSet
695 219 m 0,0,1
 695 103 695 103 607.5 46 c 128,-1,2
 520 -11 520 -11 384 -11 c 0,3,4
 250 -11 250 -11 160 46 c 128,-1,5
 70 103 70 103 70 219 c 0,6,7
 70 285 70 285 105.5 332 c 128,-1,8
 141 379 141 379 201 407 c 1,9,10
 148 433 148 433 118 476.5 c 128,-1,11
 88 520 88 520 88 576 c 0,12,13
 88 687 88 687 171.5 744 c 128,-1,14
 255 801 255 801 382 801 c 0,15,16
 512 801 512 801 594.5 744 c 128,-1,17
 677 687 677 687 677 576 c 0,18,19
 677 520 677 520 647.5 476.5 c 128,-1,20
 618 433 618 433 566 407 c 1,21,22
 626 379 626 379 660.5 331.5 c 128,-1,23
 695 284 695 284 695 219 c 0,0,1
463 562 m 0,24,25
 463 633 463 633 382 633 c 0,26,27
 302 633 302 633 302 562 c 0,28,29
 302 528 302 528 323 507 c 128,-1,30
 344 486 344 486 384 486 c 0,31,32
 425 486 425 486 444 507 c 128,-1,33
 463 528 463 528 463 562 c 0,24,25
482 240 m 0,34,35
 482 280 482 280 454 299 c 128,-1,36
 426 318 426 318 382 318 c 0,37,38
 339 318 339 318 311.5 299 c 128,-1,39
 284 280 284 280 284 240 c 0,40,41
 284 201 284 201 312 179 c 128,-1,42
 340 157 340 157 384 157 c 256,43,44
 428 157 428 157 455 179 c 128,-1,45
 482 201 482 201 482 240 c 0,34,35
EndSplineSet
EndChar

StartChar: emdash
Encoding: 8212 8212 397
Width: 1600
GlyphClass: 2
Flags: W
LayerCount: 2
Fore
SplineSet
1481 405 m 1,0,-1
 119 405 l 1,1,-1
 119 632 l 1,2,-1
 1481 632 l 1,3,-1
 1481 405 l 1,0,-1
EndSplineSet
EndChar

StartChar: endash
Encoding: 8211 8211 398
Width: 1345
GlyphClass: 2
Flags: W
LayerCount: 2
Fore
SplineSet
1226 405 m 1,0,-1
 119 405 l 1,1,-1
 119 632 l 1,2,-1
 1226 632 l 1,3,-1
 1226 405 l 1,0,-1
EndSplineSet
EndChar

StartChar: eng
Encoding: 331 331 399
Width: 1153
VWidth: 1798
GlyphClass: 2
Flags: W
AnchorPoint: "Anchor-1" 563 -240 basechar 0
AnchorPoint: "Anchor-0" 573 1040 basechar 0
LayerCount: 2
Fore
SplineSet
1056 -277 m 2,0,1
 1056 -476 1056 -476 950.5 -581.5 c 128,-1,2
 845 -687 845 -687 660 -687 c 0,3,4
 620 -687 620 -687 584 -683.5 c 128,-1,5
 548 -680 548 -680 507 -670 c 1,6,-1
 521 -431 l 1,7,8
 546 -437 546 -437 568 -440 c 128,-1,9
 590 -443 590 -443 621 -443 c 0,10,11
 742 -443 742 -443 742 -277 c 2,12,-1
 742 406 l 2,13,14
 742 522 742 522 703.5 565.5 c 128,-1,15
 665 609 665 609 596 609 c 0,16,17
 535 609 535 609 489 587 c 128,-1,18
 443 565 443 565 412 526 c 1,19,-1
 412 -250 l 1,20,-1
 99 -250 l 1,21,-1
 99 832 l 1,22,-1
 393 832 l 1,23,-1
 406 679 l 1,24,25
 458 760 458 760 536.5 806 c 128,-1,26
 615 852 615 852 713 852 c 0,27,28
 866 852 866 852 961 750.5 c 128,-1,29
 1056 649 1056 649 1056 406 c 2,30,-1
 1056 -277 l 2,0,1
EndSplineSet
Substitution2: "'unic' Unicase lookup 2 subtable" Eng
Substitution2: "'smcp' Lowercase to Small Capitals lookup 1 subtable" Eng.smcp
EndChar

StartChar: eogonek
Encoding: 281 281 400
Width: 1111
VWidth: 1798
GlyphClass: 2
Flags: W
AnchorPoint: "Anchor-1" 568 -250 basechar 0
AnchorPoint: "Anchor-0" 565 1040 basechar 0
LayerCount: 2
Fore
SplineSet
892 -592 m 1,0,1
 867 -607 867 -607 827 -621.5 c 128,-1,2
 787 -636 787 -636 727 -636 c 0,3,4
 629 -636 629 -636 560.5 -582.5 c 128,-1,5
 492 -529 492 -529 492 -426 c 0,6,7
 492 -385 492 -385 504.5 -344.5 c 128,-1,8
 517 -304 517 -304 547 -267 c 1,9,10
 396 -253 396 -253 288 -179.5 c 128,-1,11
 180 -106 180 -106 123 7.5 c 128,-1,12
 66 121 66 121 66 255 c 2,13,-1
 66 293 l 2,14,15
 66 454 66 454 126 580.5 c 128,-1,16
 186 707 186 707 300.5 779.5 c 128,-1,17
 415 852 415 852 580 852 c 0,18,19
 811 852 811 852 937.5 707.5 c 128,-1,20
 1064 563 1064 563 1064 322 c 2,21,-1
 1064 194 l 1,22,-1
 384 194 l 1,23,24
 400 93 400 93 465 32.5 c 128,-1,25
 530 -28 530 -28 634 -28 c 0,26,27
 708 -28 708 -28 775 0.5 c 128,-1,28
 842 29 842 29 891 90 c 1,29,-1
 1037 -77 l 1,30,31
 1011 -115 1011 -115 968 -151.5 c 128,-1,32
 925 -188 925 -188 868 -215 c 1,33,-1
 870 -216 l 1,34,35
 792 -258 792 -258 756 -296.5 c 128,-1,36
 720 -335 720 -335 720 -387 c 0,37,38
 720 -415 720 -415 734 -433 c 128,-1,39
 748 -451 748 -451 783 -451 c 0,40,41
 809 -451 809 -451 826.5 -444.5 c 128,-1,42
 844 -438 844 -438 857 -432 c 1,43,-1
 892 -592 l 1,0,1
578 609 m 0,44,45
 488 609 488 609 443.5 549 c 128,-1,46
 399 489 399 489 386 395 c 1,47,-1
 758 395 l 1,48,-1
 758 419 l 2,49,50
 757 504 757 504 712 556.5 c 128,-1,51
 667 609 667 609 578 609 c 0,44,45
EndSplineSet
Substitution2: "'locl' Localized Forms in Latin lookup 8 subtable" eogonek.NAV
Substitution2: "'unic' Unicase lookup 2 subtable" Eogonek.unic
Substitution2: "'smcp' Lowercase to Small Capitals lookup 1 subtable" Eogonek.smcp
EndChar

StartChar: equal
Encoding: 61 61 402
Width: 1158
VWidth: 1798
GlyphClass: 2
Flags: W
LayerCount: 2
Fore
SplineSet
1035 354 m 1,0,-1
 134 354 l 1,1,-1
 134 580 l 1,2,-1
 1035 580 l 1,3,-1
 1035 354 l 1,0,-1
1035 -52 m 1,4,-1
 134 -52 l 1,5,-1
 134 174 l 1,6,-1
 1035 174 l 1,7,-1
 1035 -52 l 1,4,-1
EndSplineSet
EndChar

StartChar: estimated
Encoding: 8494 8494 403
Width: 1294
GlyphClass: 2
Flags: W
LayerCount: 2
Fore
SplineSet
1039 198 m 1,0,-1
 1041 94 l 1,1,2
 957 42 957 42 863 11 c 128,-1,3
 769 -20 769 -20 671 -20 c 0,4,5
 562 -20 562 -20 467 24 c 128,-1,6
 372 68 372 68 300 145 c 128,-1,7
 228 222 228 222 187.5 324 c 128,-1,8
 147 426 147 426 147 541 c 0,9,10
 147 657 147 657 191.5 758.5 c 128,-1,11
 236 860 236 860 311 937 c 128,-1,12
 386 1014 386 1014 479.5 1058 c 128,-1,13
 573 1102 573 1102 671 1102 c 0,14,15
 808 1102 808 1102 920.5 1031.5 c 128,-1,16
 1033 961 1033 961 1099.5 839 c 128,-1,17
 1166 717 1166 717 1166 561 c 2,18,-1
 1166 514 l 1,19,-1
 398 514 l 1,20,-1
 398 186 l 1,21,22
 453 135 453 135 523 105.5 c 128,-1,23
 593 76 593 76 671 76 c 0,24,25
 764 76 764 76 857.5 105.5 c 128,-1,26
 951 135 951 135 1039 198 c 1,0,-1
671 1008 m 0,27,28
 596 1008 596 1008 525.5 975 c 128,-1,29
 455 942 455 942 398 886 c 1,30,-1
 398 609 l 1,31,-1
 938 609 l 1,32,-1
 938 895 l 1,33,34
 886 947 886 947 817 977.5 c 128,-1,35
 748 1008 748 1008 671 1008 c 0,27,28
EndSplineSet
EndChar

StartChar: eth
Encoding: 240 240 404
Width: 1172
VWidth: 1798
GlyphClass: 2
Flags: W
LayerCount: 2
Fore
SplineSet
232 1099 m 1,0,-1
 330 1329 l 1,1,2
 567 1281 567 1281 746 1151 c 1,3,-1
 912 1256 l 1,4,-1
 989 1141 l 1,5,-1
 856 1057 l 1,6,7
 978 935 978 935 1046.5 769.5 c 128,-1,8
 1115 604 1115 604 1115 402 c 2,9,-1
 1115 334 l 2,10,11
 1115 155 1115 155 1046 18.5 c 128,-1,12
 977 -118 977 -118 857 -194 c 128,-1,13
 737 -270 737 -270 584 -270 c 0,14,15
 432 -270 432 -270 317 -204.5 c 128,-1,16
 202 -139 202 -139 138.5 -28.5 c 128,-1,17
 75 82 75 82 75 218 c 0,18,19
 75 442 75 442 191.5 578 c 128,-1,20
 308 714 308 714 527 714 c 0,21,22
 660 714 660 714 764 645 c 1,23,24
 739 722 739 722 698 785.5 c 128,-1,25
 657 849 657 849 604 899 c 1,26,-1
 419 783 l 1,27,-1
 342 898 l 1,28,-1
 488 990 l 1,29,30
 429 1027 429 1027 364 1054 c 128,-1,31
 299 1081 299 1081 232 1099 c 1,0,-1
387 218 m 0,32,33
 387 115 387 115 440 44 c 128,-1,34
 493 -27 493 -27 588 -27 c 0,35,36
 695 -27 695 -27 748 66.5 c 128,-1,37
 801 160 801 160 801 300 c 2,38,-1
 801 404 l 2,39,40
 801 409 801 409 801 412 c 0,41,42
 773 443 773 443 722 465 c 128,-1,43
 671 487 671 487 596 487 c 0,44,45
 490 487 490 487 438.5 415 c 128,-1,46
 387 343 387 343 387 218 c 0,32,33
EndSplineSet
Substitution2: "'unic' Unicase lookup 2 subtable" Eth
Substitution2: "'smcp' Lowercase to Small Capitals lookup 1 subtable" Eth.smcp
EndChar

StartChar: exclam
Encoding: 33 33 405
Width: 607
VWidth: 1798
GlyphClass: 2
Flags: W
LayerCount: 2
Fore
SplineSet
157 1156 m 1,0,-1
 455 1156 l 1,1,-1
 437 239 l 1,2,-1
 176 239 l 1,3,-1
 157 1156 l 1,0,-1
120 -73 m 0,4,5
 120 2 120 2 174 52.5 c 128,-1,6
 228 103 228 103 304 103 c 0,7,8
 381 103 381 103 434 52.5 c 128,-1,9
 487 2 487 2 487 -73 c 0,10,11
 487 -149 487 -149 433.5 -199 c 128,-1,12
 380 -249 380 -249 304 -249 c 0,13,14
 226 -249 226 -249 173 -199 c 128,-1,15
 120 -149 120 -149 120 -73 c 0,4,5
EndSplineSet
EndChar

StartChar: exclamdown
Encoding: 161 161 407
Width: 597
VWidth: 1798
GlyphClass: 2
Flags: W
LayerCount: 2
Fore
SplineSet
475 693 m 0,0,1
 475 626 475 626 427 580 c 128,-1,2
 379 534 379 534 300 534 c 0,3,4
 222 534 222 534 174 580 c 128,-1,5
 126 626 126 626 126 693 c 0,6,7
 126 761 126 761 174 806.5 c 128,-1,8
 222 852 222 852 300 852 c 0,9,10
 379 852 379 852 427 806.5 c 128,-1,11
 475 761 475 761 475 693 c 0,0,1
133 -620 m 1,12,-1
 171 383 l 1,13,-1
 428 383 l 1,14,-1
 466 -620 l 1,15,-1
 133 -620 l 1,12,-1
EndSplineSet
EndChar

StartChar: f
Encoding: 102 102 408
Width: 738
VWidth: 1798
GlyphClass: 2
Flags: W
AnchorPoint: "Anchor-1" 330 -240 basechar 0
AnchorPoint: "Anchor-0" 502 1504 basechar 0
LayerCount: 2
Fore
SplineSet
493 -250 m 1,0,-1
 179 -250 l 1,1,-1
 179 613 l 1,2,-1
 21 613 l 1,3,-1
 21 832 l 1,4,-1
 179 832 l 1,5,-1
 179 924 l 2,6,7
 179 1110 179 1110 288.5 1208.5 c 128,-1,8
 398 1307 398 1307 584 1307 c 0,9,10
 626 1307 626 1307 664.5 1301 c 128,-1,11
 703 1295 703 1295 738 1287 c 1,12,-1
 738 1054 l 1,13,14
 701 1063 701 1063 651 1063 c 0,15,16
 493 1063 493 1063 493 924 c 2,17,-1
 493 832 l 1,18,-1
 707 832 l 1,19,-1
 707 613 l 1,20,-1
 493 613 l 1,21,-1
 493 -250 l 1,0,-1
EndSplineSet
Substitution2: "'unic' Unicase lookup 2 subtable" F
Substitution2: "'smcp' Lowercase to Small Capitals lookup 1 subtable" F.smcp
EndChar

StartChar: f_f_i
Encoding: 64259 64259 410
Width: 1941
GlyphClass: 3
Flags: W
LayerCount: 2
Fore
SplineSet
493 0 m 1,0,-1
 179 0 l 1,1,-1
 179 863 l 1,2,-1
 21 863 l 1,3,-1
 21 1082 l 1,4,-1
 179 1082 l 1,5,-1
 179 1174 l 2,6,7
 179 1360 179 1360 288.5 1458.5 c 128,-1,8
 398 1557 398 1557 584 1557 c 0,9,10
 626 1557 626 1557 664.5 1551 c 128,-1,11
 703 1545 703 1545 738 1537 c 1,12,-1
 738 1304 l 1,13,14
 701 1313 701 1313 651 1313 c 0,15,16
 493 1313 493 1313 493 1174 c 2,17,-1
 493 1082 l 1,18,-1
 844 1082 l 1,19,-1
 844 1121 l 2,20,21
 844 1333 844 1333 973 1445 c 128,-1,22
 1102 1557 1102 1557 1336 1557 c 0,23,24
 1424 1557 1424 1557 1506.5 1541 c 128,-1,25
 1589 1525 1589 1525 1677 1499 c 1,26,-1
 1633 1250 l 1,27,28
 1576 1267 1576 1267 1512 1281 c 128,-1,29
 1448 1295 1448 1295 1355 1295 c 0,30,31
 1157 1295 1157 1295 1157 1121 c 2,32,-1
 1157 1082 l 1,33,-1
 1371 1082 l 1,34,-1
 1371 863 l 1,35,-1
 1157 863 l 1,36,-1
 1157 0 l 1,37,-1
 844 0 l 1,38,-1
 844 863 l 1,39,-1
 493 863 l 1,40,-1
 493 0 l 1,0,-1
1822 1082 m 1,41,-1
 1822 0 l 1,42,-1
 1508 0 l 1,43,-1
 1508 1082 l 1,44,-1
 1822 1082 l 1,41,-1
EndSplineSet
Ligature2: "'liga' Standard Ligatures in Latin lookup 10 subtable" f f i
EndChar

StartChar: f_f_l
Encoding: 64260 64260 411
Width: 1941
GlyphClass: 3
Flags: W
LayerCount: 2
Fore
SplineSet
493 0 m 1,0,-1
 179 0 l 1,1,-1
 179 863 l 1,2,-1
 21 863 l 1,3,-1
 21 1082 l 1,4,-1
 179 1082 l 1,5,-1
 179 1174 l 2,6,7
 179 1360 179 1360 288.5 1458.5 c 128,-1,8
 398 1557 398 1557 584 1557 c 0,9,10
 626 1557 626 1557 664.5 1551 c 128,-1,11
 703 1545 703 1545 738 1537 c 1,12,-1
 738 1304 l 1,13,14
 701 1313 701 1313 651 1313 c 0,15,16
 493 1313 493 1313 493 1174 c 2,17,-1
 493 1082 l 1,18,-1
 844 1082 l 1,19,-1
 844 1157 l 2,20,21
 844 1351 844 1351 966 1454 c 128,-1,22
 1088 1557 1088 1557 1308 1557 c 0,23,24
 1371 1557 1371 1557 1464.5 1553 c 128,-1,25
 1558 1549 1558 1549 1654.5 1542.5 c 128,-1,26
 1751 1536 1751 1536 1822 1530 c 1,27,-1
 1822 0 l 1,28,-1
 1508 0 l 1,29,-1
 1508 1305 l 1,30,31
 1425 1313 1425 1313 1354 1313 c 0,32,33
 1260 1313 1260 1313 1208.5 1273 c 128,-1,34
 1157 1233 1157 1233 1157 1157 c 2,35,-1
 1157 1082 l 1,36,-1
 1371 1082 l 1,37,-1
 1371 863 l 1,38,-1
 1157 863 l 1,39,-1
 1157 0 l 1,40,-1
 844 0 l 1,41,-1
 844 863 l 1,42,-1
 493 863 l 1,43,-1
 493 0 l 1,0,-1
EndSplineSet
Ligature2: "'liga' Standard Ligatures in Latin lookup 11 subtable" f f l
EndChar

StartChar: f_l
Encoding: 64258 64258 412
Width: 1277
GlyphClass: 3
Flags: W
LayerCount: 2
Fore
SplineSet
493 0 m 1,0,-1
 179 0 l 1,1,-1
 179 863 l 1,2,-1
 21 863 l 1,3,-1
 21 1082 l 1,4,-1
 179 1082 l 1,5,-1
 179 1157 l 2,6,7
 179 1351 179 1351 301.5 1454 c 128,-1,8
 424 1557 424 1557 644 1557 c 0,9,10
 707 1557 707 1557 800.5 1553 c 128,-1,11
 894 1549 894 1549 990.5 1542.5 c 128,-1,12
 1087 1536 1087 1536 1157 1530 c 1,13,-1
 1157 0 l 1,14,-1
 844 0 l 1,15,-1
 844 1305 l 1,16,17
 761 1313 761 1313 690 1313 c 0,18,19
 595 1313 595 1313 544 1273 c 128,-1,20
 493 1233 493 1233 493 1157 c 2,21,-1
 493 1082 l 1,22,-1
 707 1082 l 1,23,-1
 707 863 l 1,24,-1
 493 863 l 1,25,-1
 493 0 l 1,0,-1
EndSplineSet
Ligature2: "'liga' Standard Ligatures in Latin lookup 11 subtable" f l
EndChar

StartChar: fi
Encoding: 64257 64257 413
Width: 1276
GlyphClass: 3
Flags: W
LayerCount: 2
Fore
SplineSet
492 0 m 1,0,-1
 178 0 l 1,1,-1
 178 863 l 1,2,-1
 19 863 l 1,3,-1
 19 1082 l 1,4,-1
 178 1082 l 1,5,-1
 178 1121 l 2,6,7
 178 1333 178 1333 307.5 1445 c 128,-1,8
 437 1557 437 1557 670 1557 c 0,9,10
 759 1557 759 1557 841.5 1541 c 128,-1,11
 924 1525 924 1525 1012 1499 c 1,12,-1
 968 1250 l 1,13,14
 910 1267 910 1267 846.5 1281 c 128,-1,15
 783 1295 783 1295 690 1295 c 0,16,17
 492 1295 492 1295 492 1121 c 2,18,-1
 492 1082 l 1,19,-1
 705 1082 l 1,20,-1
 705 863 l 1,21,-1
 492 863 l 1,22,-1
 492 0 l 1,0,-1
1156 1082 m 1,23,-1
 1156 0 l 1,24,-1
 843 0 l 1,25,-1
 843 1082 l 1,26,-1
 1156 1082 l 1,23,-1
EndSplineSet
Ligature2: "'liga' Standard Ligatures in Latin lookup 10 subtable" f i
EndChar

StartChar: figuredash
Encoding: 8210 8210 414
Width: 1025
GlyphClass: 2
Flags: W
LayerCount: 2
Fore
SplineSet
906 405 m 1,0,-1
 119 405 l 1,1,-1
 119 632 l 1,2,-1
 906 632 l 1,3,-1
 906 405 l 1,0,-1
EndSplineSet
EndChar

StartChar: five
Encoding: 53 53 415
Width: 1181
VWidth: 1798
GlyphClass: 2
Flags: W
LayerCount: 2
Fore
SplineSet
374 406 m 1,0,-1
 126 465 l 1,1,-1
 211 1206 l 1,2,-1
 1045 1206 l 1,3,-1
 1045 959 l 1,4,-1
 467 959 l 1,5,-1
 432 652 l 1,6,7
 459 668 459 668 517.5 687.5 c 128,-1,8
 576 707 576 707 647 707 c 0,9,10
 861 707 861 707 977.5 579 c 128,-1,11
 1094 451 1094 451 1094 218 c 0,12,13
 1094 91 1094 91 1040.5 -20.5 c 128,-1,14
 987 -132 987 -132 876.5 -201 c 128,-1,15
 766 -270 766 -270 596 -270 c 0,16,17
 468 -270 468 -270 353 -219 c 128,-1,18
 238 -168 238 -168 166 -71.5 c 128,-1,19
 94 25 94 25 93 159 c 1,20,-1
 405 159 l 1,21,22
 412 72 412 72 462.5 22.5 c 128,-1,23
 513 -27 513 -27 594 -27 c 0,24,25
 700 -27 700 -27 740.5 50 c 128,-1,26
 781 127 781 127 781 237 c 0,27,28
 781 350 781 350 728.5 417.5 c 128,-1,29
 676 485 676 485 560 485 c 0,30,31
 484 485 484 485 441 460 c 128,-1,32
 398 435 398 435 374 406 c 1,0,-1
EndSplineSet
Substitution2: "'ss01' Style Set 1 lookup 35 subtable" uni06F5
Substitution2: "'numr' Numerators lookup 21 subtable" five.frac
Substitution2: "'dnom' Denominators lookup 20 subtable" five.sup
Substitution2: "'frac' Diagonal Fractions lookup 19 subtable" five.frac
Substitution2: "Single Substitution lookup 18 subtable" five.sup
Substitution2: "'onum' Oldstyle Figures lookup 14 subtable" five.tnum
Substitution2: "'c2sc' Capitals to Small Capitals lookup 0 subtable" five.smcp
Position2: "'cpsp' Capital Spacing lookup 0 subtable" dx=36 dy=0 dh=72 dv=0
EndChar

StartChar: five.onum
Encoding: 65737 -1 417
Width: 1131
GlyphClass: 1
Flags: W
LayerCount: 2
Fore
SplineSet
403 368 m 1,0,-1
 142 385 l 1,1,-1
 208 1164 l 1,2,-1
 1045 1164 l 1,3,-1
 1045 917 l 1,4,-1
 464 917 l 1,5,-1
 431 621 l 1,6,7
 506 665 506 665 649 666 c 0,8,9
 864 666 864 666 978 537.5 c 128,-1,10
 1092 409 1092 409 1092 177 c 0,11,12
 1092 40 1092 40 1031.5 -81.5 c 128,-1,13
 971 -203 971 -203 846.5 -278 c 128,-1,14
 722 -353 722 -353 531 -353 c 0,15,16
 418 -353 418 -353 308.5 -322 c 128,-1,17
 199 -291 199 -291 106 -231 c 1,18,-1
 200 -11 l 1,19,20
 247 -46 247 -46 322 -77.5 c 128,-1,21
 397 -109 397 -109 493 -109 c 0,22,23
 600 -109 600 -109 663 -68.5 c 128,-1,24
 726 -28 726 -28 753 37 c 128,-1,25
 780 102 780 102 780 175 c 0,26,27
 780 292 780 292 729 367.5 c 128,-1,28
 678 443 678 443 565 443 c 0,29,30
 463 443 463 443 403 368 c 1,0,-1
EndSplineSet
EndChar

StartChar: five.smcp
Encoding: 65738 -1 418
Width: 1070
GlyphClass: 2
Flags: W
LayerCount: 2
Fore
SplineSet
342 505 m 1,0,-1
 93 564 l 1,1,-1
 174 1165 l 1,2,-1
 923 1165 l 1,3,-1
 923 928 l 1,4,-1
 428 928 l 1,5,-1
 398 727 l 1,6,7
 418 735 418 735 473.5 750.5 c 128,-1,8
 529 766 529 766 591 766 c 0,9,10
 787 766 787 766 888.5 668.5 c 128,-1,11
 990 571 990 571 990 392 c 0,12,13
 990 289 990 289 940.5 195.5 c 128,-1,14
 891 102 891 102 789.5 43 c 128,-1,15
 688 -16 688 -16 531 -16 c 0,16,17
 414 -16 414 -16 308 26 c 128,-1,18
 202 68 202 68 135 145.5 c 128,-1,19
 68 223 68 223 67 330 c 1,20,-1
 382 330 l 1,21,22
 384 272 384 272 424 249 c 128,-1,23
 464 226 464 226 531 226 c 0,24,25
 620 226 620 226 649 276.5 c 128,-1,26
 678 327 678 327 678 393 c 0,27,28
 678 470 678 470 635.5 515.5 c 128,-1,29
 593 561 593 561 507 561 c 0,30,31
 434 561 434 561 396.5 540.5 c 128,-1,32
 359 520 359 520 342 505 c 1,0,-1
EndSplineSet
EndChar

StartChar: five.sup
Encoding: 65739 -1 419
Width: 765
GlyphClass: 2
Flags: W
LayerCount: 2
Fore
SplineSet
251 340 m 1,0,-1
 82 381 l 1,1,-1
 137 789 l 1,2,-1
 646 789 l 1,3,-1
 646 625 l 1,4,-1
 310 625 l 1,5,-1
 290 493 l 1,6,7
 303 498 303 498 341 509 c 128,-1,8
 379 520 379 520 421 520 c 0,9,10
 553 520 553 520 622 454 c 128,-1,11
 691 388 691 388 691 266 c 0,12,13
 691 197 691 197 657.5 133.5 c 128,-1,14
 624 70 624 70 555 29.5 c 128,-1,15
 486 -11 486 -11 379 -11 c 0,16,17
 300 -11 300 -11 228 17.5 c 128,-1,18
 156 46 156 46 110.5 99 c 128,-1,19
 65 152 65 152 65 224 c 1,20,-1
 281 224 l 1,21,22
 281 187 281 187 308 172 c 128,-1,23
 335 157 335 157 379 157 c 0,24,25
 440 157 440 157 459 190.5 c 128,-1,26
 478 224 478 224 478 267 c 0,27,28
 478 318 478 318 450 347.5 c 128,-1,29
 422 377 422 377 363 377 c 0,30,31
 314 377 314 377 288.5 363.5 c 128,-1,32
 263 350 263 350 251 340 c 1,0,-1
EndSplineSet
EndChar

StartChar: florin
Encoding: 402 402 422
Width: 748
VWidth: 1798
GlyphClass: 2
Flags: W
LayerCount: 2
Fore
SplineSet
702 832 m 1,0,-1
 702 613 l 1,1,-1
 490 613 l 1,2,-1
 489 -294 l 2,3,4
 489 -484 489 -484 388.5 -585.5 c 128,-1,5
 288 -687 288 -687 112 -687 c 0,6,7
 72 -687 72 -687 36.5 -683.5 c 128,-1,8
 1 -680 1 -680 -40 -670 c 1,9,-1
 -25 -432 l 1,10,11
 -10 -437 -10 -437 18 -440.5 c 128,-1,12
 46 -444 46 -444 65 -444 c 0,13,14
 130 -444 130 -444 153 -405.5 c 128,-1,15
 176 -367 176 -367 176 -294 c 2,16,-1
 176 613 l 1,17,-1
 17 613 l 1,18,-1
 17 832 l 1,19,-1
 176 832 l 1,20,-1
 176 924 l 2,21,22
 176 1110 176 1110 285 1208.5 c 128,-1,23
 394 1307 394 1307 590 1307 c 0,24,25
 631 1307 631 1307 671.5 1301 c 128,-1,26
 712 1295 712 1295 754 1286 c 1,27,-1
 728 1054 l 1,28,29
 706 1059 706 1059 684 1061.5 c 128,-1,30
 662 1064 662 1064 629 1064 c 0,31,32
 490 1064 490 1064 490 924 c 2,33,-1
 490 832 l 1,34,-1
 702 832 l 1,0,-1
EndSplineSet
EndChar

StartChar: four
Encoding: 52 52 423
Width: 1181
VWidth: 1798
GlyphClass: 2
Flags: W
LayerCount: 2
Fore
SplineSet
1123 306 m 1,0,-1
 1123 64 l 1,1,-1
 967 64 l 1,2,-1
 967 -250 l 1,3,-1
 655 -250 l 1,4,-1
 655 64 l 1,5,-1
 75 64 l 1,6,-1
 58 254 l 1,7,-1
 654 1206 l 1,8,-1
 967 1206 l 1,9,-1
 967 306 l 1,10,-1
 1123 306 l 1,0,-1
362 306 m 1,11,-1
 655 306 l 1,12,-1
 655 798 l 1,13,-1
 633 762 l 1,14,-1
 362 306 l 1,11,-1
EndSplineSet
Substitution2: "'ss01' Style Set 1 lookup 35 subtable" uni06F4
Substitution2: "'numr' Numerators lookup 21 subtable" four.frac
Substitution2: "'dnom' Denominators lookup 20 subtable" four.sup
Substitution2: "'frac' Diagonal Fractions lookup 19 subtable" four.frac
Substitution2: "Single Substitution lookup 18 subtable" four.sup
Substitution2: "'onum' Oldstyle Figures lookup 14 subtable" four.tnum
Substitution2: "'c2sc' Capitals to Small Capitals lookup 0 subtable" four.smcp
Position2: "'cpsp' Capital Spacing lookup 0 subtable" dx=36 dy=0 dh=72 dv=0
EndChar

StartChar: four.onum
Encoding: 65742 -1 425
Width: 1186
GlyphClass: 1
Flags: W
LayerCount: 2
Fore
SplineSet
1129 243 m 1,0,-1
 1129 -1 l 1,1,-1
 973 -1 l 1,2,-1
 973 -298 l 1,3,-1
 660 -298 l 1,4,-1
 660 -1 l 1,5,-1
 56 -1 l 1,6,-1
 39 191 l 1,7,-1
 659 1164 l 1,8,-1
 973 1164 l 1,9,-1
 973 243 l 1,10,-1
 1129 243 l 1,0,-1
344 243 m 1,11,-1
 660 243 l 1,12,-1
 660 755 l 1,13,-1
 638 718 l 1,14,-1
 344 243 l 1,11,-1
EndSplineSet
EndChar

StartChar: four.smcp
Encoding: 65743 -1 426
Width: 1070
GlyphClass: 2
Flags: W
LayerCount: 2
Fore
SplineSet
1015 481 m 1,0,-1
 1015 237 l 1,1,-1
 886 237 l 1,2,-1
 886 0 l 1,3,-1
 574 0 l 1,4,-1
 574 237 l 1,5,-1
 74 237 l 1,6,-1
 54 435 l 1,7,-1
 574 1162 l 1,8,-1
 574 1165 l 1,9,-1
 886 1165 l 1,10,-1
 886 481 l 1,11,-1
 1015 481 l 1,0,-1
351 481 m 1,12,-1
 574 481 l 1,13,-1
 574 792 l 1,14,-1
 555 764 l 1,15,-1
 351 481 l 1,12,-1
EndSplineSet
EndChar

StartChar: four.sup
Encoding: 65744 -1 427
Width: 765
GlyphClass: 2
Flags: W
LayerCount: 2
Fore
SplineSet
706 329 m 1,0,-1
 706 159 l 1,1,-1
 621 159 l 1,2,-1
 621 0 l 1,3,-1
 407 0 l 1,4,-1
 407 159 l 1,5,-1
 68 159 l 1,6,-1
 54 297 l 1,7,-1
 407 789 l 1,8,-1
 621 789 l 1,9,-1
 621 329 l 1,10,-1
 706 329 l 1,0,-1
256 329 m 1,11,-1
 407 329 l 1,12,-1
 407 535 l 1,13,-1
 392 512 l 1,14,-1
 256 329 l 1,11,-1
EndSplineSet
EndChar

StartChar: fraction
Encoding: 8260 8260 429
Width: 908
GlyphClass: 2
Flags: W
LayerCount: 2
Fore
SplineSet
882 1247 m 1,0,-1
 171 109 l 1,1,-1
 22 186 l 1,2,-1
 733 1324 l 1,3,-1
 882 1247 l 1,0,-1
EndSplineSet
EndChar

StartChar: g
Encoding: 103 103 431
Width: 1174
VWidth: 1798
GlyphClass: 2
Flags: W
AnchorPoint: "Anchor-1" 554 -697 basechar 0
AnchorPoint: "Anchor-0" 556 1040 basechar 0
LayerCount: 2
Fore
SplineSet
63 278 m 2,0,-1
 63 299 l 2,1,2
 63 464 63 464 116 588.5 c 128,-1,3
 169 713 169 713 268 782.5 c 128,-1,4
 367 852 367 852 503 852 c 0,5,6
 597 852 597 852 663 821 c 128,-1,7
 729 790 729 790 774 734 c 1,8,-1
 786 832 l 1,9,-1
 1070 832 l 1,10,-1
 1070 -211 l 2,11,12
 1070 -360 1070 -360 1002.5 -464 c 128,-1,13
 935 -568 935 -568 814.5 -622 c 128,-1,14
 694 -676 694 -676 534 -676 c 0,15,16
 464 -676 464 -676 388.5 -658 c 128,-1,17
 313 -640 313 -640 245.5 -603 c 128,-1,18
 178 -566 178 -566 133 -510 c 1,19,-1
 266 -326 l 1,20,21
 311 -378 311 -378 375.5 -410.5 c 128,-1,22
 440 -443 440 -443 522 -443 c 0,23,24
 635 -443 635 -443 695.5 -382.5 c 128,-1,25
 756 -322 756 -322 756 -211 c 2,26,-1
 756 -159 l 1,27,28
 709 -211 709 -211 646.5 -240.5 c 128,-1,29
 584 -270 584 -270 501 -270 c 0,30,31
 366 -270 366 -270 267.5 -198.5 c 128,-1,32
 169 -127 169 -127 116 -3 c 128,-1,33
 63 121 63 121 63 278 c 2,0,-1
375 299 m 2,34,-1
 375 278 l 2,35,36
 375 151 375 151 425.5 62 c 128,-1,37
 476 -27 476 -27 580 -27 c 0,38,39
 644 -27 644 -27 687 -4 c 128,-1,40
 730 19 730 19 756 60 c 1,41,-1
 756 521 l 1,42,43
 703 609 703 609 582 609 c 0,44,45
 479 609 479 609 427 520 c 128,-1,46
 375 431 375 431 375 299 c 2,34,-1
EndSplineSet
Substitution2: "'salt' Stylistic Alternatives lookup 13 subtable" g.alt
Substitution2: "'unic' Unicase lookup 2 subtable" G
Substitution2: "'smcp' Lowercase to Small Capitals lookup 1 subtable" G.smcp
EndChar

StartChar: g.alt
Encoding: 65746 -1 432
Width: 1083
GlyphClass: 2
Flags: W
LayerCount: 2
Fore
SplineSet
41 712 m 2,0,-1
 41 734 l 2,1,2
 41 844 41 844 100.5 926.5 c 128,-1,3
 160 1009 160 1009 268 1055.5 c 128,-1,4
 376 1102 376 1102 520 1102 c 0,5,6
 614 1102 614 1102 694 1082 c 1,7,-1
 1054 1082 l 1,8,-1
 1056 929 l 1,9,-1
 939 929 l 1,10,11
 1000 844 1000 844 1000 734 c 2,12,-1
 1000 712 l 2,13,14
 1000 609 1000 609 941 525.5 c 128,-1,15
 882 442 882 442 775 392.5 c 128,-1,16
 668 343 668 343 522 343 c 0,17,18
 448 343 448 343 380 357 c 1,19,20
 359 333 359 333 359 303 c 0,21,22
 359 258 359 258 396 244.5 c 128,-1,23
 433 231 433 231 486 231 c 2,24,-1
 674 231 l 2,25,26
 853 231 853 231 953 151.5 c 128,-1,27
 1053 72 1053 72 1053 -72 c 0,28,29
 1053 -156 1053 -156 987.5 -240.5 c 128,-1,30
 922 -325 922 -325 797 -381.5 c 128,-1,31
 672 -438 672 -438 494 -438 c 0,32,33
 330 -438 330 -438 216.5 -399.5 c 128,-1,34
 103 -361 103 -361 45 -298 c 128,-1,35
 -13 -235 -13 -235 -13 -162 c 0,36,37
 -13 -71 -13 -71 47.5 -9.5 c 128,-1,38
 108 52 108 52 189 86 c 1,39,40
 144 135 144 135 144 211 c 0,41,42
 144 276 144 276 179 321 c 128,-1,43
 214 366 214 366 261 396 c 1,44,45
 157 445 157 445 99 528 c 128,-1,46
 41 611 41 611 41 712 c 2,0,-1
352 734 m 2,47,-1
 352 712 l 2,48,49
 352 655 352 655 396.5 612 c 128,-1,50
 441 569 441 569 522 569 c 256,51,52
 603 569 603 569 646.5 612 c 128,-1,53
 690 655 690 655 690 712 c 2,54,-1
 690 734 l 2,55,56
 690 795 690 795 645.5 835.5 c 128,-1,57
 601 876 601 876 520 876 c 0,58,59
 441 876 441 876 396.5 835.5 c 128,-1,60
 352 795 352 795 352 734 c 2,47,-1
280 -89 m 0,61,62
 280 -139 280 -139 332 -176 c 128,-1,63
 384 -213 384 -213 494 -213 c 0,64,65
 628 -213 628 -213 685.5 -172.5 c 128,-1,66
 743 -132 743 -132 743 -89 c 0,67,68
 743 -54 743 -54 716.5 -24 c 128,-1,69
 690 6 690 6 619 6 c 2,70,-1
 429 6 l 2,71,72
 380 6 380 6 337 14 c 1,73,74
 313 -1 313 -1 296.5 -28 c 128,-1,75
 280 -55 280 -55 280 -89 c 0,61,62
EndSplineSet
EndChar

StartChar: germandbls
Encoding: 223 223 437
Width: 1312
VWidth: 1798
GlyphClass: 2
Flags: W
LayerCount: 2
Fore
SplineSet
448 846 m 2,0,-1
 448 -250 l 1,1,-1
 136 -250 l 1,2,-1
 136 851 l 2,3,4
 136 1078 136 1078 268 1194 c 128,-1,5
 400 1310 400 1310 629 1310 c 0,6,7
 747 1310 747 1310 845.5 1268 c 128,-1,8
 944 1226 944 1226 1003 1143 c 128,-1,9
 1062 1060 1062 1060 1062 937 c 0,10,11
 1062 864 1062 864 1046.5 821 c 128,-1,12
 1031 778 1031 778 1011.5 747 c 128,-1,13
 992 716 992 716 976.5 679.5 c 128,-1,14
 961 643 961 643 961 583 c 0,15,16
 961 544 961 544 990 508 c 128,-1,17
 1019 472 1019 472 1062 433 c 128,-1,18
 1105 394 1105 394 1148 347.5 c 128,-1,19
 1191 301 1191 301 1220 243 c 128,-1,20
 1249 185 1249 185 1249 110 c 0,21,22
 1249 -68 1249 -68 1130.5 -169 c 128,-1,23
 1012 -270 1012 -270 787 -270 c 0,24,25
 711 -270 711 -270 632.5 -255 c 128,-1,26
 554 -240 554 -240 513 -216 c 1,27,-1
 570 22 l 1,28,29
 601 5 601 5 656.5 -11.5 c 128,-1,30
 712 -28 712 -28 785 -28 c 0,31,32
 854 -28 854 -28 895.5 8 c 128,-1,33
 937 44 937 44 937 106 c 0,34,35
 937 154 937 154 908 191.5 c 128,-1,36
 879 229 879 229 836 264.5 c 128,-1,37
 793 300 793 300 749.5 341 c 128,-1,38
 706 382 706 382 677 436.5 c 128,-1,39
 648 491 648 491 648 568 c 0,40,41
 648 636 648 636 663.5 679 c 128,-1,42
 679 722 679 722 698.5 755 c 128,-1,43
 718 788 718 788 733.5 826 c 128,-1,44
 749 864 749 864 749 922 c 0,45,46
 749 987 749 987 707 1027.5 c 128,-1,47
 665 1068 665 1068 600 1068 c 0,48,49
 531 1068 531 1068 489.5 1019.5 c 128,-1,50
 448 971 448 971 448 846 c 2,0,-1
EndSplineSet
Substitution2: "'smcp' Lowercase to Small Capitals lookup 1 subtable" Germandbls.smcp
EndChar

StartChar: grave
Encoding: 96 96 438
Width: 686
VWidth: 1798
GlyphClass: 2
Flags: W
LayerCount: 2
Fore
SplineSet
390 1286 m 1,0,-1
 588 975 l 1,1,-1
 333 975 l 1,2,-1
 55 1286 l 1,3,-1
 390 1286 l 1,0,-1
EndSplineSet
EndChar

StartChar: gravecomb
Encoding: 768 768 439
Width: 0
VWidth: 1798
GlyphClass: 4
Flags: W
AnchorPoint: "Anchor-3" -530 1391 basemark 0
AnchorPoint: "Anchor-3" -530 1040 mark 0
AnchorPoint: "Anchor-0" -530 1040 mark 0
LayerCount: 2
Fore
SplineSet
-568 1286 m 1,0,-1
 -369 975 l 1,1,-1
 -624 975 l 1,2,-1
 -902 1286 l 1,3,-1
 -568 1286 l 1,0,-1
EndSplineSet
EndChar

StartChar: greater
Encoding: 62 62 440
Width: 1054
VWidth: 1798
GlyphClass: 2
Flags: W
LayerCount: 2
Fore
SplineSet
115 167 m 1,0,-1
 680 369 l 1,1,-1
 115 565 l 1,2,-1
 115 853 l 1,3,-1
 991 490 l 1,4,-1
 991 243 l 1,5,-1
 115 -120 l 1,6,-1
 115 167 l 1,0,-1
EndSplineSet
EndChar

StartChar: greaterequal
Encoding: 8805 8805 441
Width: 1054
GlyphClass: 2
Flags: W
LayerCount: 2
Fore
SplineSet
115 544 m 1,0,-1
 680 711 l 1,1,-1
 115 875 l 1,2,-1
 115 1110 l 1,3,-1
 991 810 l 1,4,-1
 991 608 l 1,5,-1
 115 308 l 1,6,-1
 115 544 l 1,0,-1
987 227 m 1,7,-1
 987 1 l 1,8,-1
 115 1 l 1,9,-1
 115 227 l 1,10,-1
 987 227 l 1,7,-1
EndSplineSet
EndChar

StartChar: guillemotleft
Encoding: 171 171 442
Width: 977
VWidth: 1798
GlyphClass: 2
Flags: W
LayerCount: 2
Fore
SplineSet
500 -143 m 1,0,-1
 355 -277 l 1,1,2
 215 -119 215 -119 149 7 c 128,-1,3
 83 133 83 133 83 252 c 0,4,5
 83 372 83 372 149 498 c 128,-1,6
 215 624 215 624 355 780 c 1,7,-1
 500 645 l 1,8,9
 418 518 418 518 376.5 427 c 128,-1,10
 335 336 335 336 335 252 c 256,11,12
 335 168 335 168 376.5 76.5 c 128,-1,13
 418 -15 418 -15 500 -143 c 1,0,-1
895 -143 m 1,14,-1
 750 -277 l 1,15,16
 610 -119 610 -119 539.5 6.5 c 128,-1,17
 469 132 469 132 469 252 c 256,18,19
 469 372 469 372 539.5 498 c 128,-1,20
 610 624 610 624 750 780 c 1,21,-1
 894 645 l 1,22,23
 812 518 812 518 771 427 c 128,-1,24
 730 336 730 336 730 252 c 256,25,26
 730 168 730 168 771.5 76.5 c 128,-1,27
 813 -15 813 -15 895 -143 c 1,14,-1
EndSplineSet
EndChar

StartChar: guillemotright
Encoding: 187 187 443
Width: 977
VWidth: 1798
GlyphClass: 2
Flags: W
LayerCount: 2
Fore
SplineSet
477 -143 m 1,0,1
 559 -15 559 -15 600 76.5 c 128,-1,2
 641 168 641 168 641 252 c 256,3,4
 641 336 641 336 600.5 427 c 128,-1,5
 560 518 560 518 477 645 c 1,6,-1
 621 780 l 1,7,8
 762 624 762 624 828 498 c 128,-1,9
 894 372 894 372 894 252 c 0,10,11
 894 133 894 133 828 7 c 128,-1,12
 762 -119 762 -119 622 -277 c 1,13,-1
 477 -143 l 1,0,1
82 -143 m 1,14,15
 164 -15 164 -15 205 76.5 c 128,-1,16
 246 168 246 168 246 252 c 256,17,18
 246 336 246 336 205.5 427 c 128,-1,19
 165 518 165 518 82 645 c 1,20,-1
 226 780 l 1,21,22
 367 624 367 624 437 498 c 128,-1,23
 507 372 507 372 507 252 c 256,24,25
 507 132 507 132 437 6.5 c 128,-1,26
 367 -119 367 -119 227 -277 c 1,27,-1
 82 -143 l 1,14,15
EndSplineSet
EndChar

StartChar: guilsinglleft
Encoding: 8249 8249 444
Width: 645
GlyphClass: 2
Flags: W
LayerCount: 2
Fore
SplineSet
580 920 m 1,0,-1
 344 521 l 1,1,-1
 580 122 l 1,2,-1
 385 122 l 1,3,-1
 108 512 l 1,4,-1
 108 531 l 1,5,-1
 385 920 l 1,6,-1
 580 920 l 1,0,-1
EndSplineSet
EndChar

StartChar: guilsinglright
Encoding: 8250 8250 445
Width: 620
GlyphClass: 2
Flags: W
LayerCount: 2
Fore
SplineSet
79 121 m 1,0,-1
 314 521 l 1,1,-1
 79 920 l 1,2,-1
 275 920 l 1,3,-1
 551 530 l 1,4,-1
 551 511 l 1,5,-1
 275 121 l 1,6,-1
 79 121 l 1,0,-1
EndSplineSet
EndChar

StartChar: h
Encoding: 104 104 446
Width: 1151
VWidth: 1798
GlyphClass: 2
Flags: W
AnchorPoint: "Anchor-1" 588 -240 basechar 0
AnchorPoint: "Anchor-0" 501 1361 basechar 0
LayerCount: 2
Fore
SplineSet
409 1286 m 1,0,-1
 409 714 l 1,1,2
 461 779 461 779 533 815.5 c 128,-1,3
 605 852 605 852 692 852 c 0,4,5
 799 852 799 852 880 810.5 c 128,-1,6
 961 769 961 769 1006.5 676 c 128,-1,7
 1052 583 1052 583 1052 428 c 2,8,-1
 1052 -250 l 1,9,-1
 738 -250 l 1,10,-1
 738 430 l 2,11,12
 738 534 738 534 695 571.5 c 128,-1,13
 652 609 652 609 574 609 c 0,14,15
 512 609 512 609 472 586.5 c 128,-1,16
 432 564 432 564 409 526 c 1,17,-1
 409 -250 l 1,18,-1
 97 -250 l 1,19,-1
 97 1286 l 1,20,-1
 409 1286 l 1,0,-1
EndSplineSet
Substitution2: "'unic' Unicase lookup 2 subtable" H
Substitution2: "'smcp' Lowercase to Small Capitals lookup 1 subtable" H.smcp
EndChar

StartChar: hbar
Encoding: 295 295 447
Width: 1181
VWidth: 1798
GlyphClass: 2
Flags: W
AnchorPoint: "Anchor-1" 588 -240 basechar 0
AnchorPoint: "Anchor-0" 501 1361 basechar 0
LayerCount: 2
Fore
SplineSet
690 1149 m 1,0,-1
 690 965 l 1,1,-1
 439 965 l 1,2,-1
 439 714 l 1,3,4
 491 779 491 779 563 815.5 c 128,-1,5
 635 852 635 852 722 852 c 0,6,7
 829 852 829 852 910 810.5 c 128,-1,8
 991 769 991 769 1036.5 676 c 128,-1,9
 1082 583 1082 583 1082 428 c 2,10,-1
 1082 -250 l 1,11,-1
 768 -250 l 1,12,-1
 768 430 l 2,13,14
 768 534 768 534 725 571.5 c 128,-1,15
 682 609 682 609 604 609 c 0,16,17
 542 609 542 609 502 586.5 c 128,-1,18
 462 564 462 564 439 526 c 1,19,-1
 439 -250 l 1,20,-1
 127 -250 l 1,21,-1
 127 965 l 1,22,-1
 -26 965 l 1,23,-1
 -26 1149 l 1,24,-1
 127 1149 l 1,25,-1
 127 1286 l 1,26,-1
 439 1286 l 1,27,-1
 439 1149 l 1,28,-1
 690 1149 l 1,0,-1
EndSplineSet
Substitution2: "'unic' Unicase lookup 2 subtable" Hbar
Substitution2: "'smcp' Lowercase to Small Capitals lookup 1 subtable" Hbar.smcp
EndChar

StartChar: hook
Encoding: 777 777 449
Width: 0
VWidth: 1798
GlyphClass: 4
Flags: W
AnchorPoint: "Anchor-3" -590 1471 basemark 0
AnchorPoint: "Anchor-3" -590 1024 mark 0
AnchorPoint: "Anchor-0" -590 1024 mark 0
LayerCount: 2
Fore
SplineSet
-497 1021 m 1,0,-1
 -734 1021 l 1,1,-1
 -754 1151 l 1,2,3
 -680 1154 -680 1154 -648 1169.5 c 128,-1,4
 -616 1185 -616 1185 -616 1216 c 0,5,6
 -616 1256 -616 1256 -655 1269.5 c 128,-1,7
 -694 1283 -694 1283 -755 1283 c 1,8,-1
 -748 1422 l 1,9,10
 -551 1422 -551 1422 -449 1370 c 128,-1,11
 -347 1318 -347 1318 -347 1227 c 0,12,13
 -347 1159 -347 1159 -394.5 1125.5 c 128,-1,14
 -442 1092 -442 1092 -498 1084 c 1,15,-1
 -497 1021 l 1,0,-1
EndSplineSet
EndChar

StartChar: hungarumlaut
Encoding: 733 733 450
Width: 865
VWidth: 1798
GlyphClass: 2
Flags: W
LayerCount: 2
Fore
SplineSet
420 985 m 1,0,-1
 646 1285 l 1,1,-1
 913 1285 l 1,2,-1
 647 985 l 1,3,-1
 420 985 l 1,0,-1
50 985 m 1,4,-1
 243 1285 l 1,5,-1
 509 1285 l 1,6,-1
 275 985 l 1,7,-1
 50 985 l 1,4,-1
EndSplineSet
EndChar

StartChar: hyphen
Encoding: 45 45 451
Width: 989
VWidth: 1798
GlyphClass: 2
Flags: W
LayerCount: 2
Fore
SplineSet
874 151 m 1,0,-1
 115 151 l 1,1,-1
 115 386 l 1,2,-1
 874 386 l 1,3,-1
 874 151 l 1,0,-1
EndSplineSet
EndChar

StartChar: hyphendot
Encoding: 8231 8231 453
Width: 566
GlyphClass: 2
Flags: W
LayerCount: 2
Fore
SplineSet
109 627 m 0,0,1
 109 695 109 695 157 738.5 c 128,-1,2
 205 782 205 782 283 782 c 0,3,4
 362 782 362 782 410 738.5 c 128,-1,5
 458 695 458 695 458 627 c 0,6,7
 458 560 458 560 410 516.5 c 128,-1,8
 362 473 362 473 283 473 c 0,9,10
 205 473 205 473 157 516.5 c 128,-1,11
 109 560 109 560 109 627 c 0,0,1
EndSplineSet
EndChar

StartChar: i
Encoding: 105 105 455
Width: 553
VWidth: 1798
GlyphClass: 2
Flags: W
AnchorPoint: "Anchor-1" 249 -240 basechar 0
AnchorPoint: "Anchor-0" 251 1350 basechar 0
LayerCount: 2
Fore
SplineSet
101 1112 m 0,0,1
 101 1180 101 1180 149 1223.5 c 128,-1,2
 197 1267 197 1267 275 1267 c 0,3,4
 354 1267 354 1267 402 1223.5 c 128,-1,5
 450 1180 450 1180 450 1112 c 0,6,7
 450 1045 450 1045 402 1001.5 c 128,-1,8
 354 958 354 958 275 958 c 0,9,10
 197 958 197 958 149 1001.5 c 128,-1,11
 101 1045 101 1045 101 1112 c 0,0,1
433 832 m 1,12,-1
 433 -250 l 1,13,-1
 120 -250 l 1,14,-1
 120 832 l 1,15,-1
 433 832 l 1,12,-1
EndSplineSet
Substitution2: "Single Substitution lookup 3 subtable" uni0069.ccmp
Substitution2: "'unic' Unicase lookup 2 subtable" I
Substitution2: "'smcp' Lowercase to Small Capitals lookup 1 subtable" I.smcp
EndChar

StartChar: infinity
Encoding: 8734 8734 463
Width: 2161
GlyphClass: 2
Flags: W
LayerCount: 2
Fore
SplineSet
95 531 m 2,0,-1
 95 550 l 2,1,2
 95 706 95 706 158.5 831 c 128,-1,3
 222 956 222 956 338.5 1029 c 128,-1,4
 455 1102 455 1102 614 1102 c 0,5,6
 728 1102 728 1102 816 1060.5 c 128,-1,7
 904 1019 904 1019 969 951.5 c 128,-1,8
 1034 884 1034 884 1079 806 c 1,9,10
 1124 884 1124 884 1189 951.5 c 128,-1,11
 1254 1019 1254 1019 1342 1060.5 c 128,-1,12
 1430 1102 1430 1102 1544 1102 c 0,13,14
 1705 1102 1705 1102 1821.5 1029 c 128,-1,15
 1938 956 1938 956 2001 831 c 128,-1,16
 2064 706 2064 706 2064 550 c 2,17,-1
 2064 531 l 2,18,19
 2064 376 2064 376 2001 251 c 128,-1,20
 1938 126 1938 126 1821 53 c 128,-1,21
 1704 -20 1704 -20 1542 -20 c 0,22,23
 1429 -20 1429 -20 1341 23 c 128,-1,24
 1253 66 1253 66 1188.5 136 c 128,-1,25
 1124 206 1124 206 1079 286 c 1,26,27
 1034 206 1034 206 969 136 c 128,-1,28
 904 66 904 66 816.5 23 c 128,-1,29
 729 -20 729 -20 616 -20 c 0,30,31
 456 -20 456 -20 339 53 c 128,-1,32
 222 126 222 126 158.5 251 c 128,-1,33
 95 376 95 376 95 531 c 2,0,-1
398 550 m 2,34,-1
 398 531 l 2,35,36
 398 403 398 403 459 317 c 128,-1,37
 520 231 520 231 635 231 c 0,38,39
 707 231 707 231 760 270.5 c 128,-1,40
 813 310 813 310 848.5 365 c 128,-1,41
 884 420 884 420 902.5 468.5 c 128,-1,42
 921 517 921 517 923 536 c 2,43,-1
 923 562 l 2,44,45
 920 580 920 580 902.5 626 c 128,-1,46
 885 672 885 672 850 724 c 128,-1,47
 815 776 815 776 761 813.5 c 128,-1,48
 707 851 707 851 633 851 c 0,49,50
 519 851 519 851 458.5 763 c 128,-1,51
 398 675 398 675 398 550 c 2,34,-1
1760 531 m 2,52,-1
 1760 550 l 2,53,54
 1760 675 1760 675 1699.5 763 c 128,-1,55
 1639 851 1639 851 1525 851 c 0,56,57
 1451 851 1451 851 1397 813.5 c 128,-1,58
 1343 776 1343 776 1308 724 c 128,-1,59
 1273 672 1273 672 1255.5 626 c 128,-1,60
 1238 580 1238 580 1235 562 c 2,61,-1
 1235 536 l 2,62,63
 1237 517 1237 517 1255 468.5 c 128,-1,64
 1273 420 1273 420 1308.5 365 c 128,-1,65
 1344 310 1344 310 1397.5 270.5 c 128,-1,66
 1451 231 1451 231 1523 231 c 0,67,68
 1637 231 1637 231 1698.5 317 c 128,-1,69
 1760 403 1760 403 1760 531 c 2,52,-1
EndSplineSet
EndChar

StartChar: integral
Encoding: 8747 8747 464
Width: 611
GlyphClass: 2
Flags: W
LayerCount: 2
Fore
SplineSet
449 -38 m 2,0,1
 449 -237 449 -237 344 -337 c 128,-1,2
 239 -437 239 -437 54 -437 c 0,3,4
 14 -437 14 -437 -22 -433.5 c 128,-1,5
 -58 -430 -58 -430 -99 -420 c 1,6,-1
 -84 -182 l 1,7,8
 -63 -187 -63 -187 -44.5 -190.5 c 128,-1,9
 -26 -194 -26 -194 5 -194 c 0,10,11
 70 -194 70 -194 103 -157 c 128,-1,12
 136 -120 136 -120 136 -38 c 2,13,-1
 136 1175 l 2,14,15
 136 1361 136 1361 245 1459.5 c 128,-1,16
 354 1558 354 1558 550 1558 c 0,17,18
 591 1558 591 1558 631 1552 c 128,-1,19
 671 1546 671 1546 713 1537 c 1,20,-1
 689 1305 l 1,21,22
 666 1310 666 1310 644.5 1312.5 c 128,-1,23
 623 1315 623 1315 589 1315 c 0,24,25
 449 1315 449 1315 449 1175 c 2,26,-1
 449 -38 l 2,0,1
EndSplineSet
EndChar

StartChar: j
Encoding: 106 106 467
Width: 544
VWidth: 1798
GlyphClass: 2
Flags: W
AnchorPoint: "Anchor-1" 190 -709 basechar 0
AnchorPoint: "Anchor-0" 223 1350 basechar 0
LayerCount: 2
Fore
SplineSet
100 1112 m 0,0,1
 100 1180 100 1180 148 1223.5 c 128,-1,2
 196 1267 196 1267 275 1267 c 0,3,4
 353 1267 353 1267 401 1223.5 c 128,-1,5
 449 1180 449 1180 449 1112 c 0,6,7
 449 1045 449 1045 401 1001.5 c 128,-1,8
 353 958 353 958 275 958 c 0,9,10
 196 958 196 958 148 1001.5 c 128,-1,11
 100 1045 100 1045 100 1112 c 0,0,1
124 832 m 1,12,-1
 438 832 l 1,13,-1
 438 -300 l 2,14,15
 438 -487 438 -487 333.5 -587 c 128,-1,16
 229 -687 229 -687 44 -687 c 0,17,18
 4 -687 4 -687 -32 -683.5 c 128,-1,19
 -68 -680 -68 -680 -109 -670 c 1,20,-1
 -109 -432 l 1,21,22
 -84 -436 -84 -436 -61.5 -438.5 c 128,-1,23
 -39 -441 -39 -441 -14 -441 c 0,24,25
 124 -441 124 -441 124 -300 c 2,26,-1
 124 832 l 1,12,-1
EndSplineSet
Substitution2: "Single Substitution lookup 3 subtable" uni006A.ccmp
Substitution2: "'unic' Unicase lookup 2 subtable" J
Substitution2: "'smcp' Lowercase to Small Capitals lookup 1 subtable" J.smcp
EndChar

StartChar: k
Encoding: 107 107 469
Width: 1107
VWidth: 1798
GlyphClass: 2
Flags: W
AnchorPoint: "Anchor-1" 529 -179 basechar 0
AnchorPoint: "Anchor-0" 549 1361 basechar 0
LayerCount: 2
Fore
SplineSet
775 -250 m 1,0,-1
 517 170 l 1,1,-1
 418 71 l 1,2,-1
 418 -250 l 1,3,-1
 105 -250 l 1,4,-1
 105 1287 l 1,5,-1
 418 1287 l 1,6,-1
 418 453 l 1,7,-1
 462 510 l 1,8,-1
 729 832 l 1,9,-1
 1105 832 l 1,10,-1
 718 385 l 1,11,-1
 1133 -250 l 1,12,-1
 775 -250 l 1,0,-1
EndSplineSet
Substitution2: "'unic' Unicase lookup 2 subtable" K
Substitution2: "'smcp' Lowercase to Small Capitals lookup 1 subtable" K.smcp
EndChar

StartChar: kgreenlandic
Encoding: 312 312 471
Width: 1226
VWidth: 1798
GlyphClass: 2
Flags: W
AnchorPoint: "Anchor-1" 590 -240 basechar 0
AnchorPoint: "Anchor-0" 590 1040 basechar 0
LayerCount: 2
Fore
SplineSet
789 -250 m 1,0,-1
 558 142 l 1,1,-1
 436 142 l 1,2,-1
 436 -250 l 1,3,-1
 124 -250 l 1,4,-1
 124 832 l 1,5,-1
 436 832 l 1,6,-1
 436 432 l 1,7,-1
 527 432 l 1,8,-1
 779 832 l 1,9,-1
 1179 832 l 1,10,-1
 818 321 l 1,11,-1
 1191 -250 l 1,12,-1
 789 -250 l 1,0,-1
EndSplineSet
EndChar

StartChar: l
Encoding: 108 108 472
Width: 553
VWidth: 1798
GlyphClass: 2
Flags: W
AnchorPoint: "Anchor-1" 249 -240 basechar 0
AnchorPoint: "Anchor-0" 249 1447 basechar 0
LayerCount: 2
Fore
SplineSet
433 1286 m 1,0,-1
 433 -250 l 1,1,-1
 120 -250 l 1,2,-1
 120 1286 l 1,3,-1
 433 1286 l 1,0,-1
EndSplineSet
Substitution2: "'unic' Unicase lookup 2 subtable" L
Substitution2: "'smcp' Lowercase to Small Capitals lookup 1 subtable" L.smcp
EndChar

StartChar: less
Encoding: 60 60 478
Width: 1044
VWidth: 1798
GlyphClass: 2
Flags: W
LayerCount: 2
Fore
SplineSet
924 565 m 1,0,-1
 365 366 l 1,1,-1
 924 170 l 1,2,-1
 924 -119 l 1,3,-1
 50 244 l 1,4,-1
 50 490 l 1,5,-1
 924 853 l 1,6,-1
 924 565 l 1,0,-1
EndSplineSet
EndChar

StartChar: lessequal
Encoding: 8804 8804 479
Width: 1044
GlyphClass: 2
Flags: W
LayerCount: 2
Fore
SplineSet
924 869 m 1,0,-1
 364 704 l 1,1,-1
 924 541 l 1,2,-1
 924 304 l 1,3,-1
 50 604 l 1,4,-1
 50 806 l 1,5,-1
 924 1106 l 1,6,-1
 924 869 l 1,0,-1
932 227 m 1,7,-1
 932 1 l 1,8,-1
 60 1 l 1,9,-1
 60 227 l 1,10,-1
 932 227 l 1,7,-1
EndSplineSet
EndChar

StartChar: lira
Encoding: 8356 8356 480
Width: 1224
GlyphClass: 2
Flags: W
LayerCount: 2
Fore
SplineSet
854 631 m 1,0,-1
 854 468 l 1,1,-1
 599 468 l 1,2,-1
 600 441 l 2,3,4
 600 383 600 383 585.5 336.5 c 128,-1,5
 571 290 571 290 538 252 c 1,6,-1
 1167 252 l 1,7,-1
 1168 0 l 1,8,-1
 104 0 l 1,9,-1
 104 252 l 1,10,-1
 204 252 l 1,11,12
 250 263 250 263 259.5 314 c 128,-1,13
 269 365 269 365 269 422 c 2,14,-1
 268 468 l 1,15,-1
 106 468 l 1,16,-1
 106 631 l 1,17,-1
 263 631 l 1,18,-1
 260 739 l 1,19,-1
 106 739 l 1,20,-1
 106 901 l 1,21,-1
 255 901 l 1,22,-1
 251 1039 l 1,23,24
 251 1246 251 1246 374.5 1360.5 c 128,-1,25
 498 1475 498 1475 703 1475 c 0,26,27
 928 1475 928 1475 1047.5 1359 c 128,-1,28
 1167 1243 1167 1243 1167 1054 c 1,29,-1
 860 1054 l 1,30,31
 860 1149 860 1149 814.5 1186 c 128,-1,32
 769 1223 769 1223 707 1223 c 0,33,34
 648 1223 648 1223 611 1177 c 128,-1,35
 574 1131 574 1131 574 1039 c 2,36,-1
 580 901 l 1,37,-1
 854 901 l 1,38,-1
 854 739 l 1,39,-1
 587 739 l 1,40,-1
 592 631 l 1,41,-1
 854 631 l 1,0,-1
EndSplineSet
Substitution2: "'c2sc' Capitals to Small Capitals lookup 0 subtable" lira.smcp
Position2: "'cpsp' Capital Spacing lookup 0 subtable" dx=36 dy=0 dh=72 dv=0
EndChar

StartChar: lira.smcp
Encoding: 65749 -1 481
Width: 1194
GlyphClass: 2
Flags: W
LayerCount: 2
Fore
SplineSet
537 729 m 1,0,-1
 537 724 l 1,1,-1
 898 724 l 1,2,-1
 898 551 l 1,3,-1
 547 551 l 1,4,-1
 549 515 l 2,5,6
 550 500 550 500 550 485 c 1,7,-1
 898 485 l 1,8,-1
 898 312 l 1,9,-1
 499 312 l 1,10,11
 475 275 475 275 440 243 c 1,12,-1
 1107 243 l 1,13,-1
 1107 0 l 1,14,-1
 139 0 l 1,15,-1
 139 243 l 1,16,-1
 149 243 l 1,17,18
 171 249 171 249 186.5 267 c 128,-1,19
 202 285 202 285 211 312 c 1,20,-1
 69 312 l 1,21,-1
 69 485 l 1,22,-1
 232 485 l 1,23,24
 232 491 232 491 232 497 c 2,25,-1
 230 551 l 1,26,-1
 69 551 l 1,27,-1
 69 724 l 1,28,-1
 224 724 l 1,29,-1
 224 729 l 1,30,31
 217 944 217 944 334 1062.5 c 128,-1,32
 451 1181 451 1181 653 1181 c 0,33,34
 876 1181 876 1181 985 1072.5 c 128,-1,35
 1094 964 1094 964 1094 788 c 1,36,-1
 780 788 l 1,37,38
 780 872 780 872 747 906 c 128,-1,39
 714 940 714 940 657 940 c 0,40,41
 594 940 594 940 562.5 886 c 128,-1,42
 531 832 531 832 537 729 c 1,0,-1
EndSplineSet
EndChar

StartChar: logicalnot
Encoding: 172 172 482
Width: 1126
VWidth: 1798
GlyphClass: 2
Flags: W
LayerCount: 2
Fore
SplineSet
961 554 m 1,0,-1
 961 124 l 1,1,-1
 763 124 l 1,2,-1
 763 385 l 1,3,-1
 126 385 l 1,4,-1
 126 554 l 1,5,-1
 961 554 l 1,0,-1
EndSplineSet
EndChar

StartChar: longs
Encoding: 383 383 483
Width: 534
VWidth: 1798
GlyphClass: 2
Flags: W
AnchorPoint: "Anchor-1" 248 -240 basechar 0
AnchorPoint: "Anchor-0" 428 1504 basechar 0
LayerCount: 2
Fore
SplineSet
418 -250 m 1,0,-1
 106 -250 l 1,1,-1
 106 924 l 2,2,3
 106 1110 106 1110 215 1208.5 c 128,-1,4
 324 1307 324 1307 518 1307 c 0,5,6
 560 1307 560 1307 600.5 1301 c 128,-1,7
 641 1295 641 1295 682 1286 c 1,8,-1
 658 1054 l 1,9,10
 636 1059 636 1059 613.5 1061.5 c 128,-1,11
 591 1064 591 1064 558 1064 c 0,12,13
 491 1064 491 1064 454.5 1028 c 128,-1,14
 418 992 418 992 418 924 c 2,15,-1
 418 -250 l 1,0,-1
EndSplineSet
EndChar

StartChar: longst
Encoding: 65750 -1 484
Width: 1338
GlyphClass: 3
Flags: W
LayerCount: 2
Fore
SplineSet
593 1557 m 0,0,1
 748 1557 748 1557 880.5 1521.5 c 128,-1,2
 1013 1486 1013 1486 1112 1450 c 1,3,-1
 1112 1082 l 1,4,-1
 1293 1082 l 1,5,-1
 1293 863 l 1,6,-1
 1112 863 l 1,7,-1
 1112 339 l 2,8,9
 1112 272 1112 272 1137.5 249.5 c 128,-1,10
 1163 227 1163 227 1223 227 c 0,11,12
 1251 227 1251 227 1271 229 c 128,-1,13
 1291 231 1291 231 1307 234 c 1,14,-1
 1307 8 l 1,15,16
 1267 -5 1267 -5 1222.5 -12.5 c 128,-1,17
 1178 -20 1178 -20 1125 -20 c 0,18,19
 972 -20 972 -20 885.5 55 c 128,-1,20
 799 130 799 130 799 304 c 2,21,-1
 799 863 l 1,22,-1
 652 863 l 1,23,-1
 652 1082 l 1,24,-1
 799 1082 l 1,25,-1
 799 1288 l 1,26,27
 780 1296 780 1296 735.5 1305 c 128,-1,28
 691 1314 691 1314 633 1314 c 0,29,30
 492 1314 492 1314 492 1174 c 2,31,-1
 492 0 l 1,32,-1
 179 0 l 1,33,-1
 179 863 l 1,34,-1
 21 863 l 1,35,-1
 21 1082 l 1,36,-1
 179 1082 l 1,37,-1
 179 1174 l 2,38,39
 179 1360 179 1360 288 1458.5 c 128,-1,40
 397 1557 397 1557 593 1557 c 0,0,1
EndSplineSet
Ligature2: "'dlig' Discretionary Ligatures lookup 12 subtable" longs t
EndChar

StartChar: lozenge
Encoding: 9674 9674 485
Width: 1045
GlyphClass: 2
Flags: W
LayerCount: 2
Fore
SplineSet
29 727 m 1,0,-1
 389 1456 l 1,1,-1
 662 1456 l 1,2,-1
 1022 727 l 1,3,-1
 662 0 l 1,4,-1
 389 0 l 1,5,-1
 29 727 l 1,0,-1
339 727 m 1,6,-1
 527 318 l 1,7,-1
 712 727 l 1,8,-1
 526 1140 l 1,9,-1
 339 727 l 1,6,-1
EndSplineSet
EndChar

StartChar: lslash
Encoding: 322 322 486
Width: 645
VWidth: 1798
GlyphClass: 2
Flags: W
AnchorPoint: "Anchor-1" 280 -240 basechar 0
AnchorPoint: "Anchor-0" 280 1447 basechar 0
LayerCount: 2
Fore
SplineSet
612 711 m 1,0,-1
 612 540 l 1,1,-1
 474 496 l 1,2,-1
 474 -250 l 1,3,-1
 160 -250 l 1,4,-1
 160 395 l 1,5,-1
 28 353 l 1,6,-1
 28 524 l 1,7,-1
 160 566 l 1,8,-1
 160 1286 l 1,9,-1
 474 1286 l 1,10,-1
 474 667 l 1,11,-1
 612 711 l 1,0,-1
EndSplineSet
Substitution2: "'smcp' Lowercase to Small Capitals lookup 1 subtable" Lslash.smcp
EndChar

StartChar: m
Encoding: 109 109 487
Width: 1769
VWidth: 1798
GlyphClass: 2
Flags: W
AnchorPoint: "Anchor-1" 897 -240 basechar 0
AnchorPoint: "Anchor-0" 911 1040 basechar 0
LayerCount: 2
Fore
SplineSet
581 609 m 0,0,1
 525 609 525 609 483.5 582 c 128,-1,2
 442 555 442 555 417 509 c 1,3,-1
 417 -250 l 1,4,-1
 105 -250 l 1,5,-1
 105 832 l 1,6,-1
 398 832 l 1,7,-1
 409 706 l 1,8,9
 462 775 462 775 539.5 813.5 c 128,-1,10
 617 852 617 852 719 852 c 0,11,12
 816 852 816 852 889 812.5 c 128,-1,13
 962 773 962 773 1001 687 c 1,14,15
 1053 764 1053 764 1133.5 808 c 128,-1,16
 1214 852 1214 852 1323 852 c 0,17,18
 1425 852 1425 852 1502 812 c 128,-1,19
 1579 772 1579 772 1622 681 c 128,-1,20
 1665 590 1665 590 1665 436 c 2,21,-1
 1665 -250 l 1,22,-1
 1351 -250 l 1,23,-1
 1351 436 l 2,24,25
 1351 543 1351 543 1312 576 c 128,-1,26
 1273 609 1273 609 1206 609 c 0,27,28
 1146 609 1146 609 1104.5 580.5 c 128,-1,29
 1063 552 1063 552 1039 503 c 1,30,31
 1040 488 1040 488 1040 472 c 2,32,-1
 1040 -250 l 1,33,-1
 728 -250 l 1,34,-1
 728 434 l 2,35,36
 728 541 728 541 689 575 c 128,-1,37
 650 609 650 609 581 609 c 0,0,1
EndSplineSet
Substitution2: "'unic' Unicase lookup 2 subtable" M.unic
Substitution2: "'smcp' Lowercase to Small Capitals lookup 1 subtable" M.smcp
EndChar

StartChar: macron
Encoding: 175 175 488
Width: 1046
VWidth: 1798
GlyphClass: 2
Flags: W
LayerCount: 2
Fore
SplineSet
865 1206 m 1,0,-1
 865 1038 l 1,1,-1
 175 1038 l 1,2,-1
 175 1206 l 1,3,-1
 865 1206 l 1,0,-1
EndSplineSet
EndChar

StartChar: mu
Encoding: 181 181 491
Width: 1289
VWidth: 1798
GlyphClass: 2
Flags: W
LayerCount: 2
Fore
SplineSet
137 832 m 1,0,-1
 449 832 l 1,1,-1
 449 212 l 2,2,3
 449 115 449 115 470 63.5 c 128,-1,4
 491 12 491 12 530 -6.5 c 128,-1,5
 569 -25 569 -25 622 -25 c 0,6,7
 696 -25 696 -25 743 2 c 128,-1,8
 790 29 790 29 815 76 c 1,9,-1
 815 832 l 1,10,-1
 1128 832 l 1,11,-1
 1128 -250 l 1,12,-1
 835 -250 l 1,13,-1
 830 -190 l 1,14,15
 788 -229 788 -229 733 -250 c 128,-1,16
 678 -271 678 -271 611 -271 c 0,17,18
 517 -271 517 -271 449 -231 c 1,19,-1
 449 -666 l 1,20,-1
 137 -666 l 1,21,-1
 137 832 l 1,0,-1
EndSplineSet
EndChar

StartChar: multiply
Encoding: 215 215 492
Width: 1078
VWidth: 1798
GlyphClass: 2
Flags: W
LayerCount: 2
Fore
SplineSet
373 265 m 1,0,-1
 108 536 l 1,1,-1
 272 706 l 1,2,-1
 539 434 l 1,3,-1
 806 706 l 1,4,-1
 970 536 l 1,5,-1
 705 265 l 1,6,-1
 972 -7 l 1,7,-1
 807 -177 l 1,8,-1
 539 96 l 1,9,-1
 271 -177 l 1,10,-1
 106 -7 l 1,11,-1
 373 265 l 1,0,-1
EndSplineSet
EndChar

StartChar: n
Encoding: 110 110 493
Width: 1152
VWidth: 1798
GlyphClass: 2
Flags: W
AnchorPoint: "Anchor-1" 563 -240 basechar 0
AnchorPoint: "Anchor-0" 573 1040 basechar 0
LayerCount: 2
Fore
SplineSet
575 609 m 0,0,1
 516 609 516 609 475.5 584 c 128,-1,2
 435 559 435 559 410 516 c 1,3,-1
 410 -250 l 1,4,-1
 97 -250 l 1,5,-1
 97 832 l 1,6,-1
 391 832 l 1,7,-1
 401 705 l 1,8,9
 516 852 516 852 711 852 c 0,10,11
 813 852 813 852 889.5 812.5 c 128,-1,12
 966 773 966 773 1009 682 c 128,-1,13
 1052 591 1052 591 1052 436 c 2,14,-1
 1052 -250 l 1,15,-1
 738 -250 l 1,16,-1
 738 437 l 2,17,18
 738 539 738 539 695.5 574 c 128,-1,19
 653 609 653 609 575 609 c 0,0,1
EndSplineSet
Substitution2: "'unic' Unicase lookup 2 subtable" N.unic
Substitution2: "'smcp' Lowercase to Small Capitals lookup 1 subtable" N.smcp
EndChar

StartChar: naira
Encoding: 8358 8358 495
Width: 1676
GlyphClass: 2
Flags: W
LayerCount: 2
Fore
SplineSet
1636 668 m 1,0,-1
 1636 509 l 1,1,-1
 1437 509 l 1,2,-1
 1437 0 l 1,3,-1
 1113 0 l 1,4,-1
 815 509 l 1,5,-1
 562 509 l 1,6,-1
 562 0 l 1,7,-1
 236 0 l 1,8,-1
 236 509 l 1,9,-1
 39 509 l 1,10,-1
 39 668 l 1,11,-1
 236 668 l 1,12,-1
 236 834 l 1,13,-1
 39 834 l 1,14,-1
 39 993 l 1,15,-1
 236 993 l 1,16,-1
 236 1456 l 1,17,-1
 562 1456 l 1,18,-1
 833 993 l 1,19,-1
 1112 993 l 1,20,-1
 1112 1456 l 1,21,-1
 1437 1456 l 1,22,-1
 1437 993 l 1,23,-1
 1636 993 l 1,24,-1
 1636 834 l 1,25,-1
 1437 834 l 1,26,-1
 1437 668 l 1,27,-1
 1636 668 l 1,0,-1
562 668 m 1,28,-1
 722 668 l 1,29,-1
 625 834 l 1,30,-1
 562 834 l 1,31,-1
 562 668 l 1,28,-1
1023 668 m 1,32,-1
 1112 668 l 1,33,-1
 1112 834 l 1,34,-1
 926 834 l 1,35,-1
 1023 668 l 1,32,-1
EndSplineSet
EndChar

StartChar: nine
Encoding: 57 57 500
Width: 1181
VWidth: 1798
GlyphClass: 2
Flags: W
LayerCount: 2
Fore
SplineSet
303 -15 m 1,0,-1
 323 -15 l 2,1,2
 522 -15 522 -15 634 69 c 128,-1,3
 746 153 746 153 766 325 c 1,4,5
 715 277 715 277 649.5 248 c 128,-1,6
 584 219 584 219 510 219 c 0,7,8
 376 219 376 219 280 282 c 128,-1,9
 184 345 184 345 133.5 456 c 128,-1,10
 83 567 83 567 83 710 c 0,11,12
 83 851 83 851 145.5 968.5 c 128,-1,13
 208 1086 208 1086 320.5 1156.5 c 128,-1,14
 433 1227 433 1227 581 1227 c 0,15,16
 725 1227 725 1227 838.5 1155 c 128,-1,17
 952 1083 952 1083 1017.5 949.5 c 128,-1,18
 1083 816 1083 816 1083 632 c 2,19,-1
 1083 524 l 2,20,21
 1083 277 1083 277 989.5 99.5 c 128,-1,22
 896 -78 896 -78 726.5 -172.5 c 128,-1,23
 557 -267 557 -267 328 -267 c 2,24,-1
 303 -267 l 1,25,-1
 303 -15 l 1,0,-1
396 711 m 0,26,27
 396 602 396 602 444.5 524.5 c 128,-1,28
 493 447 493 447 592 447 c 0,29,30
 658 447 658 447 703 479.5 c 128,-1,31
 748 512 748 512 770 558 c 1,32,-1
 770 688 l 2,33,34
 770 838 770 838 717 911 c 128,-1,35
 664 984 664 984 579 984 c 0,36,37
 521 984 521 984 480 944.5 c 128,-1,38
 439 905 439 905 417.5 842.5 c 128,-1,39
 396 780 396 780 396 711 c 0,26,27
EndSplineSet
Substitution2: "'ss01' Style Set 1 lookup 35 subtable" uni06F9
Substitution2: "'numr' Numerators lookup 21 subtable" nine.frac
Substitution2: "'dnom' Denominators lookup 20 subtable" nine.sup
Substitution2: "'frac' Diagonal Fractions lookup 19 subtable" nine.frac
Substitution2: "Single Substitution lookup 18 subtable" nine.sup
Substitution2: "'onum' Oldstyle Figures lookup 14 subtable" nine.tnum
Substitution2: "'c2sc' Capitals to Small Capitals lookup 0 subtable" nine.smcp
Position2: "'cpsp' Capital Spacing lookup 0 subtable" dx=36 dy=0 dh=72 dv=0
EndChar

StartChar: nine.onum
Encoding: 65752 -1 502
Width: 1184
GlyphClass: 1
Flags: W
LayerCount: 2
Fore
SplineSet
502 -76 m 0,0,1
 625 -76 625 -76 700.5 2.5 c 128,-1,2
 776 81 776 81 800 250 c 1,3,4
 681 163 681 163 514 163 c 0,5,6
 312 163 312 163 198.5 299.5 c 128,-1,7
 85 436 85 436 85 665 c 0,8,9
 85 811 85 811 148 928.5 c 128,-1,10
 211 1046 211 1046 323 1115 c 128,-1,11
 435 1184 435 1184 582 1184 c 0,12,13
 736 1184 736 1184 858.5 1118 c 128,-1,14
 981 1052 981 1052 1052.5 924 c 128,-1,15
 1124 796 1124 796 1124 610 c 2,16,-1
 1124 448 l 2,17,18
 1124 189 1124 189 1046.5 18.5 c 128,-1,19
 969 -152 969 -152 837 -235.5 c 128,-1,20
 705 -319 705 -319 540 -319 c 0,21,22
 460 -319 460 -319 383 -302 c 128,-1,23
 306 -285 306 -285 229 -256 c 1,24,-1
 287 -31 l 1,25,26
 336 -49 336 -49 386.5 -62.5 c 128,-1,27
 437 -76 437 -76 502 -76 c 0,0,1
397 665 m 0,28,29
 397 546 397 546 446.5 468.5 c 128,-1,30
 496 391 496 391 595 391 c 0,31,32
 668 391 668 391 722 412 c 128,-1,33
 776 433 776 433 811 466 c 1,34,-1
 811 648 l 2,35,36
 811 797 811 797 751.5 869.5 c 128,-1,37
 692 942 692 942 602 942 c 0,38,39
 538 942 538 942 492 903 c 128,-1,40
 446 864 446 864 421.5 801 c 128,-1,41
 397 738 397 738 397 665 c 0,28,29
EndSplineSet
EndChar

StartChar: nine.smcp
Encoding: 65753 -1 503
Width: 1070
GlyphClass: 2
Flags: W
LayerCount: 2
Fore
SplineSet
291 222 m 1,0,-1
 310 222 l 2,1,2
 408 222 408 222 484 238 c 128,-1,3
 560 254 560 254 608.5 302 c 128,-1,4
 657 350 657 350 672 446 c 1,5,6
 627 412 627 412 571.5 391.5 c 128,-1,7
 516 371 516 371 457 371 c 0,8,9
 280 371 280 371 174.5 468.5 c 128,-1,10
 69 566 69 566 69 759 c 0,11,12
 69 874 69 874 128.5 970 c 128,-1,13
 188 1066 188 1066 292.5 1124 c 128,-1,14
 397 1182 397 1182 530 1182 c 0,15,16
 653 1182 653 1182 758 1133 c 128,-1,17
 863 1084 863 1084 926.5 978.5 c 128,-1,18
 990 873 990 873 990 703 c 2,19,-1
 990 622 l 2,20,21
 990 437 990 437 936.5 313 c 128,-1,22
 883 189 883 189 789.5 116.5 c 128,-1,23
 696 44 696 44 574 13 c 128,-1,24
 452 -18 452 -18 315 -18 c 2,25,-1
 291 -18 l 1,26,-1
 291 222 l 1,0,-1
383 754 m 0,27,28
 383 594 383 594 544 594 c 0,29,30
 595 594 595 594 628 611 c 128,-1,31
 661 628 661 628 678 650 c 1,32,-1
 678 765 l 2,33,34
 678 858 678 858 639.5 898.5 c 128,-1,35
 601 939 601 939 530 939 c 0,36,37
 461 939 461 939 422 885 c 128,-1,38
 383 831 383 831 383 754 c 0,27,28
EndSplineSet
EndChar

StartChar: nine.sup
Encoding: 65754 -1 504
Width: 765
GlyphClass: 2
Flags: W
LayerCount: 2
Fore
SplineSet
217 154 m 1,0,-1
 231 154 l 2,1,2
 329 154 329 154 394 179 c 128,-1,3
 459 204 459 204 474 301 c 1,4,5
 408 251 408 251 330 251 c 0,6,7
 210 251 210 251 138 315.5 c 128,-1,8
 66 380 66 380 66 513 c 0,9,10
 66 591 66 591 107 656.5 c 128,-1,11
 148 722 148 722 218.5 761.5 c 128,-1,12
 289 801 289 801 379 801 c 0,13,14
 463 801 463 801 534 768.5 c 128,-1,15
 605 736 605 736 648.5 664.5 c 128,-1,16
 692 593 692 593 692 476 c 2,17,-1
 692 420 l 2,18,19
 692 249 692 249 628.5 155 c 128,-1,20
 565 61 565 61 461 24 c 128,-1,21
 357 -13 357 -13 233 -13 c 2,22,-1
 217 -13 l 1,23,-1
 217 154 l 1,0,-1
281 510 m 0,24,25
 281 406 281 406 390 406 c 0,26,27
 423 406 423 406 445 416.5 c 128,-1,28
 467 427 467 427 478 440 c 1,29,-1
 478 520 l 2,30,31
 478 581 478 581 452.5 606.5 c 128,-1,32
 427 632 427 632 379 632 c 0,33,34
 333 632 333 632 307 596 c 128,-1,35
 281 560 281 560 281 510 c 0,24,25
EndSplineSet
EndChar

StartChar: notequal
Encoding: 8800 8800 506
Width: 1188
GlyphClass: 2
Flags: W
LayerCount: 2
Fore
SplineSet
1044 546 m 1,0,-1
 1044 302 l 1,1,-1
 486 302 l 1,2,-1
 374 89 l 1,3,-1
 249 150 l 1,4,-1
 329 302 l 1,5,-1
 132 302 l 1,6,-1
 132 546 l 1,7,-1
 457 546 l 1,8,-1
 557 737 l 1,9,-1
 132 737 l 1,10,-1
 132 981 l 1,11,-1
 685 981 l 1,12,-1
 794 1188 l 1,13,-1
 918 1125 l 1,14,-1
 842 981 l 1,15,-1
 1044 981 l 1,16,-1
 1044 737 l 1,17,-1
 714 737 l 1,18,-1
 614 546 l 1,19,-1
 1044 546 l 1,0,-1
EndSplineSet
EndChar

StartChar: nsuperior
Encoding: 8319 8319 507
Width: 854
GlyphClass: 2
Flags: W
LayerCount: 2
Fore
SplineSet
430 1280 m 0,0,1
 379 1280 379 1280 347 1259 c 128,-1,2
 315 1238 315 1238 297 1203 c 1,3,-1
 297 654 l 1,4,-1
 78 654 l 1,5,-1
 78 1455 l 1,6,-1
 253 1455 l 1,7,-1
 285 1332 l 1,8,9
 320 1394 320 1394 377 1430 c 128,-1,10
 434 1466 434 1466 510 1466 c 0,11,12
 635 1466 635 1466 705.5 1393.5 c 128,-1,13
 776 1321 776 1321 776 1159 c 2,14,-1
 776 654 l 1,15,-1
 557 654 l 1,16,-1
 557 1090 l 2,17,18
 557 1196 557 1196 524.5 1238 c 128,-1,19
 492 1280 492 1280 430 1280 c 0,0,1
EndSplineSet
EndChar

StartChar: numbersign
Encoding: 35 35 509
Width: 1201
VWidth: 1798
GlyphClass: 2
Flags: W
LayerCount: 2
Fore
SplineSet
200 -250 m 1,0,-1
 270 160 l 1,1,-1
 44 160 l 1,2,-1
 44 336 l 1,3,-1
 299 336 l 1,4,-1
 347 614 l 1,5,-1
 120 614 l 1,6,-1
 120 790 l 1,7,-1
 376 790 l 1,8,-1
 447 1206 l 1,9,-1
 636 1206 l 1,10,-1
 566 790 l 1,11,-1
 744 790 l 1,12,-1
 815 1206 l 1,13,-1
 1005 1206 l 1,14,-1
 934 790 l 1,15,-1
 1160 790 l 1,16,-1
 1160 614 l 1,17,-1
 905 614 l 1,18,-1
 857 336 l 1,19,-1
 1085 336 l 1,20,-1
 1085 160 l 1,21,-1
 828 160 l 1,22,-1
 758 -250 l 1,23,-1
 568 -250 l 1,24,-1
 638 160 l 1,25,-1
 459 160 l 1,26,-1
 390 -250 l 1,27,-1
 200 -250 l 1,0,-1
489 336 m 1,28,-1
 667 336 l 1,29,-1
 715 614 l 1,30,-1
 536 614 l 1,31,-1
 489 336 l 1,28,-1
EndSplineSet
EndChar

StartChar: o
Encoding: 111 111 510
Width: 1154
VWidth: 1798
GlyphClass: 2
Flags: W
AnchorPoint: "Anchor-1" 584 -251 basechar 0
AnchorPoint: "Anchor-0" 575 1040 basechar 0
LayerCount: 2
Fore
SplineSet
59 280 m 2,0,-1
 59 301 l 2,1,2
 59 459 59 459 119 583.5 c 128,-1,3
 179 708 179 708 294 780 c 128,-1,4
 409 852 409 852 575 852 c 0,5,6
 743 852 743 852 858.5 780 c 128,-1,7
 974 708 974 708 1034 583.5 c 128,-1,8
 1094 459 1094 459 1094 301 c 2,9,-1
 1094 280 l 2,10,11
 1094 122 1094 122 1034 -2.5 c 128,-1,12
 974 -127 974 -127 859 -198.5 c 128,-1,13
 744 -270 744 -270 577 -270 c 256,14,15
 410 -270 410 -270 294.5 -198.5 c 128,-1,16
 179 -127 179 -127 119 -2.5 c 128,-1,17
 59 122 59 122 59 280 c 2,0,-1
372 301 m 2,18,-1
 372 280 l 2,19,20
 372 194 372 194 391 124.5 c 128,-1,21
 410 55 410 55 455 14 c 128,-1,22
 500 -27 500 -27 577 -27 c 0,23,24
 691 -27 691 -27 736 62 c 128,-1,25
 781 151 781 151 781 280 c 2,26,-1
 781 301 l 2,27,28
 781 385 781 385 762 455 c 128,-1,29
 743 525 743 525 698 567 c 128,-1,30
 653 609 653 609 575 609 c 0,31,32
 499 609 499 609 454.5 567 c 128,-1,33
 410 525 410 525 391 455 c 128,-1,34
 372 385 372 385 372 301 c 2,18,-1
EndSplineSet
Substitution2: "'unic' Unicase lookup 2 subtable" O
Substitution2: "'smcp' Lowercase to Small Capitals lookup 1 subtable" O.smcp
EndChar

StartChar: oe
Encoding: 339 339 515
Width: 1847
VWidth: 1798
GlyphClass: 2
Flags: W
AnchorPoint: "Anchor-1" 945 -251 basechar 0
AnchorPoint: "Anchor-0" 945 1040 basechar 0
LayerCount: 2
Fore
SplineSet
79 280 m 2,0,-1
 79 301 l 2,1,2
 79 459 79 459 139 583.5 c 128,-1,3
 199 708 199 708 314 780 c 128,-1,4
 429 852 429 852 595 852 c 0,5,6
 711 852 711 852 802.5 816.5 c 128,-1,7
 894 781 894 781 959 717 c 1,8,9
 1021 781 1021 781 1107.5 817 c 128,-1,10
 1194 853 1194 853 1304 852 c 0,11,12
 1526 852 1526 852 1647.5 719.5 c 128,-1,13
 1769 587 1769 587 1769 363 c 2,14,-1
 1769 195 l 1,15,-1
 1128 195 l 1,16,17
 1142 102 1142 102 1201 37 c 128,-1,18
 1260 -28 1260 -28 1367 -28 c 0,19,20
 1475 -28 1475 -28 1539 -6.5 c 128,-1,21
 1603 15 1603 15 1668 46 c 1,22,-1
 1747 -147 l 1,23,24
 1685 -194 1685 -194 1577 -232 c 128,-1,25
 1469 -270 1469 -270 1329 -270 c 0,26,27
 1215 -270 1215 -270 1122.5 -233 c 128,-1,28
 1030 -196 1030 -196 963 -131 c 1,29,30
 898 -197 898 -197 806 -233.5 c 128,-1,31
 714 -270 714 -270 597 -270 c 0,32,33
 430 -270 430 -270 314.5 -198.5 c 128,-1,34
 199 -127 199 -127 139 -2.5 c 128,-1,35
 79 122 79 122 79 280 c 2,0,-1
1304 609 m 0,36,37
 1222 609 1222 609 1181.5 548.5 c 128,-1,38
 1141 488 1141 488 1129 396 c 1,39,-1
 1463 396 l 1,40,-1
 1463 422 l 2,41,42
 1463 508 1463 508 1425.5 558.5 c 128,-1,43
 1388 609 1388 609 1304 609 c 0,36,37
392 301 m 2,44,-1
 392 280 l 2,45,46
 392 194 392 194 411 124 c 128,-1,47
 430 54 430 54 475 13 c 128,-1,48
 520 -28 520 -28 597 -28 c 0,49,50
 673 -28 673 -28 717.5 13 c 128,-1,51
 762 54 762 54 781 124 c 128,-1,52
 800 194 800 194 800 280 c 2,53,-1
 800 301 l 2,54,55
 800 385 800 385 781 455 c 128,-1,56
 762 525 762 525 717.5 567 c 128,-1,57
 673 609 673 609 595 609 c 0,58,59
 519 609 519 609 474.5 567 c 128,-1,60
 430 525 430 525 411 455 c 128,-1,61
 392 385 392 385 392 301 c 2,44,-1
EndSplineSet
Substitution2: "'unic' Unicase lookup 2 subtable" OE
Substitution2: "'smcp' Lowercase to Small Capitals lookup 1 subtable" OE.smcp
EndChar

StartChar: ogonek
Encoding: 731 731 516
Width: 630
VWidth: 1798
GlyphClass: 2
Flags: W
LayerCount: 2
Fore
SplineSet
240 -190 m 1,0,-1
 408 -250 l 1,1,2
 330 -292 330 -292 294 -330 c 128,-1,3
 258 -368 258 -368 258 -421 c 0,4,5
 258 -448 258 -448 272.5 -466.5 c 128,-1,6
 287 -485 287 -485 321 -485 c 0,7,8
 347 -485 347 -485 364.5 -478.5 c 128,-1,9
 382 -472 382 -472 395 -465 c 1,10,-1
 430 -626 l 1,11,12
 405 -641 405 -641 365 -655.5 c 128,-1,13
 325 -670 325 -670 265 -670 c 0,14,15
 167 -670 167 -670 98.5 -616 c 128,-1,16
 30 -562 30 -562 30 -459 c 0,17,18
 30 -385 30 -385 74 -315.5 c 128,-1,19
 118 -246 118 -246 240 -190 c 1,0,-1
EndSplineSet
EndChar

StartChar: ohorn
Encoding: 417 417 518
Width: 1194
VWidth: 1798
GlyphClass: 2
Flags: W
AnchorPoint: "Anchor-1" 502 -250 basechar 0
AnchorPoint: "Anchor-0" 582 1040 basechar 0
LayerCount: 2
Fore
SplineSet
57 280 m 2,0,-1
 57 301 l 2,1,2
 57 459 57 459 117 583.5 c 128,-1,3
 177 708 177 708 292.5 780 c 128,-1,4
 408 852 408 852 574 852 c 0,5,6
 698 852 698 852 793.5 811.5 c 128,-1,7
 889 771 889 771 955 699 c 1,8,9
 996 730 996 730 1011 789.5 c 128,-1,10
 1026 849 1026 849 1026 931 c 1,11,-1
 1204 931 l 1,12,13
 1204 804 1204 804 1163 714.5 c 128,-1,14
 1122 625 1122 625 1033 582 c 1,15,16
 1092 459 1092 459 1092 301 c 2,17,-1
 1092 280 l 2,18,19
 1092 122 1092 122 1032 -2.5 c 128,-1,20
 972 -127 972 -127 857 -198.5 c 128,-1,21
 742 -270 742 -270 576 -270 c 0,22,23
 409 -270 409 -270 293 -198.5 c 128,-1,24
 177 -127 177 -127 117 -2.5 c 128,-1,25
 57 122 57 122 57 280 c 2,0,-1
370 301 m 2,26,-1
 370 280 l 2,27,28
 370 194 370 194 389 124.5 c 128,-1,29
 408 55 408 55 453.5 14 c 128,-1,30
 499 -27 499 -27 576 -27 c 0,31,32
 689 -27 689 -27 734 62 c 128,-1,33
 779 151 779 151 779 280 c 2,34,-1
 779 301 l 2,35,36
 779 385 779 385 760 455 c 128,-1,37
 741 525 741 525 696 567 c 128,-1,38
 651 609 651 609 574 609 c 0,39,40
 498 609 498 609 453.5 567 c 128,-1,41
 409 525 409 525 389.5 455 c 128,-1,42
 370 385 370 385 370 301 c 2,26,-1
EndSplineSet
EndChar

StartChar: one
Encoding: 49 49 521
Width: 1181
VWidth: 1798
GlyphClass: 2
Flags: W
LayerCount: 2
Fore
SplineSet
819 1207 m 1,0,-1
 819 -250 l 1,1,-1
 506 -250 l 1,2,-1
 506 851 l 1,3,-1
 168 748 l 1,4,-1
 168 990 l 1,5,-1
 788 1207 l 1,6,-1
 819 1207 l 1,0,-1
EndSplineSet
Substitution2: "'ss01' Style Set 1 lookup 35 subtable" uni06F1
Substitution2: "'numr' Numerators lookup 21 subtable" onesuperior
Substitution2: "'dnom' Denominators lookup 20 subtable" one.sup
Substitution2: "'frac' Diagonal Fractions lookup 19 subtable" onesuperior
Substitution2: "Single Substitution lookup 18 subtable" one.sup
Substitution2: "'onum' Oldstyle Figures lookup 14 subtable" one.tnum
Substitution2: "'c2sc' Capitals to Small Capitals lookup 0 subtable" one.smcp
Position2: "'cpsp' Capital Spacing lookup 0 subtable" dx=36 dy=0 dh=72 dv=0
EndChar

StartChar: one.onum
Encoding: 65756 -1 522
Width: 1171
GlyphClass: 1
Flags: W
LayerCount: 2
Fore
SplineSet
788 1164 m 1,0,-1
 788 0 l 1,1,-1
 476 0 l 1,2,-1
 476 808 l 1,3,-1
 138 705 l 1,4,-1
 138 946 l 1,5,-1
 757 1164 l 1,6,-1
 788 1164 l 1,0,-1
EndSplineSet
EndChar

StartChar: one.smcp
Encoding: 65757 -1 523
Width: 1070
GlyphClass: 2
Flags: W
LayerCount: 2
Fore
SplineSet
759 1161 m 1,0,-1
 759 0 l 1,1,-1
 447 0 l 1,2,-1
 447 811 l 1,3,-1
 150 747 l 1,4,-1
 150 979 l 1,5,-1
 731 1161 l 1,6,-1
 759 1161 l 1,0,-1
EndSplineSet
EndChar

StartChar: one.sup
Encoding: 65758 -1 524
Width: 765
GlyphClass: 2
Flags: W
LayerCount: 2
Fore
SplineSet
535 786 m 1,0,-1
 535 0 l 1,1,-1
 322 0 l 1,2,-1
 322 544 l 1,3,-1
 140 505 l 1,4,-1
 140 665 l 1,5,-1
 516 786 l 1,6,-1
 535 786 l 1,0,-1
EndSplineSet
EndChar

StartChar: onesuperior
Encoding: 185 185 529
Width: 765
VWidth: 1798
GlyphClass: 2
Flags: W
LayerCount: 2
Fore
SplineSet
535 1203 m 1,0,-1
 535 417 l 1,1,-1
 322 417 l 1,2,-1
 322 961 l 1,3,-1
 140 922 l 1,4,-1
 140 1082 l 1,5,-1
 516 1203 l 1,6,-1
 535 1203 l 1,0,-1
EndSplineSet
EndChar

StartChar: ordfeminine
Encoding: 170 170 530
Width: 907
VWidth: 1798
GlyphClass: 2
Flags: W
LayerCount: 2
Fore
SplineSet
604 455 m 1,0,1
 593 487 593 487 587 523 c 1,2,3
 556 490 556 490 506 465.5 c 128,-1,4
 456 441 456 441 385 441 c 0,5,6
 265 441 265 441 200.5 503.5 c 128,-1,7
 136 566 136 566 136 669 c 0,8,9
 136 779 136 779 220.5 839.5 c 128,-1,10
 305 900 305 900 477 900 c 2,11,-1
 580 900 l 1,12,-1
 580 951 l 2,13,14
 580 1079 580 1079 463 1079 c 0,15,16
 398 1079 398 1079 360.5 1053.5 c 128,-1,17
 323 1028 323 1028 323 979 c 1,18,-1
 152 993 l 1,19,20
 152 1094 152 1094 237 1160 c 128,-1,21
 322 1226 322 1226 463 1226 c 0,22,23
 593 1226 593 1226 673 1156.5 c 128,-1,24
 753 1087 753 1087 753 950 c 2,25,-1
 753 636 l 2,26,27
 753 587 753 587 759 543 c 128,-1,28
 765 499 765 499 779 455 c 1,29,-1
 604 455 l 1,0,1
427 584 m 0,30,31
 468 584 468 584 510.5 603 c 128,-1,32
 553 622 553 622 580 647 c 1,33,-1
 580 784 l 1,34,-1
 478 784 l 2,35,36
 390 784 390 784 349.5 750.5 c 128,-1,37
 309 717 309 717 309 673 c 0,38,39
 309 584 309 584 427 584 c 0,30,31
EndSplineSet
EndChar

StartChar: ordmasculine
Encoding: 186 186 531
Width: 938
VWidth: 1798
GlyphClass: 2
Flags: W
LayerCount: 2
Fore
SplineSet
119 794 m 2,0,-1
 119 871 l 2,1,2
 119 1026 119 1026 212 1126 c 128,-1,3
 305 1226 305 1226 464 1226 c 0,4,5
 625 1226 625 1226 717.5 1126 c 128,-1,6
 810 1026 810 1026 810 871 c 2,7,-1
 810 794 l 2,8,9
 810 639 810 639 718 539.5 c 128,-1,10
 626 440 626 440 466 440 c 256,11,12
 306 440 306 440 212.5 539.5 c 128,-1,13
 119 639 119 639 119 794 c 2,0,-1
292 871 m 2,14,-1
 292 794 l 2,15,16
 292 704 292 704 335 644.5 c 128,-1,17
 378 585 378 585 466 585 c 0,18,19
 552 585 552 585 594.5 644.5 c 128,-1,20
 637 704 637 704 637 794 c 2,21,-1
 637 871 l 2,22,23
 637 960 637 960 594.5 1019.5 c 128,-1,24
 552 1079 552 1079 464 1079 c 0,25,26
 377 1079 377 1079 334.5 1019.5 c 128,-1,27
 292 960 292 960 292 871 c 2,14,-1
EndSplineSet
EndChar

StartChar: oslash
Encoding: 248 248 532
Width: 1153
VWidth: 1798
GlyphClass: 2
Flags: W
AnchorPoint: "Anchor-0" 537 1039 basechar 0
LayerCount: 2
Fore
SplineSet
59 280 m 2,0,-1
 59 301 l 2,1,2
 59 459 59 459 119 583.5 c 128,-1,3
 179 708 179 708 294 780 c 128,-1,4
 409 852 409 852 575 852 c 0,5,6
 673 852 673 852 757 825 c 1,7,-1
 826 967 l 1,8,-1
 995 967 l 1,9,-1
 892 757 l 1,10,11
 991 684 991 684 1042.5 565.5 c 128,-1,12
 1094 447 1094 447 1094 301 c 2,13,-1
 1094 280 l 2,14,15
 1094 122 1094 122 1034 -2.5 c 128,-1,16
 974 -127 974 -127 859 -198.5 c 128,-1,17
 744 -270 744 -270 577 -270 c 0,18,19
 484 -270 484 -270 404 -246 c 1,20,-1
 332 -393 l 1,21,-1
 163 -393 l 1,22,-1
 267 -180 l 1,23,24
 165 -108 165 -108 112 12 c 128,-1,25
 59 132 59 132 59 280 c 2,0,-1
372 301 m 2,26,-1
 372 280 l 2,27,28
 372 227 372 227 379 180 c 128,-1,29
 386 133 386 133 401 95 c 1,30,-1
 646 597 l 1,31,32
 614 609 614 609 575 609 c 0,33,34
 499 609 499 609 454.5 567 c 128,-1,35
 410 525 410 525 391 455 c 128,-1,36
 372 385 372 385 372 301 c 2,26,-1
781 301 m 2,37,38
 781 349 781 349 775 393.5 c 128,-1,39
 769 438 769 438 755 475 c 1,40,-1
 515 -18 l 1,41,42
 543 -27 543 -27 577 -27 c 0,43,44
 691 -27 691 -27 736 62 c 128,-1,45
 781 151 781 151 781 280 c 2,46,-1
 781 301 l 2,37,38
EndSplineSet
Substitution2: "'unic' Unicase lookup 2 subtable" Oslash
Substitution2: "'smcp' Lowercase to Small Capitals lookup 1 subtable" Oslash.smcp
EndChar

StartChar: p
Encoding: 112 112 535
Width: 1153
VWidth: 1798
GlyphClass: 2
Flags: W
AnchorPoint: "Anchor-1" 231 -657 basechar 0
AnchorPoint: "Anchor-0" 629 1030 basechar 0
LayerCount: 2
Fore
SplineSet
1092 303 m 2,0,-1
 1092 282 l 2,1,2
 1092 125 1092 125 1044 0 c 128,-1,3
 996 -125 996 -125 902.5 -197.5 c 128,-1,4
 809 -270 809 -270 672 -270 c 0,5,6
 590 -270 590 -270 527 -240 c 128,-1,7
 464 -210 464 -210 417 -157 c 1,8,-1
 417 -666 l 1,9,-1
 105 -666 l 1,10,-1
 105 832 l 1,11,-1
 396 832 l 1,12,-1
 406 729 l 1,13,14
 454 787 454 787 519 819.5 c 128,-1,15
 584 852 584 852 671 852 c 0,16,17
 877 852 877 852 984.5 701.5 c 128,-1,18
 1092 551 1092 551 1092 303 c 2,0,-1
779 282 m 2,19,-1
 779 303 l 2,20,21
 779 435 779 435 737 522 c 128,-1,22
 695 609 695 609 591 609 c 0,23,24
 463 609 463 609 417 511 c 1,25,-1
 417 74 l 1,26,27
 440 27 440 27 482.5 0 c 128,-1,28
 525 -27 525 -27 593 -27 c 0,29,30
 663 -27 663 -27 703.5 15 c 128,-1,31
 744 57 744 57 761.5 127 c 128,-1,32
 779 197 779 197 779 282 c 2,19,-1
EndSplineSet
Substitution2: "'unic' Unicase lookup 2 subtable" P
Substitution2: "'smcp' Lowercase to Small Capitals lookup 1 subtable" P.smcp
EndChar

StartChar: paragraph
Encoding: 182 182 536
Width: 1001
VWidth: 1798
GlyphClass: 2
Flags: W
LayerCount: 2
Fore
SplineSet
877 -250 m 1,0,-1
 655 -250 l 1,1,-1
 655 270 l 1,2,-1
 572 270 l 2,3,4
 413 270 413 270 303.5 330.5 c 128,-1,5
 194 391 194 391 137 497 c 128,-1,6
 80 603 80 603 80 738 c 0,7,8
 80 872 80 872 137 978 c 128,-1,9
 194 1084 194 1084 303.5 1145 c 128,-1,10
 413 1206 413 1206 572 1206 c 2,11,-1
 877 1206 l 1,12,-1
 877 -250 l 1,0,-1
EndSplineSet
EndChar

StartChar: parenleft
Encoding: 40 40 537
Width: 725
VWidth: 1798
GlyphClass: 2
Flags: W
LayerCount: 2
Fore
SplineSet
385 342 m 256,0,1
 385 167 385 167 418 -2 c 128,-1,2
 451 -171 451 -171 518.5 -307 c 128,-1,3
 586 -443 586 -443 688 -519 c 1,4,-1
 628 -678 l 1,5,6
 474 -609 474 -609 362.5 -457 c 128,-1,7
 251 -305 251 -305 190.5 -99 c 128,-1,8
 130 107 130 107 130 337 c 0,9,10
 130 509 130 509 164.5 670.5 c 128,-1,11
 199 832 199 832 263.5 970 c 128,-1,12
 328 1108 328 1108 420.5 1209.5 c 128,-1,13
 513 1311 513 1311 628 1362 c 1,14,-1
 688 1203 l 1,15,16
 586 1128 586 1128 518.5 991.5 c 128,-1,17
 451 855 451 855 418 686 c 128,-1,18
 385 517 385 517 385 342 c 256,0,1
EndSplineSet
Position2: "Single Positioning lookup 9 subtable" dx=0 dy=0 dh=80 dv=0
Position2: "Single Positioning lookup 8 subtable" dx=0 dy=0 dh=160 dv=0
EndChar

StartChar: parenright
Encoding: 41 41 538
Width: 725
VWidth: 1798
GlyphClass: 2
Flags: W
LayerCount: 2
Fore
SplineSet
340 342 m 256,0,1
 340 517 340 517 307 686 c 128,-1,2
 274 855 274 855 207 991.5 c 128,-1,3
 140 1128 140 1128 37 1203 c 1,4,-1
 97 1362 l 1,5,6
 251 1294 251 1294 362.5 1140 c 128,-1,7
 474 986 474 986 534.5 779 c 128,-1,8
 595 572 595 572 595 342 c 256,9,10
 595 112 595 112 534.5 -95.5 c 128,-1,11
 474 -303 474 -303 362.5 -456 c 128,-1,12
 251 -609 251 -609 97 -678 c 1,13,-1
 37 -519 l 1,14,15
 140 -443 140 -443 207 -307 c 128,-1,16
 274 -171 274 -171 307 -2 c 128,-1,17
 340 167 340 167 340 342 c 256,0,1
EndSplineSet
EndChar

